%TF.GenerationSoftware,KiCad,Pcbnew,(5.1.9)-1*%
%TF.CreationDate,2021-06-02T07:50:45+02:00*%
%TF.ProjectId,MyReflowController,4d795265-666c-46f7-9743-6f6e74726f6c,rev?*%
%TF.SameCoordinates,Original*%
%TF.FileFunction,Soldermask,Bot*%
%TF.FilePolarity,Negative*%
%FSLAX46Y46*%
G04 Gerber Fmt 4.6, Leading zero omitted, Abs format (unit mm)*
G04 Created by KiCad (PCBNEW (5.1.9)-1) date 2021-06-02 07:50:45*
%MOMM*%
%LPD*%
G01*
G04 APERTURE LIST*
%ADD10R,2.000000X2.000000*%
%ADD11C,2.000000*%
%ADD12C,3.700000*%
%ADD13R,1.700000X1.700000*%
%ADD14O,1.700000X1.700000*%
%ADD15R,3.000000X3.000000*%
%ADD16C,3.000000*%
%ADD17C,4.000000*%
%ADD18C,1.700000*%
%ADD19C,2.082800*%
%ADD20C,3.200000*%
G04 APERTURE END LIST*
D10*
%TO.C,BZ1*%
X38000000Y-54800000D03*
D11*
X38000000Y-62400000D03*
%TD*%
D12*
%TO.C,J5*%
X80350000Y-58000000D03*
X57050000Y-58000000D03*
X80350000Y-34200000D03*
X57050000Y-34200000D03*
D13*
X64844000Y-33688000D03*
D14*
X67384000Y-33688000D03*
X69924000Y-33688000D03*
X72464000Y-33688000D03*
%TD*%
D15*
%TO.C,J1*%
X99900000Y-32820000D03*
D16*
X99900000Y-37900000D03*
%TD*%
%TO.C,J2*%
X99900000Y-49180000D03*
D15*
X99900000Y-44100000D03*
%TD*%
D13*
%TO.C,J3*%
X76800000Y-51000000D03*
D14*
X76800000Y-53540000D03*
X79340000Y-51000000D03*
X79340000Y-53540000D03*
X81880000Y-51000000D03*
X81880000Y-53540000D03*
%TD*%
D15*
%TO.C,J4*%
X99900000Y-55220000D03*
D16*
X99900000Y-60300000D03*
%TD*%
D17*
%TO.C,J6*%
X33300000Y-37000000D03*
X33300000Y-49000000D03*
D18*
X38010000Y-41770000D03*
X38010000Y-44500000D03*
X36010000Y-41770000D03*
X36010000Y-44500000D03*
%TD*%
D13*
%TO.C,J7*%
X85600000Y-69200000D03*
D14*
X83060000Y-69200000D03*
X80520000Y-69200000D03*
X77980000Y-69200000D03*
X75440000Y-69200000D03*
X72900000Y-69200000D03*
X70360000Y-69200000D03*
X67820000Y-69200000D03*
X65280000Y-69200000D03*
X62740000Y-69200000D03*
X60200000Y-69200000D03*
X57660000Y-69200000D03*
X55120000Y-69200000D03*
X52580000Y-69200000D03*
X50040000Y-69200000D03*
%TD*%
%TO.C,J8*%
X85600000Y-26800000D03*
X83060000Y-26800000D03*
X80520000Y-26800000D03*
X77980000Y-26800000D03*
X75440000Y-26800000D03*
X72900000Y-26800000D03*
X70360000Y-26800000D03*
X67820000Y-26800000D03*
X65280000Y-26800000D03*
X62740000Y-26800000D03*
X60200000Y-26800000D03*
X57660000Y-26800000D03*
X55120000Y-26800000D03*
X52580000Y-26800000D03*
D13*
X50040000Y-26800000D03*
%TD*%
D19*
%TO.C,SW1*%
X82660600Y-60248800D03*
X82660600Y-66751200D03*
X78139400Y-60248800D03*
X78139400Y-66751200D03*
%TD*%
%TO.C,SW2*%
X59751200Y-42960600D03*
X53248800Y-42960600D03*
X59751200Y-38439400D03*
X53248800Y-38439400D03*
%TD*%
%TO.C,SW3*%
X75160600Y-60248800D03*
X75160600Y-66751200D03*
X70639400Y-60248800D03*
X70639400Y-66751200D03*
%TD*%
D20*
%TO.C,H1*%
X33400000Y-28400000D03*
%TD*%
%TO.C,H2*%
X33400000Y-67600000D03*
%TD*%
%TO.C,H3*%
X91200000Y-67600000D03*
%TD*%
%TO.C,H4*%
X91200000Y-28400000D03*
%TD*%
M02*
