%TF.GenerationSoftware,KiCad,Pcbnew,(5.1.9)-1*%
%TF.CreationDate,2021-06-02T07:50:45+02:00*%
%TF.ProjectId,MyReflowController,4d795265-666c-46f7-9743-6f6e74726f6c,rev?*%
%TF.SameCoordinates,Original*%
%TF.FileFunction,Paste,Top*%
%TF.FilePolarity,Positive*%
%FSLAX46Y46*%
G04 Gerber Fmt 4.6, Leading zero omitted, Abs format (unit mm)*
G04 Created by KiCad (PCBNEW (5.1.9)-1) date 2021-06-02 07:50:45*
%MOMM*%
%LPD*%
G01*
G04 APERTURE LIST*
%ADD10R,1.300000X0.600000*%
%ADD11R,0.900000X0.800000*%
%ADD12R,0.550000X1.500000*%
%ADD13R,1.500000X0.550000*%
%ADD14R,2.000000X0.600000*%
%ADD15R,3.800000X2.000000*%
%ADD16R,1.500000X2.000000*%
%ADD17R,1.400000X0.300000*%
%ADD18R,2.400000X1.700000*%
G04 APERTURE END LIST*
%TO.C,C1*%
G36*
G01*
X63797500Y-44412500D02*
X63322500Y-44412500D01*
G75*
G02*
X63085000Y-44175000I0J237500D01*
G01*
X63085000Y-43575000D01*
G75*
G02*
X63322500Y-43337500I237500J0D01*
G01*
X63797500Y-43337500D01*
G75*
G02*
X64035000Y-43575000I0J-237500D01*
G01*
X64035000Y-44175000D01*
G75*
G02*
X63797500Y-44412500I-237500J0D01*
G01*
G37*
G36*
G01*
X63797500Y-46137500D02*
X63322500Y-46137500D01*
G75*
G02*
X63085000Y-45900000I0J237500D01*
G01*
X63085000Y-45300000D01*
G75*
G02*
X63322500Y-45062500I237500J0D01*
G01*
X63797500Y-45062500D01*
G75*
G02*
X64035000Y-45300000I0J-237500D01*
G01*
X64035000Y-45900000D01*
G75*
G02*
X63797500Y-46137500I-237500J0D01*
G01*
G37*
%TD*%
%TO.C,C2*%
G36*
G01*
X64037500Y-46962500D02*
X64037500Y-47437500D01*
G75*
G02*
X63800000Y-47675000I-237500J0D01*
G01*
X63200000Y-47675000D01*
G75*
G02*
X62962500Y-47437500I0J237500D01*
G01*
X62962500Y-46962500D01*
G75*
G02*
X63200000Y-46725000I237500J0D01*
G01*
X63800000Y-46725000D01*
G75*
G02*
X64037500Y-46962500I0J-237500D01*
G01*
G37*
G36*
G01*
X62312500Y-46962500D02*
X62312500Y-47437500D01*
G75*
G02*
X62075000Y-47675000I-237500J0D01*
G01*
X61475000Y-47675000D01*
G75*
G02*
X61237500Y-47437500I0J237500D01*
G01*
X61237500Y-46962500D01*
G75*
G02*
X61475000Y-46725000I237500J0D01*
G01*
X62075000Y-46725000D01*
G75*
G02*
X62312500Y-46962500I0J-237500D01*
G01*
G37*
%TD*%
%TO.C,C3*%
G36*
G01*
X60287500Y-44825000D02*
X60287500Y-45775000D01*
G75*
G02*
X60037500Y-46025000I-250000J0D01*
G01*
X59362500Y-46025000D01*
G75*
G02*
X59112500Y-45775000I0J250000D01*
G01*
X59112500Y-44825000D01*
G75*
G02*
X59362500Y-44575000I250000J0D01*
G01*
X60037500Y-44575000D01*
G75*
G02*
X60287500Y-44825000I0J-250000D01*
G01*
G37*
G36*
G01*
X62362500Y-44825000D02*
X62362500Y-45775000D01*
G75*
G02*
X62112500Y-46025000I-250000J0D01*
G01*
X61437500Y-46025000D01*
G75*
G02*
X61187500Y-45775000I0J250000D01*
G01*
X61187500Y-44825000D01*
G75*
G02*
X61437500Y-44575000I250000J0D01*
G01*
X62112500Y-44575000D01*
G75*
G02*
X62362500Y-44825000I0J-250000D01*
G01*
G37*
%TD*%
%TO.C,C4*%
G36*
G01*
X77862500Y-46062500D02*
X77862500Y-46537500D01*
G75*
G02*
X77625000Y-46775000I-237500J0D01*
G01*
X77025000Y-46775000D01*
G75*
G02*
X76787500Y-46537500I0J237500D01*
G01*
X76787500Y-46062500D01*
G75*
G02*
X77025000Y-45825000I237500J0D01*
G01*
X77625000Y-45825000D01*
G75*
G02*
X77862500Y-46062500I0J-237500D01*
G01*
G37*
G36*
G01*
X76137500Y-46062500D02*
X76137500Y-46537500D01*
G75*
G02*
X75900000Y-46775000I-237500J0D01*
G01*
X75300000Y-46775000D01*
G75*
G02*
X75062500Y-46537500I0J237500D01*
G01*
X75062500Y-46062500D01*
G75*
G02*
X75300000Y-45825000I237500J0D01*
G01*
X75900000Y-45825000D01*
G75*
G02*
X76137500Y-46062500I0J-237500D01*
G01*
G37*
%TD*%
%TO.C,C5*%
G36*
G01*
X55650000Y-47200000D02*
X56150000Y-47200000D01*
G75*
G02*
X56375000Y-47425000I0J-225000D01*
G01*
X56375000Y-47875000D01*
G75*
G02*
X56150000Y-48100000I-225000J0D01*
G01*
X55650000Y-48100000D01*
G75*
G02*
X55425000Y-47875000I0J225000D01*
G01*
X55425000Y-47425000D01*
G75*
G02*
X55650000Y-47200000I225000J0D01*
G01*
G37*
G36*
G01*
X55650000Y-48750000D02*
X56150000Y-48750000D01*
G75*
G02*
X56375000Y-48975000I0J-225000D01*
G01*
X56375000Y-49425000D01*
G75*
G02*
X56150000Y-49650000I-225000J0D01*
G01*
X55650000Y-49650000D01*
G75*
G02*
X55425000Y-49425000I0J225000D01*
G01*
X55425000Y-48975000D01*
G75*
G02*
X55650000Y-48750000I225000J0D01*
G01*
G37*
%TD*%
%TO.C,C6*%
G36*
G01*
X76137500Y-47662500D02*
X76137500Y-48137500D01*
G75*
G02*
X75900000Y-48375000I-237500J0D01*
G01*
X75300000Y-48375000D01*
G75*
G02*
X75062500Y-48137500I0J237500D01*
G01*
X75062500Y-47662500D01*
G75*
G02*
X75300000Y-47425000I237500J0D01*
G01*
X75900000Y-47425000D01*
G75*
G02*
X76137500Y-47662500I0J-237500D01*
G01*
G37*
G36*
G01*
X77862500Y-47662500D02*
X77862500Y-48137500D01*
G75*
G02*
X77625000Y-48375000I-237500J0D01*
G01*
X77025000Y-48375000D01*
G75*
G02*
X76787500Y-48137500I0J237500D01*
G01*
X76787500Y-47662500D01*
G75*
G02*
X77025000Y-47425000I237500J0D01*
G01*
X77625000Y-47425000D01*
G75*
G02*
X77862500Y-47662500I0J-237500D01*
G01*
G37*
%TD*%
%TO.C,C7*%
G36*
G01*
X93637500Y-56337500D02*
X93162500Y-56337500D01*
G75*
G02*
X92925000Y-56100000I0J237500D01*
G01*
X92925000Y-55500000D01*
G75*
G02*
X93162500Y-55262500I237500J0D01*
G01*
X93637500Y-55262500D01*
G75*
G02*
X93875000Y-55500000I0J-237500D01*
G01*
X93875000Y-56100000D01*
G75*
G02*
X93637500Y-56337500I-237500J0D01*
G01*
G37*
G36*
G01*
X93637500Y-58062500D02*
X93162500Y-58062500D01*
G75*
G02*
X92925000Y-57825000I0J237500D01*
G01*
X92925000Y-57225000D01*
G75*
G02*
X93162500Y-56987500I237500J0D01*
G01*
X93637500Y-56987500D01*
G75*
G02*
X93875000Y-57225000I0J-237500D01*
G01*
X93875000Y-57825000D01*
G75*
G02*
X93637500Y-58062500I-237500J0D01*
G01*
G37*
%TD*%
%TO.C,C8*%
G36*
G01*
X95237500Y-54637500D02*
X94762500Y-54637500D01*
G75*
G02*
X94525000Y-54400000I0J237500D01*
G01*
X94525000Y-53800000D01*
G75*
G02*
X94762500Y-53562500I237500J0D01*
G01*
X95237500Y-53562500D01*
G75*
G02*
X95475000Y-53800000I0J-237500D01*
G01*
X95475000Y-54400000D01*
G75*
G02*
X95237500Y-54637500I-237500J0D01*
G01*
G37*
G36*
G01*
X95237500Y-56362500D02*
X94762500Y-56362500D01*
G75*
G02*
X94525000Y-56125000I0J237500D01*
G01*
X94525000Y-55525000D01*
G75*
G02*
X94762500Y-55287500I237500J0D01*
G01*
X95237500Y-55287500D01*
G75*
G02*
X95475000Y-55525000I0J-237500D01*
G01*
X95475000Y-56125000D01*
G75*
G02*
X95237500Y-56362500I-237500J0D01*
G01*
G37*
%TD*%
%TO.C,C9*%
G36*
G01*
X55650000Y-51800000D02*
X56150000Y-51800000D01*
G75*
G02*
X56375000Y-52025000I0J-225000D01*
G01*
X56375000Y-52475000D01*
G75*
G02*
X56150000Y-52700000I-225000J0D01*
G01*
X55650000Y-52700000D01*
G75*
G02*
X55425000Y-52475000I0J225000D01*
G01*
X55425000Y-52025000D01*
G75*
G02*
X55650000Y-51800000I225000J0D01*
G01*
G37*
G36*
G01*
X55650000Y-50250000D02*
X56150000Y-50250000D01*
G75*
G02*
X56375000Y-50475000I0J-225000D01*
G01*
X56375000Y-50925000D01*
G75*
G02*
X56150000Y-51150000I-225000J0D01*
G01*
X55650000Y-51150000D01*
G75*
G02*
X55425000Y-50925000I0J225000D01*
G01*
X55425000Y-50475000D01*
G75*
G02*
X55650000Y-50250000I225000J0D01*
G01*
G37*
%TD*%
%TO.C,C10*%
G36*
G01*
X93637500Y-54562500D02*
X93162500Y-54562500D01*
G75*
G02*
X92925000Y-54325000I0J237500D01*
G01*
X92925000Y-53725000D01*
G75*
G02*
X93162500Y-53487500I237500J0D01*
G01*
X93637500Y-53487500D01*
G75*
G02*
X93875000Y-53725000I0J-237500D01*
G01*
X93875000Y-54325000D01*
G75*
G02*
X93637500Y-54562500I-237500J0D01*
G01*
G37*
G36*
G01*
X93637500Y-52837500D02*
X93162500Y-52837500D01*
G75*
G02*
X92925000Y-52600000I0J237500D01*
G01*
X92925000Y-52000000D01*
G75*
G02*
X93162500Y-51762500I237500J0D01*
G01*
X93637500Y-51762500D01*
G75*
G02*
X93875000Y-52000000I0J-237500D01*
G01*
X93875000Y-52600000D01*
G75*
G02*
X93637500Y-52837500I-237500J0D01*
G01*
G37*
%TD*%
%TO.C,C11*%
G36*
G01*
X41775000Y-52125000D02*
X40825000Y-52125000D01*
G75*
G02*
X40575000Y-51875000I0J250000D01*
G01*
X40575000Y-51200000D01*
G75*
G02*
X40825000Y-50950000I250000J0D01*
G01*
X41775000Y-50950000D01*
G75*
G02*
X42025000Y-51200000I0J-250000D01*
G01*
X42025000Y-51875000D01*
G75*
G02*
X41775000Y-52125000I-250000J0D01*
G01*
G37*
G36*
G01*
X41775000Y-50050000D02*
X40825000Y-50050000D01*
G75*
G02*
X40575000Y-49800000I0J250000D01*
G01*
X40575000Y-49125000D01*
G75*
G02*
X40825000Y-48875000I250000J0D01*
G01*
X41775000Y-48875000D01*
G75*
G02*
X42025000Y-49125000I0J-250000D01*
G01*
X42025000Y-49800000D01*
G75*
G02*
X41775000Y-50050000I-250000J0D01*
G01*
G37*
%TD*%
%TO.C,C12*%
G36*
G01*
X91337500Y-51700000D02*
X90862500Y-51700000D01*
G75*
G02*
X90625000Y-51462500I0J237500D01*
G01*
X90625000Y-50862500D01*
G75*
G02*
X90862500Y-50625000I237500J0D01*
G01*
X91337500Y-50625000D01*
G75*
G02*
X91575000Y-50862500I0J-237500D01*
G01*
X91575000Y-51462500D01*
G75*
G02*
X91337500Y-51700000I-237500J0D01*
G01*
G37*
G36*
G01*
X91337500Y-49975000D02*
X90862500Y-49975000D01*
G75*
G02*
X90625000Y-49737500I0J237500D01*
G01*
X90625000Y-49137500D01*
G75*
G02*
X90862500Y-48900000I237500J0D01*
G01*
X91337500Y-48900000D01*
G75*
G02*
X91575000Y-49137500I0J-237500D01*
G01*
X91575000Y-49737500D01*
G75*
G02*
X91337500Y-49975000I-237500J0D01*
G01*
G37*
%TD*%
%TO.C,C13*%
G36*
G01*
X43062500Y-48900000D02*
X43537500Y-48900000D01*
G75*
G02*
X43775000Y-49137500I0J-237500D01*
G01*
X43775000Y-49737500D01*
G75*
G02*
X43537500Y-49975000I-237500J0D01*
G01*
X43062500Y-49975000D01*
G75*
G02*
X42825000Y-49737500I0J237500D01*
G01*
X42825000Y-49137500D01*
G75*
G02*
X43062500Y-48900000I237500J0D01*
G01*
G37*
G36*
G01*
X43062500Y-50625000D02*
X43537500Y-50625000D01*
G75*
G02*
X43775000Y-50862500I0J-237500D01*
G01*
X43775000Y-51462500D01*
G75*
G02*
X43537500Y-51700000I-237500J0D01*
G01*
X43062500Y-51700000D01*
G75*
G02*
X42825000Y-51462500I0J237500D01*
G01*
X42825000Y-50862500D01*
G75*
G02*
X43062500Y-50625000I237500J0D01*
G01*
G37*
%TD*%
%TO.C,C14*%
G36*
G01*
X47312500Y-47775000D02*
X47312500Y-46825000D01*
G75*
G02*
X47562500Y-46575000I250000J0D01*
G01*
X48237500Y-46575000D01*
G75*
G02*
X48487500Y-46825000I0J-250000D01*
G01*
X48487500Y-47775000D01*
G75*
G02*
X48237500Y-48025000I-250000J0D01*
G01*
X47562500Y-48025000D01*
G75*
G02*
X47312500Y-47775000I0J250000D01*
G01*
G37*
G36*
G01*
X49387500Y-47775000D02*
X49387500Y-46825000D01*
G75*
G02*
X49637500Y-46575000I250000J0D01*
G01*
X50312500Y-46575000D01*
G75*
G02*
X50562500Y-46825000I0J-250000D01*
G01*
X50562500Y-47775000D01*
G75*
G02*
X50312500Y-48025000I-250000J0D01*
G01*
X49637500Y-48025000D01*
G75*
G02*
X49387500Y-47775000I0J250000D01*
G01*
G37*
%TD*%
%TO.C,C15*%
G36*
G01*
X67537500Y-35662500D02*
X67537500Y-36137500D01*
G75*
G02*
X67300000Y-36375000I-237500J0D01*
G01*
X66700000Y-36375000D01*
G75*
G02*
X66462500Y-36137500I0J237500D01*
G01*
X66462500Y-35662500D01*
G75*
G02*
X66700000Y-35425000I237500J0D01*
G01*
X67300000Y-35425000D01*
G75*
G02*
X67537500Y-35662500I0J-237500D01*
G01*
G37*
G36*
G01*
X65812500Y-35662500D02*
X65812500Y-36137500D01*
G75*
G02*
X65575000Y-36375000I-237500J0D01*
G01*
X64975000Y-36375000D01*
G75*
G02*
X64737500Y-36137500I0J237500D01*
G01*
X64737500Y-35662500D01*
G75*
G02*
X64975000Y-35425000I237500J0D01*
G01*
X65575000Y-35425000D01*
G75*
G02*
X65812500Y-35662500I0J-237500D01*
G01*
G37*
%TD*%
%TO.C,C16*%
G36*
G01*
X48537500Y-41862500D02*
X48537500Y-42337500D01*
G75*
G02*
X48300000Y-42575000I-237500J0D01*
G01*
X47700000Y-42575000D01*
G75*
G02*
X47462500Y-42337500I0J237500D01*
G01*
X47462500Y-41862500D01*
G75*
G02*
X47700000Y-41625000I237500J0D01*
G01*
X48300000Y-41625000D01*
G75*
G02*
X48537500Y-41862500I0J-237500D01*
G01*
G37*
G36*
G01*
X50262500Y-41862500D02*
X50262500Y-42337500D01*
G75*
G02*
X50025000Y-42575000I-237500J0D01*
G01*
X49425000Y-42575000D01*
G75*
G02*
X49187500Y-42337500I0J237500D01*
G01*
X49187500Y-41862500D01*
G75*
G02*
X49425000Y-41625000I237500J0D01*
G01*
X50025000Y-41625000D01*
G75*
G02*
X50262500Y-41862500I0J-237500D01*
G01*
G37*
%TD*%
%TO.C,C17*%
G36*
G01*
X43875000Y-37112500D02*
X42925000Y-37112500D01*
G75*
G02*
X42675000Y-36862500I0J250000D01*
G01*
X42675000Y-36187500D01*
G75*
G02*
X42925000Y-35937500I250000J0D01*
G01*
X43875000Y-35937500D01*
G75*
G02*
X44125000Y-36187500I0J-250000D01*
G01*
X44125000Y-36862500D01*
G75*
G02*
X43875000Y-37112500I-250000J0D01*
G01*
G37*
G36*
G01*
X43875000Y-39187500D02*
X42925000Y-39187500D01*
G75*
G02*
X42675000Y-38937500I0J250000D01*
G01*
X42675000Y-38262500D01*
G75*
G02*
X42925000Y-38012500I250000J0D01*
G01*
X43875000Y-38012500D01*
G75*
G02*
X44125000Y-38262500I0J-250000D01*
G01*
X44125000Y-38937500D01*
G75*
G02*
X43875000Y-39187500I-250000J0D01*
G01*
G37*
%TD*%
%TO.C,C18*%
G36*
G01*
X48537500Y-40062500D02*
X48537500Y-40537500D01*
G75*
G02*
X48300000Y-40775000I-237500J0D01*
G01*
X47700000Y-40775000D01*
G75*
G02*
X47462500Y-40537500I0J237500D01*
G01*
X47462500Y-40062500D01*
G75*
G02*
X47700000Y-39825000I237500J0D01*
G01*
X48300000Y-39825000D01*
G75*
G02*
X48537500Y-40062500I0J-237500D01*
G01*
G37*
G36*
G01*
X50262500Y-40062500D02*
X50262500Y-40537500D01*
G75*
G02*
X50025000Y-40775000I-237500J0D01*
G01*
X49425000Y-40775000D01*
G75*
G02*
X49187500Y-40537500I0J237500D01*
G01*
X49187500Y-40062500D01*
G75*
G02*
X49425000Y-39825000I237500J0D01*
G01*
X50025000Y-39825000D01*
G75*
G02*
X50262500Y-40062500I0J-237500D01*
G01*
G37*
%TD*%
%TO.C,D1*%
G36*
G01*
X84750001Y-36525000D02*
X83849999Y-36525000D01*
G75*
G02*
X83600000Y-36275001I0J249999D01*
G01*
X83600000Y-35624999D01*
G75*
G02*
X83849999Y-35375000I249999J0D01*
G01*
X84750001Y-35375000D01*
G75*
G02*
X85000000Y-35624999I0J-249999D01*
G01*
X85000000Y-36275001D01*
G75*
G02*
X84750001Y-36525000I-249999J0D01*
G01*
G37*
G36*
G01*
X84750001Y-34475000D02*
X83849999Y-34475000D01*
G75*
G02*
X83600000Y-34225001I0J249999D01*
G01*
X83600000Y-33574999D01*
G75*
G02*
X83849999Y-33325000I249999J0D01*
G01*
X84750001Y-33325000D01*
G75*
G02*
X85000000Y-33574999I0J-249999D01*
G01*
X85000000Y-34225001D01*
G75*
G02*
X84750001Y-34475000I-249999J0D01*
G01*
G37*
%TD*%
%TO.C,D2*%
G36*
G01*
X58775000Y-63037500D02*
X58775000Y-62562500D01*
G75*
G02*
X59012500Y-62325000I237500J0D01*
G01*
X59587500Y-62325000D01*
G75*
G02*
X59825000Y-62562500I0J-237500D01*
G01*
X59825000Y-63037500D01*
G75*
G02*
X59587500Y-63275000I-237500J0D01*
G01*
X59012500Y-63275000D01*
G75*
G02*
X58775000Y-63037500I0J237500D01*
G01*
G37*
G36*
G01*
X60525000Y-63037500D02*
X60525000Y-62562500D01*
G75*
G02*
X60762500Y-62325000I237500J0D01*
G01*
X61337500Y-62325000D01*
G75*
G02*
X61575000Y-62562500I0J-237500D01*
G01*
X61575000Y-63037500D01*
G75*
G02*
X61337500Y-63275000I-237500J0D01*
G01*
X60762500Y-63275000D01*
G75*
G02*
X60525000Y-63037500I0J237500D01*
G01*
G37*
%TD*%
%TO.C,D3*%
G36*
G01*
X84375000Y-46162500D02*
X84375000Y-46637500D01*
G75*
G02*
X84137500Y-46875000I-237500J0D01*
G01*
X83562500Y-46875000D01*
G75*
G02*
X83325000Y-46637500I0J237500D01*
G01*
X83325000Y-46162500D01*
G75*
G02*
X83562500Y-45925000I237500J0D01*
G01*
X84137500Y-45925000D01*
G75*
G02*
X84375000Y-46162500I0J-237500D01*
G01*
G37*
G36*
G01*
X82625000Y-46162500D02*
X82625000Y-46637500D01*
G75*
G02*
X82387500Y-46875000I-237500J0D01*
G01*
X81812500Y-46875000D01*
G75*
G02*
X81575000Y-46637500I0J237500D01*
G01*
X81575000Y-46162500D01*
G75*
G02*
X81812500Y-45925000I237500J0D01*
G01*
X82387500Y-45925000D01*
G75*
G02*
X82625000Y-46162500I0J-237500D01*
G01*
G37*
%TD*%
%TO.C,F1*%
G36*
G01*
X40675000Y-43787500D02*
X41925000Y-43787500D01*
G75*
G02*
X42175000Y-44037500I0J-250000D01*
G01*
X42175000Y-44962500D01*
G75*
G02*
X41925000Y-45212500I-250000J0D01*
G01*
X40675000Y-45212500D01*
G75*
G02*
X40425000Y-44962500I0J250000D01*
G01*
X40425000Y-44037500D01*
G75*
G02*
X40675000Y-43787500I250000J0D01*
G01*
G37*
G36*
G01*
X40675000Y-46762500D02*
X41925000Y-46762500D01*
G75*
G02*
X42175000Y-47012500I0J-250000D01*
G01*
X42175000Y-47937500D01*
G75*
G02*
X41925000Y-48187500I-250000J0D01*
G01*
X40675000Y-48187500D01*
G75*
G02*
X40425000Y-47937500I0J250000D01*
G01*
X40425000Y-47012500D01*
G75*
G02*
X40675000Y-46762500I250000J0D01*
G01*
G37*
%TD*%
%TO.C,FB1*%
G36*
G01*
X44150001Y-47700000D02*
X43249999Y-47700000D01*
G75*
G02*
X43000000Y-47450001I0J249999D01*
G01*
X43000000Y-46799999D01*
G75*
G02*
X43249999Y-46550000I249999J0D01*
G01*
X44150001Y-46550000D01*
G75*
G02*
X44400000Y-46799999I0J-249999D01*
G01*
X44400000Y-47450001D01*
G75*
G02*
X44150001Y-47700000I-249999J0D01*
G01*
G37*
G36*
G01*
X44150001Y-45650000D02*
X43249999Y-45650000D01*
G75*
G02*
X43000000Y-45400001I0J249999D01*
G01*
X43000000Y-44749999D01*
G75*
G02*
X43249999Y-44500000I249999J0D01*
G01*
X44150001Y-44500000D01*
G75*
G02*
X44400000Y-44749999I0J-249999D01*
G01*
X44400000Y-45400001D01*
G75*
G02*
X44150001Y-45650000I-249999J0D01*
G01*
G37*
%TD*%
D10*
%TO.C,Q1*%
X43450000Y-65200000D03*
X45550000Y-64250000D03*
X45550000Y-66150000D03*
%TD*%
D11*
%TO.C,Q2*%
X92700000Y-36550000D03*
X92700000Y-38450000D03*
X94700000Y-37500000D03*
%TD*%
%TO.C,Q3*%
X94700000Y-44200000D03*
X92700000Y-45150000D03*
X92700000Y-43250000D03*
%TD*%
%TO.C,R1*%
G36*
G01*
X69112500Y-38937500D02*
X69112500Y-38462500D01*
G75*
G02*
X69350000Y-38225000I237500J0D01*
G01*
X69850000Y-38225000D01*
G75*
G02*
X70087500Y-38462500I0J-237500D01*
G01*
X70087500Y-38937500D01*
G75*
G02*
X69850000Y-39175000I-237500J0D01*
G01*
X69350000Y-39175000D01*
G75*
G02*
X69112500Y-38937500I0J237500D01*
G01*
G37*
G36*
G01*
X67287500Y-38937500D02*
X67287500Y-38462500D01*
G75*
G02*
X67525000Y-38225000I237500J0D01*
G01*
X68025000Y-38225000D01*
G75*
G02*
X68262500Y-38462500I0J-237500D01*
G01*
X68262500Y-38937500D01*
G75*
G02*
X68025000Y-39175000I-237500J0D01*
G01*
X67525000Y-39175000D01*
G75*
G02*
X67287500Y-38937500I0J237500D01*
G01*
G37*
%TD*%
%TO.C,R2*%
G36*
G01*
X71587500Y-38462500D02*
X71587500Y-38937500D01*
G75*
G02*
X71350000Y-39175000I-237500J0D01*
G01*
X70850000Y-39175000D01*
G75*
G02*
X70612500Y-38937500I0J237500D01*
G01*
X70612500Y-38462500D01*
G75*
G02*
X70850000Y-38225000I237500J0D01*
G01*
X71350000Y-38225000D01*
G75*
G02*
X71587500Y-38462500I0J-237500D01*
G01*
G37*
G36*
G01*
X73412500Y-38462500D02*
X73412500Y-38937500D01*
G75*
G02*
X73175000Y-39175000I-237500J0D01*
G01*
X72675000Y-39175000D01*
G75*
G02*
X72437500Y-38937500I0J237500D01*
G01*
X72437500Y-38462500D01*
G75*
G02*
X72675000Y-38225000I237500J0D01*
G01*
X73175000Y-38225000D01*
G75*
G02*
X73412500Y-38462500I0J-237500D01*
G01*
G37*
%TD*%
%TO.C,R3*%
G36*
G01*
X52349999Y-35000000D02*
X53250001Y-35000000D01*
G75*
G02*
X53500000Y-35249999I0J-249999D01*
G01*
X53500000Y-35950001D01*
G75*
G02*
X53250001Y-36200000I-249999J0D01*
G01*
X52349999Y-36200000D01*
G75*
G02*
X52100000Y-35950001I0J249999D01*
G01*
X52100000Y-35249999D01*
G75*
G02*
X52349999Y-35000000I249999J0D01*
G01*
G37*
G36*
G01*
X52349999Y-33000000D02*
X53250001Y-33000000D01*
G75*
G02*
X53500000Y-33249999I0J-249999D01*
G01*
X53500000Y-33950001D01*
G75*
G02*
X53250001Y-34200000I-249999J0D01*
G01*
X52349999Y-34200000D01*
G75*
G02*
X52100000Y-33950001I0J249999D01*
G01*
X52100000Y-33249999D01*
G75*
G02*
X52349999Y-33000000I249999J0D01*
G01*
G37*
%TD*%
%TO.C,R4*%
G36*
G01*
X76149999Y-55700000D02*
X77050001Y-55700000D01*
G75*
G02*
X77300000Y-55949999I0J-249999D01*
G01*
X77300000Y-56650001D01*
G75*
G02*
X77050001Y-56900000I-249999J0D01*
G01*
X76149999Y-56900000D01*
G75*
G02*
X75900000Y-56650001I0J249999D01*
G01*
X75900000Y-55949999D01*
G75*
G02*
X76149999Y-55700000I249999J0D01*
G01*
G37*
G36*
G01*
X76149999Y-57700000D02*
X77050001Y-57700000D01*
G75*
G02*
X77300000Y-57949999I0J-249999D01*
G01*
X77300000Y-58650001D01*
G75*
G02*
X77050001Y-58900000I-249999J0D01*
G01*
X76149999Y-58900000D01*
G75*
G02*
X75900000Y-58650001I0J249999D01*
G01*
X75900000Y-57949999D01*
G75*
G02*
X76149999Y-57700000I249999J0D01*
G01*
G37*
%TD*%
%TO.C,R5*%
G36*
G01*
X48700000Y-59425001D02*
X48700000Y-58174999D01*
G75*
G02*
X48949999Y-57925000I249999J0D01*
G01*
X49750001Y-57925000D01*
G75*
G02*
X50000000Y-58174999I0J-249999D01*
G01*
X50000000Y-59425001D01*
G75*
G02*
X49750001Y-59675000I-249999J0D01*
G01*
X48949999Y-59675000D01*
G75*
G02*
X48700000Y-59425001I0J249999D01*
G01*
G37*
G36*
G01*
X45600000Y-59425001D02*
X45600000Y-58174999D01*
G75*
G02*
X45849999Y-57925000I249999J0D01*
G01*
X46650001Y-57925000D01*
G75*
G02*
X46900000Y-58174999I0J-249999D01*
G01*
X46900000Y-59425001D01*
G75*
G02*
X46650001Y-59675000I-249999J0D01*
G01*
X45849999Y-59675000D01*
G75*
G02*
X45600000Y-59425001I0J249999D01*
G01*
G37*
%TD*%
%TO.C,R6*%
G36*
G01*
X73349999Y-57700000D02*
X74250001Y-57700000D01*
G75*
G02*
X74500000Y-57949999I0J-249999D01*
G01*
X74500000Y-58650001D01*
G75*
G02*
X74250001Y-58900000I-249999J0D01*
G01*
X73349999Y-58900000D01*
G75*
G02*
X73100000Y-58650001I0J249999D01*
G01*
X73100000Y-57949999D01*
G75*
G02*
X73349999Y-57700000I249999J0D01*
G01*
G37*
G36*
G01*
X73349999Y-55700000D02*
X74250001Y-55700000D01*
G75*
G02*
X74500000Y-55949999I0J-249999D01*
G01*
X74500000Y-56650001D01*
G75*
G02*
X74250001Y-56900000I-249999J0D01*
G01*
X73349999Y-56900000D01*
G75*
G02*
X73100000Y-56650001I0J249999D01*
G01*
X73100000Y-55949999D01*
G75*
G02*
X73349999Y-55700000I249999J0D01*
G01*
G37*
%TD*%
%TO.C,R7*%
G36*
G01*
X50050000Y-66725001D02*
X50050000Y-65474999D01*
G75*
G02*
X50299999Y-65225000I249999J0D01*
G01*
X51100001Y-65225000D01*
G75*
G02*
X51350000Y-65474999I0J-249999D01*
G01*
X51350000Y-66725001D01*
G75*
G02*
X51100001Y-66975000I-249999J0D01*
G01*
X50299999Y-66975000D01*
G75*
G02*
X50050000Y-66725001I0J249999D01*
G01*
G37*
G36*
G01*
X46950000Y-66725001D02*
X46950000Y-65474999D01*
G75*
G02*
X47199999Y-65225000I249999J0D01*
G01*
X48000001Y-65225000D01*
G75*
G02*
X48250000Y-65474999I0J-249999D01*
G01*
X48250000Y-66725001D01*
G75*
G02*
X48000001Y-66975000I-249999J0D01*
G01*
X47199999Y-66975000D01*
G75*
G02*
X46950000Y-66725001I0J249999D01*
G01*
G37*
%TD*%
%TO.C,R8*%
G36*
G01*
X91125001Y-39500000D02*
X89874999Y-39500000D01*
G75*
G02*
X89625000Y-39250001I0J249999D01*
G01*
X89625000Y-38449999D01*
G75*
G02*
X89874999Y-38200000I249999J0D01*
G01*
X91125001Y-38200000D01*
G75*
G02*
X91375000Y-38449999I0J-249999D01*
G01*
X91375000Y-39250001D01*
G75*
G02*
X91125001Y-39500000I-249999J0D01*
G01*
G37*
G36*
G01*
X91125001Y-36400000D02*
X89874999Y-36400000D01*
G75*
G02*
X89625000Y-36150001I0J249999D01*
G01*
X89625000Y-35349999D01*
G75*
G02*
X89874999Y-35100000I249999J0D01*
G01*
X91125001Y-35100000D01*
G75*
G02*
X91375000Y-35349999I0J-249999D01*
G01*
X91375000Y-36150001D01*
G75*
G02*
X91125001Y-36400000I-249999J0D01*
G01*
G37*
%TD*%
%TO.C,R9*%
G36*
G01*
X91125001Y-46350000D02*
X89874999Y-46350000D01*
G75*
G02*
X89625000Y-46100001I0J249999D01*
G01*
X89625000Y-45299999D01*
G75*
G02*
X89874999Y-45050000I249999J0D01*
G01*
X91125001Y-45050000D01*
G75*
G02*
X91375000Y-45299999I0J-249999D01*
G01*
X91375000Y-46100001D01*
G75*
G02*
X91125001Y-46350000I-249999J0D01*
G01*
G37*
G36*
G01*
X91125001Y-43250000D02*
X89874999Y-43250000D01*
G75*
G02*
X89625000Y-43000001I0J249999D01*
G01*
X89625000Y-42199999D01*
G75*
G02*
X89874999Y-41950000I249999J0D01*
G01*
X91125001Y-41950000D01*
G75*
G02*
X91375000Y-42199999I0J-249999D01*
G01*
X91375000Y-43000001D01*
G75*
G02*
X91125001Y-43250000I-249999J0D01*
G01*
G37*
%TD*%
%TO.C,R10*%
G36*
G01*
X83962500Y-29487500D02*
X84437500Y-29487500D01*
G75*
G02*
X84675000Y-29725000I0J-237500D01*
G01*
X84675000Y-30225000D01*
G75*
G02*
X84437500Y-30462500I-237500J0D01*
G01*
X83962500Y-30462500D01*
G75*
G02*
X83725000Y-30225000I0J237500D01*
G01*
X83725000Y-29725000D01*
G75*
G02*
X83962500Y-29487500I237500J0D01*
G01*
G37*
G36*
G01*
X83962500Y-31312500D02*
X84437500Y-31312500D01*
G75*
G02*
X84675000Y-31550000I0J-237500D01*
G01*
X84675000Y-32050000D01*
G75*
G02*
X84437500Y-32287500I-237500J0D01*
G01*
X83962500Y-32287500D01*
G75*
G02*
X83725000Y-32050000I0J237500D01*
G01*
X83725000Y-31550000D01*
G75*
G02*
X83962500Y-31312500I237500J0D01*
G01*
G37*
%TD*%
%TO.C,R11*%
G36*
G01*
X61587500Y-64462500D02*
X61587500Y-64937500D01*
G75*
G02*
X61350000Y-65175000I-237500J0D01*
G01*
X60850000Y-65175000D01*
G75*
G02*
X60612500Y-64937500I0J237500D01*
G01*
X60612500Y-64462500D01*
G75*
G02*
X60850000Y-64225000I237500J0D01*
G01*
X61350000Y-64225000D01*
G75*
G02*
X61587500Y-64462500I0J-237500D01*
G01*
G37*
G36*
G01*
X59762500Y-64462500D02*
X59762500Y-64937500D01*
G75*
G02*
X59525000Y-65175000I-237500J0D01*
G01*
X59025000Y-65175000D01*
G75*
G02*
X58787500Y-64937500I0J237500D01*
G01*
X58787500Y-64462500D01*
G75*
G02*
X59025000Y-64225000I237500J0D01*
G01*
X59525000Y-64225000D01*
G75*
G02*
X59762500Y-64462500I0J-237500D01*
G01*
G37*
%TD*%
%TO.C,R12*%
G36*
G01*
X89600000Y-50349999D02*
X89600000Y-51250001D01*
G75*
G02*
X89350001Y-51500000I-249999J0D01*
G01*
X88649999Y-51500000D01*
G75*
G02*
X88400000Y-51250001I0J249999D01*
G01*
X88400000Y-50349999D01*
G75*
G02*
X88649999Y-50100000I249999J0D01*
G01*
X89350001Y-50100000D01*
G75*
G02*
X89600000Y-50349999I0J-249999D01*
G01*
G37*
G36*
G01*
X87600000Y-50349999D02*
X87600000Y-51250001D01*
G75*
G02*
X87350001Y-51500000I-249999J0D01*
G01*
X86649999Y-51500000D01*
G75*
G02*
X86400000Y-51250001I0J249999D01*
G01*
X86400000Y-50349999D01*
G75*
G02*
X86649999Y-50100000I249999J0D01*
G01*
X87350001Y-50100000D01*
G75*
G02*
X87600000Y-50349999I0J-249999D01*
G01*
G37*
%TD*%
%TO.C,R13*%
G36*
G01*
X94725000Y-58625000D02*
X95275000Y-58625000D01*
G75*
G02*
X95475000Y-58825000I0J-200000D01*
G01*
X95475000Y-59225000D01*
G75*
G02*
X95275000Y-59425000I-200000J0D01*
G01*
X94725000Y-59425000D01*
G75*
G02*
X94525000Y-59225000I0J200000D01*
G01*
X94525000Y-58825000D01*
G75*
G02*
X94725000Y-58625000I200000J0D01*
G01*
G37*
G36*
G01*
X94725000Y-56975000D02*
X95275000Y-56975000D01*
G75*
G02*
X95475000Y-57175000I0J-200000D01*
G01*
X95475000Y-57575000D01*
G75*
G02*
X95275000Y-57775000I-200000J0D01*
G01*
X94725000Y-57775000D01*
G75*
G02*
X94525000Y-57575000I0J200000D01*
G01*
X94525000Y-57175000D01*
G75*
G02*
X94725000Y-56975000I200000J0D01*
G01*
G37*
%TD*%
%TO.C,R14*%
G36*
G01*
X95275000Y-52850000D02*
X94725000Y-52850000D01*
G75*
G02*
X94525000Y-52650000I0J200000D01*
G01*
X94525000Y-52250000D01*
G75*
G02*
X94725000Y-52050000I200000J0D01*
G01*
X95275000Y-52050000D01*
G75*
G02*
X95475000Y-52250000I0J-200000D01*
G01*
X95475000Y-52650000D01*
G75*
G02*
X95275000Y-52850000I-200000J0D01*
G01*
G37*
G36*
G01*
X95275000Y-51200000D02*
X94725000Y-51200000D01*
G75*
G02*
X94525000Y-51000000I0J200000D01*
G01*
X94525000Y-50600000D01*
G75*
G02*
X94725000Y-50400000I200000J0D01*
G01*
X95275000Y-50400000D01*
G75*
G02*
X95475000Y-50600000I0J-200000D01*
G01*
X95475000Y-51000000D01*
G75*
G02*
X95275000Y-51200000I-200000J0D01*
G01*
G37*
%TD*%
%TO.C,R15*%
G36*
G01*
X79700000Y-48237500D02*
X79700000Y-47762500D01*
G75*
G02*
X79937500Y-47525000I237500J0D01*
G01*
X80437500Y-47525000D01*
G75*
G02*
X80675000Y-47762500I0J-237500D01*
G01*
X80675000Y-48237500D01*
G75*
G02*
X80437500Y-48475000I-237500J0D01*
G01*
X79937500Y-48475000D01*
G75*
G02*
X79700000Y-48237500I0J237500D01*
G01*
G37*
G36*
G01*
X81525000Y-48237500D02*
X81525000Y-47762500D01*
G75*
G02*
X81762500Y-47525000I237500J0D01*
G01*
X82262500Y-47525000D01*
G75*
G02*
X82500000Y-47762500I0J-237500D01*
G01*
X82500000Y-48237500D01*
G75*
G02*
X82262500Y-48475000I-237500J0D01*
G01*
X81762500Y-48475000D01*
G75*
G02*
X81525000Y-48237500I0J237500D01*
G01*
G37*
%TD*%
D12*
%TO.C,U1*%
X66800000Y-50264000D03*
D13*
X65400000Y-43264000D03*
X65400000Y-44064000D03*
X65400000Y-44864000D03*
X65400000Y-45664000D03*
X65400000Y-46464000D03*
X65400000Y-47264000D03*
X65400000Y-48064000D03*
X65400000Y-48864000D03*
D12*
X67600000Y-50264000D03*
X68400000Y-50264000D03*
X69200000Y-50264000D03*
X70000000Y-50264000D03*
X70800000Y-50264000D03*
X71600000Y-50264000D03*
X72400000Y-50264000D03*
D13*
X73800000Y-48864000D03*
X73800000Y-48064000D03*
X73800000Y-47264000D03*
X73800000Y-46464000D03*
X73800000Y-45664000D03*
X73800000Y-44864000D03*
X73800000Y-44064000D03*
X73800000Y-43264000D03*
D12*
X72400000Y-41864000D03*
X71600000Y-41864000D03*
X70800000Y-41864000D03*
X70000000Y-41864000D03*
X69200000Y-41864000D03*
X68400000Y-41864000D03*
X67600000Y-41864000D03*
X66800000Y-41864000D03*
%TD*%
D14*
%TO.C,U2*%
X91150000Y-56805000D03*
X91150000Y-55535000D03*
X91150000Y-52995000D03*
X86250000Y-52995000D03*
X86250000Y-54265000D03*
X86250000Y-55535000D03*
X86250000Y-56805000D03*
X91150000Y-54265000D03*
%TD*%
D15*
%TO.C,U3*%
X47700000Y-55850000D03*
D16*
X47700000Y-49550000D03*
X45400000Y-49550000D03*
X50000000Y-49550000D03*
%TD*%
D17*
%TO.C,U4*%
X41784000Y-40424000D03*
X41784000Y-40924000D03*
X41784000Y-41424000D03*
X41784000Y-41924000D03*
X41784000Y-42424000D03*
X46184000Y-42424000D03*
X46184000Y-41924000D03*
X46184000Y-41424000D03*
X46184000Y-40924000D03*
X46184000Y-40424000D03*
%TD*%
D18*
%TO.C,Y1*%
X58900000Y-51700000D03*
X58900000Y-48000000D03*
%TD*%
M02*
