M48
; DRILL file {KiCad (5.1.9)-1} date 06/02/21 07:50:47
; FORMAT={-:-/ absolute / metric / decimal}
; #@! TF.CreationDate,2021-06-02T07:50:47+02:00
; #@! TF.GenerationSoftware,Kicad,Pcbnew,(5.1.9)-1
; #@! TF.FileFunction,Plated,1,2,PTH
FMAT,2
METRIC
T1C0.400
T2C0.600
T3C1.000
T4C1.016
T5C1.200
T6C1.520
T7C2.700
%
G90
G05
T1
X63.1Y-51.114
X64.1Y-51.114
X65.1Y-51.114
X65.7Y-42.2
X66.798Y-43.214
X66.912Y-44.207
X70.8Y-51.8
X72.4Y-45.7
X76.1Y-45.0
X76.8Y-41.7
X79.82Y-37.62
X84.6Y-50.7
X84.9Y-42.7
X87.9Y-37.1
X88.2Y-54.8
T2
X39.837Y-51.537
X40.2Y-41.7
X43.3Y-52.5
X45.4Y-47.7
X47.0Y-64.2
X47.9Y-45.8
X48.0Y-36.9
X48.0Y-43.2
X49.7Y-39.2
X50.9Y-42.1
X51.2Y-47.3
X51.45Y-49.55
X53.8Y-32.2
X54.7Y-49.2
X54.7Y-50.7
X59.3Y-61.7
X61.8Y-43.8
X63.5Y-42.7
X64.0Y-35.9
X66.9Y-46.364
X70.092Y-43.314
X72.236Y-48.064
X74.0Y-38.7
X78.3Y-45.3
X82.7Y-31.4
X85.4Y-46.4
X85.8Y-36.0
X89.0Y-49.3
X90.5Y-40.3
X90.5Y-47.1
X91.2Y-57.9
X92.3Y-49.4
X93.4Y-51.0
T3
X38.0Y-54.8
X38.0Y-62.4
X50.04Y-26.8
X50.04Y-69.2
X52.58Y-26.8
X52.58Y-69.2
X55.12Y-26.8
X55.12Y-69.2
X57.66Y-26.8
X57.66Y-69.2
X60.2Y-26.8
X60.2Y-69.2
X62.74Y-26.8
X62.74Y-69.2
X64.844Y-33.688
X65.28Y-26.8
X65.28Y-69.2
X67.384Y-33.688
X67.82Y-26.8
X67.82Y-69.2
X69.924Y-33.688
X70.36Y-26.8
X70.36Y-69.2
X72.464Y-33.688
X72.9Y-26.8
X72.9Y-69.2
X75.44Y-26.8
X75.44Y-69.2
X76.8Y-51.0
X76.8Y-53.54
X77.98Y-26.8
X77.98Y-69.2
X79.34Y-51.0
X79.34Y-53.54
X80.52Y-26.8
X80.52Y-69.2
X81.88Y-51.0
X81.88Y-53.54
X83.06Y-26.8
X83.06Y-69.2
X85.6Y-26.8
X85.6Y-69.2
T4
X53.249Y-38.439
X53.249Y-42.961
X59.751Y-38.439
X59.751Y-42.961
X70.639Y-60.249
X70.639Y-66.751
X75.161Y-60.249
X75.161Y-66.751
X78.139Y-60.249
X78.139Y-66.751
X82.661Y-60.249
X82.661Y-66.751
T5
X36.01Y-41.77
X36.01Y-44.5
X38.01Y-41.77
X38.01Y-44.5
T6
X99.9Y-32.82
X99.9Y-37.9
X99.9Y-44.1
X99.9Y-49.18
X99.9Y-55.22
X99.9Y-60.3
T7
X33.3Y-37.0
X33.3Y-49.0
T0
M30
