%TF.GenerationSoftware,KiCad,Pcbnew,(5.1.9)-1*%
%TF.CreationDate,2021-06-02T07:50:44+02:00*%
%TF.ProjectId,MyReflowController,4d795265-666c-46f7-9743-6f6e74726f6c,rev?*%
%TF.SameCoordinates,Original*%
%TF.FileFunction,Copper,L2,Bot*%
%TF.FilePolarity,Positive*%
%FSLAX46Y46*%
G04 Gerber Fmt 4.6, Leading zero omitted, Abs format (unit mm)*
G04 Created by KiCad (PCBNEW (5.1.9)-1) date 2021-06-02 07:50:44*
%MOMM*%
%LPD*%
G01*
G04 APERTURE LIST*
%TA.AperFunction,ComponentPad*%
%ADD10R,2.000000X2.000000*%
%TD*%
%TA.AperFunction,ComponentPad*%
%ADD11C,2.000000*%
%TD*%
%TA.AperFunction,ComponentPad*%
%ADD12R,1.700000X1.700000*%
%TD*%
%TA.AperFunction,ComponentPad*%
%ADD13O,1.700000X1.700000*%
%TD*%
%TA.AperFunction,ComponentPad*%
%ADD14R,3.000000X3.000000*%
%TD*%
%TA.AperFunction,ComponentPad*%
%ADD15C,3.000000*%
%TD*%
%TA.AperFunction,ComponentPad*%
%ADD16C,4.000000*%
%TD*%
%TA.AperFunction,ComponentPad*%
%ADD17C,1.700000*%
%TD*%
%TA.AperFunction,ComponentPad*%
%ADD18C,1.879600*%
%TD*%
%TA.AperFunction,ViaPad*%
%ADD19C,1.200000*%
%TD*%
%TA.AperFunction,ViaPad*%
%ADD20C,1.000000*%
%TD*%
%TA.AperFunction,ViaPad*%
%ADD21C,0.800000*%
%TD*%
%TA.AperFunction,Conductor*%
%ADD22C,0.500000*%
%TD*%
%TA.AperFunction,Conductor*%
%ADD23C,0.400000*%
%TD*%
%TA.AperFunction,Conductor*%
%ADD24C,0.300000*%
%TD*%
%TA.AperFunction,Conductor*%
%ADD25C,0.750000*%
%TD*%
%TA.AperFunction,Conductor*%
%ADD26C,0.254000*%
%TD*%
%TA.AperFunction,Conductor*%
%ADD27C,0.100000*%
%TD*%
G04 APERTURE END LIST*
D10*
%TO.P,BZ1,1*%
%TO.N,Net-(BZ1-Pad1)*%
X38000000Y-54800000D03*
D11*
%TO.P,BZ1,2*%
%TO.N,Net-(BZ1-Pad2)*%
X38000000Y-62400000D03*
%TD*%
D12*
%TO.P,J5,1*%
%TO.N,Masse*%
X64844000Y-33688000D03*
D13*
%TO.P,J5,2*%
%TO.N,3V3*%
X67384000Y-33688000D03*
%TO.P,J5,3*%
%TO.N,SCL*%
X69924000Y-33688000D03*
%TO.P,J5,4*%
%TO.N,SDA*%
X72464000Y-33688000D03*
%TD*%
D14*
%TO.P,J1,1*%
%TO.N,+5V*%
X99900000Y-32820000D03*
D15*
%TO.P,J1,2*%
%TO.N,Net-(J1-Pad2)*%
X99900000Y-37900000D03*
%TD*%
%TO.P,J2,2*%
%TO.N,Net-(J2-Pad2)*%
X99900000Y-49180000D03*
D14*
%TO.P,J2,1*%
%TO.N,+5V*%
X99900000Y-44100000D03*
%TD*%
D12*
%TO.P,J3,1*%
%TO.N,D12*%
X76800000Y-51000000D03*
D13*
%TO.P,J3,2*%
%TO.N,3V3*%
X76800000Y-53540000D03*
%TO.P,J3,3*%
%TO.N,D13*%
X79340000Y-51000000D03*
%TO.P,J3,4*%
%TO.N,D11*%
X79340000Y-53540000D03*
%TO.P,J3,5*%
%TO.N,RST*%
X81880000Y-51000000D03*
%TO.P,J3,6*%
%TO.N,Masse*%
X81880000Y-53540000D03*
%TD*%
D14*
%TO.P,J4,1*%
%TO.N,TC+*%
X99900000Y-55220000D03*
D15*
%TO.P,J4,2*%
%TO.N,TC-*%
X99900000Y-60300000D03*
%TD*%
D16*
%TO.P,J6,6*%
%TO.N,Net-(J6-Pad6)*%
X33300000Y-37000000D03*
%TO.P,J6,4*%
%TO.N,Net-(J6-Pad4)*%
X33300000Y-49000000D03*
D17*
%TO.P,J6,2*%
%TO.N,Net-(J6-Pad2)*%
X38010000Y-41770000D03*
%TO.P,J6,1*%
%TO.N,VUSB*%
X38010000Y-44500000D03*
%TO.P,J6,3*%
%TO.N,Net-(J6-Pad3)*%
X36010000Y-41770000D03*
%TO.P,J6,5*%
%TO.N,Masse*%
X36010000Y-44500000D03*
%TD*%
D12*
%TO.P,J7,1*%
%TO.N,D12*%
X85600000Y-69200000D03*
D13*
%TO.P,J7,2*%
%TO.N,D11*%
X83060000Y-69200000D03*
%TO.P,J7,3*%
%TO.N,D10*%
X80520000Y-69200000D03*
%TO.P,J7,4*%
%TO.N,D9*%
X77980000Y-69200000D03*
%TO.P,J7,5*%
%TO.N,D8*%
X75440000Y-69200000D03*
%TO.P,J7,6*%
%TO.N,D7*%
X72900000Y-69200000D03*
%TO.P,J7,7*%
%TO.N,D6*%
X70360000Y-69200000D03*
%TO.P,J7,8*%
%TO.N,D5*%
X67820000Y-69200000D03*
%TO.P,J7,9*%
%TO.N,D4*%
X65280000Y-69200000D03*
%TO.P,J7,10*%
%TO.N,D3*%
X62740000Y-69200000D03*
%TO.P,J7,11*%
%TO.N,D2*%
X60200000Y-69200000D03*
%TO.P,J7,12*%
%TO.N,Masse*%
X57660000Y-69200000D03*
%TO.P,J7,13*%
%TO.N,Net-(J7-Pad13)*%
X55120000Y-69200000D03*
%TO.P,J7,14*%
%TO.N,Net-(J7-Pad14)*%
X52580000Y-69200000D03*
%TO.P,J7,15*%
%TO.N,Net-(J7-Pad15)*%
X50040000Y-69200000D03*
%TD*%
%TO.P,J8,15*%
%TO.N,D13*%
X85600000Y-26800000D03*
%TO.P,J8,14*%
%TO.N,3V3*%
X83060000Y-26800000D03*
%TO.P,J8,13*%
%TO.N,AREF*%
X80520000Y-26800000D03*
%TO.P,J8,12*%
%TO.N,A0*%
X77980000Y-26800000D03*
%TO.P,J8,11*%
%TO.N,A1*%
X75440000Y-26800000D03*
%TO.P,J8,10*%
%TO.N,A2*%
X72900000Y-26800000D03*
%TO.P,J8,9*%
%TO.N,A3*%
X70360000Y-26800000D03*
%TO.P,J8,8*%
%TO.N,SDA*%
X67820000Y-26800000D03*
%TO.P,J8,7*%
%TO.N,SCL*%
X65280000Y-26800000D03*
%TO.P,J8,6*%
%TO.N,Net-(J8-Pad6)*%
X62740000Y-26800000D03*
%TO.P,J8,5*%
%TO.N,Net-(J8-Pad5)*%
X60200000Y-26800000D03*
%TO.P,J8,4*%
%TO.N,3V3*%
X57660000Y-26800000D03*
%TO.P,J8,3*%
%TO.N,RST*%
X55120000Y-26800000D03*
%TO.P,J8,2*%
%TO.N,Masse*%
X52580000Y-26800000D03*
D12*
%TO.P,J8,1*%
%TO.N,VUSB*%
X50040000Y-26800000D03*
%TD*%
D18*
%TO.P,SW1,1*%
%TO.N,Masse*%
X82660600Y-60248800D03*
%TO.P,SW1,2*%
X82660600Y-66751200D03*
%TO.P,SW1,3*%
%TO.N,D9*%
X78139400Y-60248800D03*
%TO.P,SW1,4*%
X78139400Y-66751200D03*
%TD*%
%TO.P,SW2,1*%
%TO.N,Masse*%
X59751200Y-42960600D03*
%TO.P,SW2,2*%
X53248800Y-42960600D03*
%TO.P,SW2,3*%
%TO.N,RST*%
X59751200Y-38439400D03*
%TO.P,SW2,4*%
X53248800Y-38439400D03*
%TD*%
%TO.P,SW3,4*%
%TO.N,D8*%
X75160600Y-60248800D03*
%TO.P,SW3,3*%
X75160600Y-66751200D03*
%TO.P,SW3,2*%
%TO.N,Masse*%
X70639400Y-60248800D03*
%TO.P,SW3,1*%
X70639400Y-66751200D03*
%TD*%
D19*
%TO.N,Masse*%
X40200000Y-41700000D03*
D20*
X92300000Y-49400000D03*
X90500000Y-47100000D03*
X93400000Y-51000000D03*
X91200000Y-57900000D03*
X90500000Y-40300000D03*
X85800000Y-36000000D03*
X64000000Y-35900000D03*
X85400000Y-46400000D03*
X78300000Y-45300000D03*
X51200000Y-47300000D03*
X51450000Y-49550000D03*
X54700000Y-49200000D03*
X54700000Y-50700000D03*
X43300000Y-52500000D03*
X39837500Y-51537500D03*
X49700000Y-39200000D03*
X50900000Y-42100000D03*
X59300000Y-61700000D03*
X47000000Y-64200000D03*
X63500000Y-42700000D03*
X66900000Y-46364000D03*
D21*
X72400000Y-45700000D03*
D20*
%TO.N,3V3*%
X74000000Y-38700000D03*
X47900000Y-45800000D03*
X89000000Y-49300000D03*
X53800000Y-32200000D03*
X72236000Y-48064000D03*
X61800000Y-43800000D03*
X82700000Y-31400000D03*
D21*
%TO.N,AREF*%
X76100000Y-45000000D03*
X76800000Y-41700000D03*
D20*
%TO.N,+5V*%
X45400000Y-47700000D03*
%TO.N,VUSB*%
X48000000Y-36900000D03*
X48000000Y-43200000D03*
%TO.N,RST*%
X70092184Y-43314002D03*
D21*
%TO.N,D13*%
X84600000Y-50700000D03*
X87900000Y-37100000D03*
%TO.N,D10*%
X88200000Y-54800000D03*
X70800000Y-51800000D03*
%TO.N,D4*%
X66912357Y-44207456D03*
X65100006Y-51114000D03*
%TO.N,D3*%
X66798107Y-43214002D03*
X64100003Y-51114000D03*
%TO.N,D2*%
X65700000Y-42200000D03*
X63100000Y-51114000D03*
%TO.N,A0*%
X84900000Y-42700000D03*
X79819669Y-37619669D03*
%TD*%
D22*
%TO.N,Masse*%
X57660000Y-69200000D02*
X57660000Y-69160000D01*
%TO.N,3V3*%
X74000000Y-38700000D02*
X74000000Y-37600000D01*
X74000000Y-37600000D02*
X73700000Y-37300000D01*
X73700000Y-37300000D02*
X68800000Y-37300000D01*
X67384000Y-35884000D02*
X67384000Y-33688000D01*
X68800000Y-37300000D02*
X67384000Y-35884000D01*
D23*
X86010001Y-52289999D02*
X89000000Y-49300000D01*
X78050001Y-52289999D02*
X86010001Y-52289999D01*
D22*
X53800000Y-32506002D02*
X53800000Y-32200000D01*
X48700010Y-37605992D02*
X53800000Y-32506002D01*
X48700010Y-42494008D02*
X48700010Y-37605992D01*
X48950001Y-42743999D02*
X48700010Y-42494008D01*
X48950001Y-44749999D02*
X48950001Y-42743999D01*
X47900000Y-45800000D02*
X48950001Y-44749999D01*
D23*
X72236000Y-48856002D02*
X72236000Y-48064000D01*
X75669997Y-52289999D02*
X72236000Y-48856002D01*
X76800000Y-52300000D02*
X76810001Y-52289999D01*
X76800000Y-53540000D02*
X76800000Y-52300000D01*
X76810001Y-52289999D02*
X75669997Y-52289999D01*
X78050001Y-52289999D02*
X76810001Y-52289999D01*
X61800000Y-43067998D02*
X61800000Y-43800000D01*
X67384000Y-37483998D02*
X61800000Y-43067998D01*
X67384000Y-33688000D02*
X67384000Y-37483998D01*
D22*
X80041998Y-31400000D02*
X82700000Y-31400000D01*
X74000000Y-37441998D02*
X80041998Y-31400000D01*
X74000000Y-37600000D02*
X74000000Y-37441998D01*
D24*
%TO.N,AREF*%
X76100000Y-42400000D02*
X76800000Y-41700000D01*
X76100000Y-45000000D02*
X76100000Y-42400000D01*
D25*
%TO.N,+5V*%
X96700000Y-36020000D02*
X99900000Y-32820000D01*
X96700000Y-40900000D02*
X96700000Y-36020000D01*
X99900000Y-44100000D02*
X96700000Y-40900000D01*
X86920000Y-32820000D02*
X99900000Y-32820000D01*
X84300000Y-30200000D02*
X86920000Y-32820000D01*
X48300000Y-30200000D02*
X84300000Y-30200000D01*
X45400000Y-33100000D02*
X48300000Y-30200000D01*
X45400000Y-47700000D02*
X45400000Y-33100000D01*
D22*
%TO.N,VUSB*%
X48000000Y-43200000D02*
X48000000Y-36900000D01*
D24*
%TO.N,RST*%
X73860003Y-46050001D02*
X71124004Y-43314002D01*
X71124004Y-43314002D02*
X70092184Y-43314002D01*
X76930001Y-46050001D02*
X73860003Y-46050001D01*
X81880000Y-51000000D02*
X76930001Y-46050001D01*
%TO.N,D13*%
X84600000Y-50600000D02*
X84600000Y-50700000D01*
X87900000Y-47300000D02*
X84600000Y-50600000D01*
X87900000Y-37100000D02*
X87900000Y-47300000D01*
%TO.N,D10*%
X80520000Y-66782894D02*
X80520000Y-69200000D01*
X88200000Y-59102894D02*
X80520000Y-66782894D01*
X88200000Y-54800000D02*
X88200000Y-59102894D01*
X88200000Y-54800000D02*
X73700000Y-54800000D01*
X70800000Y-51900000D02*
X70800000Y-51800000D01*
X73700000Y-54800000D02*
X70800000Y-51900000D01*
%TO.N,D4*%
X65100006Y-46019807D02*
X65100006Y-51114000D01*
X66912357Y-44207456D02*
X65100006Y-46019807D01*
%TO.N,D3*%
X64100003Y-45912106D02*
X64100003Y-51114000D01*
X66798107Y-43214002D02*
X64100003Y-45912106D01*
%TO.N,D2*%
X63100000Y-44800000D02*
X63100000Y-51114000D01*
X65700000Y-42200000D02*
X63100000Y-44800000D01*
%TO.N,A0*%
X84900000Y-42700000D02*
X83500000Y-41300000D01*
X83500000Y-41300000D02*
X79819669Y-37619669D01*
%TD*%
D26*
%TO.N,Masse*%
X48600498Y-25705820D02*
X48564188Y-25825518D01*
X48551928Y-25950000D01*
X48551928Y-27650000D01*
X48564188Y-27774482D01*
X48600498Y-27894180D01*
X48659463Y-28004494D01*
X48738815Y-28101185D01*
X48835506Y-28180537D01*
X48945820Y-28239502D01*
X49065518Y-28275812D01*
X49190000Y-28288072D01*
X50890000Y-28288072D01*
X51014482Y-28275812D01*
X51134180Y-28239502D01*
X51244494Y-28180537D01*
X51341185Y-28101185D01*
X51420537Y-28004494D01*
X51479502Y-27894180D01*
X51503210Y-27816024D01*
X51673181Y-27975981D01*
X51920028Y-28130296D01*
X52106011Y-28207323D01*
X52332000Y-28102857D01*
X52332000Y-27048000D01*
X52312000Y-27048000D01*
X52312000Y-26552000D01*
X52332000Y-26552000D01*
X52332000Y-26532000D01*
X52828000Y-26532000D01*
X52828000Y-26552000D01*
X52848000Y-26552000D01*
X52848000Y-27048000D01*
X52828000Y-27048000D01*
X52828000Y-28102857D01*
X53053989Y-28207323D01*
X53239972Y-28130296D01*
X53486819Y-27975981D01*
X53698817Y-27776473D01*
X53847307Y-27568210D01*
X53966525Y-27746632D01*
X54173368Y-27953475D01*
X54416589Y-28115990D01*
X54686842Y-28227932D01*
X54973740Y-28285000D01*
X55266260Y-28285000D01*
X55553158Y-28227932D01*
X55823411Y-28115990D01*
X56066632Y-27953475D01*
X56273475Y-27746632D01*
X56390000Y-27572240D01*
X56506525Y-27746632D01*
X56713368Y-27953475D01*
X56956589Y-28115990D01*
X57226842Y-28227932D01*
X57513740Y-28285000D01*
X57806260Y-28285000D01*
X58093158Y-28227932D01*
X58363411Y-28115990D01*
X58606632Y-27953475D01*
X58813475Y-27746632D01*
X58930000Y-27572240D01*
X59046525Y-27746632D01*
X59253368Y-27953475D01*
X59496589Y-28115990D01*
X59766842Y-28227932D01*
X60053740Y-28285000D01*
X60346260Y-28285000D01*
X60633158Y-28227932D01*
X60903411Y-28115990D01*
X61146632Y-27953475D01*
X61353475Y-27746632D01*
X61470000Y-27572240D01*
X61586525Y-27746632D01*
X61793368Y-27953475D01*
X62036589Y-28115990D01*
X62306842Y-28227932D01*
X62593740Y-28285000D01*
X62886260Y-28285000D01*
X63173158Y-28227932D01*
X63443411Y-28115990D01*
X63686632Y-27953475D01*
X63893475Y-27746632D01*
X64010000Y-27572240D01*
X64126525Y-27746632D01*
X64333368Y-27953475D01*
X64576589Y-28115990D01*
X64846842Y-28227932D01*
X65133740Y-28285000D01*
X65426260Y-28285000D01*
X65713158Y-28227932D01*
X65983411Y-28115990D01*
X66226632Y-27953475D01*
X66433475Y-27746632D01*
X66550000Y-27572240D01*
X66666525Y-27746632D01*
X66873368Y-27953475D01*
X67116589Y-28115990D01*
X67386842Y-28227932D01*
X67673740Y-28285000D01*
X67966260Y-28285000D01*
X68253158Y-28227932D01*
X68523411Y-28115990D01*
X68766632Y-27953475D01*
X68973475Y-27746632D01*
X69090000Y-27572240D01*
X69206525Y-27746632D01*
X69413368Y-27953475D01*
X69656589Y-28115990D01*
X69926842Y-28227932D01*
X70213740Y-28285000D01*
X70506260Y-28285000D01*
X70793158Y-28227932D01*
X71063411Y-28115990D01*
X71306632Y-27953475D01*
X71513475Y-27746632D01*
X71630000Y-27572240D01*
X71746525Y-27746632D01*
X71953368Y-27953475D01*
X72196589Y-28115990D01*
X72466842Y-28227932D01*
X72753740Y-28285000D01*
X73046260Y-28285000D01*
X73333158Y-28227932D01*
X73603411Y-28115990D01*
X73846632Y-27953475D01*
X74053475Y-27746632D01*
X74170000Y-27572240D01*
X74286525Y-27746632D01*
X74493368Y-27953475D01*
X74736589Y-28115990D01*
X75006842Y-28227932D01*
X75293740Y-28285000D01*
X75586260Y-28285000D01*
X75873158Y-28227932D01*
X76143411Y-28115990D01*
X76386632Y-27953475D01*
X76593475Y-27746632D01*
X76710000Y-27572240D01*
X76826525Y-27746632D01*
X77033368Y-27953475D01*
X77276589Y-28115990D01*
X77546842Y-28227932D01*
X77833740Y-28285000D01*
X78126260Y-28285000D01*
X78413158Y-28227932D01*
X78683411Y-28115990D01*
X78926632Y-27953475D01*
X79133475Y-27746632D01*
X79250000Y-27572240D01*
X79366525Y-27746632D01*
X79573368Y-27953475D01*
X79816589Y-28115990D01*
X80086842Y-28227932D01*
X80373740Y-28285000D01*
X80666260Y-28285000D01*
X80953158Y-28227932D01*
X81223411Y-28115990D01*
X81466632Y-27953475D01*
X81673475Y-27746632D01*
X81790000Y-27572240D01*
X81906525Y-27746632D01*
X82113368Y-27953475D01*
X82356589Y-28115990D01*
X82626842Y-28227932D01*
X82913740Y-28285000D01*
X83206260Y-28285000D01*
X83493158Y-28227932D01*
X83763411Y-28115990D01*
X84006632Y-27953475D01*
X84213475Y-27746632D01*
X84330000Y-27572240D01*
X84446525Y-27746632D01*
X84653368Y-27953475D01*
X84896589Y-28115990D01*
X85166842Y-28227932D01*
X85453740Y-28285000D01*
X85746260Y-28285000D01*
X86033158Y-28227932D01*
X86149185Y-28179872D01*
X88965000Y-28179872D01*
X88965000Y-28620128D01*
X89050890Y-29051925D01*
X89219369Y-29458669D01*
X89463962Y-29824729D01*
X89775271Y-30136038D01*
X90141331Y-30380631D01*
X90548075Y-30549110D01*
X90979872Y-30635000D01*
X91420128Y-30635000D01*
X91851925Y-30549110D01*
X92258669Y-30380631D01*
X92624729Y-30136038D01*
X92936038Y-29824729D01*
X93180631Y-29458669D01*
X93349110Y-29051925D01*
X93435000Y-28620128D01*
X93435000Y-28179872D01*
X93374733Y-27876890D01*
X95750048Y-27876890D01*
X95750048Y-28123110D01*
X95798083Y-28364598D01*
X95892307Y-28592074D01*
X96029099Y-28796798D01*
X96203202Y-28970901D01*
X96407926Y-29107693D01*
X96635402Y-29201917D01*
X96876890Y-29249952D01*
X97123110Y-29249952D01*
X97364598Y-29201917D01*
X97592074Y-29107693D01*
X97796798Y-28970901D01*
X97970901Y-28796798D01*
X98107693Y-28592074D01*
X98201917Y-28364598D01*
X98249952Y-28123110D01*
X98249952Y-27876890D01*
X98201917Y-27635402D01*
X98107693Y-27407926D01*
X97970901Y-27203202D01*
X97796798Y-27029099D01*
X97592074Y-26892307D01*
X97364598Y-26798083D01*
X97123110Y-26750048D01*
X96876890Y-26750048D01*
X96635402Y-26798083D01*
X96407926Y-26892307D01*
X96203202Y-27029099D01*
X96029099Y-27203202D01*
X95892307Y-27407926D01*
X95798083Y-27635402D01*
X95750048Y-27876890D01*
X93374733Y-27876890D01*
X93349110Y-27748075D01*
X93180631Y-27341331D01*
X92936038Y-26975271D01*
X92624729Y-26663962D01*
X92258669Y-26419369D01*
X91851925Y-26250890D01*
X91420128Y-26165000D01*
X90979872Y-26165000D01*
X90548075Y-26250890D01*
X90141331Y-26419369D01*
X89775271Y-26663962D01*
X89463962Y-26975271D01*
X89219369Y-27341331D01*
X89050890Y-27748075D01*
X88965000Y-28179872D01*
X86149185Y-28179872D01*
X86303411Y-28115990D01*
X86546632Y-27953475D01*
X86753475Y-27746632D01*
X86915990Y-27503411D01*
X87027932Y-27233158D01*
X87085000Y-26946260D01*
X87085000Y-26653740D01*
X87027932Y-26366842D01*
X86915990Y-26096589D01*
X86753475Y-25853368D01*
X86560107Y-25660000D01*
X100567722Y-25660000D01*
X101131586Y-25715287D01*
X101642927Y-25869670D01*
X102114540Y-26120431D01*
X102528467Y-26458022D01*
X102868940Y-26869583D01*
X103122987Y-27339433D01*
X103280937Y-27849688D01*
X103340001Y-28411647D01*
X103340000Y-67567722D01*
X103284713Y-68131586D01*
X103130330Y-68642927D01*
X102879569Y-69114540D01*
X102541976Y-69528470D01*
X102130418Y-69868940D01*
X101660567Y-70122987D01*
X101150314Y-70280937D01*
X100588362Y-70340000D01*
X87015010Y-70340000D01*
X87039502Y-70294180D01*
X87075812Y-70174482D01*
X87088072Y-70050000D01*
X87088072Y-68350000D01*
X87075812Y-68225518D01*
X87039502Y-68105820D01*
X86980537Y-67995506D01*
X86901185Y-67898815D01*
X86804494Y-67819463D01*
X86694180Y-67760498D01*
X86574482Y-67724188D01*
X86450000Y-67711928D01*
X84750000Y-67711928D01*
X84625518Y-67724188D01*
X84505820Y-67760498D01*
X84395506Y-67819463D01*
X84298815Y-67898815D01*
X84219463Y-67995506D01*
X84160498Y-68105820D01*
X84138487Y-68178380D01*
X84006632Y-68046525D01*
X83763411Y-67884010D01*
X83493158Y-67772068D01*
X83290414Y-67731739D01*
X82660600Y-67101925D01*
X81844667Y-67917858D01*
X81942607Y-68161356D01*
X81982814Y-68177079D01*
X81906525Y-68253368D01*
X81790000Y-68427760D01*
X81673475Y-68253368D01*
X81466632Y-68046525D01*
X81305000Y-67938526D01*
X81305000Y-67491137D01*
X81493942Y-67567133D01*
X82309875Y-66751200D01*
X83011325Y-66751200D01*
X83827258Y-67567133D01*
X84070756Y-67469193D01*
X84105685Y-67379872D01*
X88965000Y-67379872D01*
X88965000Y-67820128D01*
X89050890Y-68251925D01*
X89219369Y-68658669D01*
X89463962Y-69024729D01*
X89775271Y-69336038D01*
X90141331Y-69580631D01*
X90548075Y-69749110D01*
X90979872Y-69835000D01*
X91420128Y-69835000D01*
X91851925Y-69749110D01*
X92258669Y-69580631D01*
X92624729Y-69336038D01*
X92936038Y-69024729D01*
X93180631Y-68658669D01*
X93349110Y-68251925D01*
X93383926Y-68076890D01*
X95750048Y-68076890D01*
X95750048Y-68323110D01*
X95798083Y-68564598D01*
X95892307Y-68792074D01*
X96029099Y-68996798D01*
X96203202Y-69170901D01*
X96407926Y-69307693D01*
X96635402Y-69401917D01*
X96876890Y-69449952D01*
X97123110Y-69449952D01*
X97364598Y-69401917D01*
X97592074Y-69307693D01*
X97796798Y-69170901D01*
X97970901Y-68996798D01*
X98107693Y-68792074D01*
X98201917Y-68564598D01*
X98249952Y-68323110D01*
X98249952Y-68076890D01*
X98201917Y-67835402D01*
X98107693Y-67607926D01*
X97970901Y-67403202D01*
X97796798Y-67229099D01*
X97592074Y-67092307D01*
X97364598Y-66998083D01*
X97123110Y-66950048D01*
X96876890Y-66950048D01*
X96635402Y-66998083D01*
X96407926Y-67092307D01*
X96203202Y-67229099D01*
X96029099Y-67403202D01*
X95892307Y-67607926D01*
X95798083Y-67835402D01*
X95750048Y-68076890D01*
X93383926Y-68076890D01*
X93435000Y-67820128D01*
X93435000Y-67379872D01*
X93349110Y-66948075D01*
X93180631Y-66541331D01*
X92936038Y-66175271D01*
X92624729Y-65863962D01*
X92258669Y-65619369D01*
X91851925Y-65450890D01*
X91420128Y-65365000D01*
X90979872Y-65365000D01*
X90548075Y-65450890D01*
X90141331Y-65619369D01*
X89775271Y-65863962D01*
X89463962Y-66175271D01*
X89219369Y-66541331D01*
X89050890Y-66948075D01*
X88965000Y-67379872D01*
X84105685Y-67379872D01*
X84183733Y-67180289D01*
X84238178Y-66874896D01*
X84231996Y-66564749D01*
X84165427Y-66261767D01*
X84070756Y-66033207D01*
X83827258Y-65935267D01*
X83011325Y-66751200D01*
X82309875Y-66751200D01*
X82295733Y-66737058D01*
X82646458Y-66386333D01*
X82660600Y-66400475D01*
X83476533Y-65584542D01*
X83378593Y-65341044D01*
X83158195Y-65254856D01*
X88323330Y-60089721D01*
X97765000Y-60089721D01*
X97765000Y-60510279D01*
X97847047Y-60922756D01*
X98007988Y-61311302D01*
X98241637Y-61660983D01*
X98539017Y-61958363D01*
X98888698Y-62192012D01*
X99277244Y-62352953D01*
X99689721Y-62435000D01*
X100110279Y-62435000D01*
X100522756Y-62352953D01*
X100911302Y-62192012D01*
X101260983Y-61958363D01*
X101558363Y-61660983D01*
X101792012Y-61311302D01*
X101952953Y-60922756D01*
X102035000Y-60510279D01*
X102035000Y-60089721D01*
X101952953Y-59677244D01*
X101792012Y-59288698D01*
X101558363Y-58939017D01*
X101260983Y-58641637D01*
X100911302Y-58407988D01*
X100522756Y-58247047D01*
X100110279Y-58165000D01*
X99689721Y-58165000D01*
X99277244Y-58247047D01*
X98888698Y-58407988D01*
X98539017Y-58641637D01*
X98241637Y-58939017D01*
X98007988Y-59288698D01*
X97847047Y-59677244D01*
X97765000Y-60089721D01*
X88323330Y-60089721D01*
X88727816Y-59685236D01*
X88757764Y-59660658D01*
X88855862Y-59541127D01*
X88928754Y-59404754D01*
X88963959Y-59288698D01*
X88973641Y-59256782D01*
X88975057Y-59242404D01*
X88985000Y-59141455D01*
X88985000Y-59141448D01*
X88988797Y-59102895D01*
X88985000Y-59064342D01*
X88985000Y-55478711D01*
X89003937Y-55459774D01*
X89117205Y-55290256D01*
X89195226Y-55101898D01*
X89235000Y-54901939D01*
X89235000Y-54698061D01*
X89195226Y-54498102D01*
X89117205Y-54309744D01*
X89003937Y-54140226D01*
X88859774Y-53996063D01*
X88690256Y-53882795D01*
X88501898Y-53804774D01*
X88301939Y-53765000D01*
X88098061Y-53765000D01*
X87898102Y-53804774D01*
X87709744Y-53882795D01*
X87540226Y-53996063D01*
X87521289Y-54015000D01*
X83286879Y-54015000D01*
X83287333Y-54013991D01*
X83185405Y-53788000D01*
X82128000Y-53788000D01*
X82128000Y-53808000D01*
X81632000Y-53808000D01*
X81632000Y-53788000D01*
X81612000Y-53788000D01*
X81612000Y-53720000D01*
X97761928Y-53720000D01*
X97761928Y-56720000D01*
X97774188Y-56844482D01*
X97810498Y-56964180D01*
X97869463Y-57074494D01*
X97948815Y-57171185D01*
X98045506Y-57250537D01*
X98155820Y-57309502D01*
X98275518Y-57345812D01*
X98400000Y-57358072D01*
X101400000Y-57358072D01*
X101524482Y-57345812D01*
X101644180Y-57309502D01*
X101754494Y-57250537D01*
X101851185Y-57171185D01*
X101930537Y-57074494D01*
X101989502Y-56964180D01*
X102025812Y-56844482D01*
X102038072Y-56720000D01*
X102038072Y-53720000D01*
X102025812Y-53595518D01*
X101989502Y-53475820D01*
X101930537Y-53365506D01*
X101851185Y-53268815D01*
X101754494Y-53189463D01*
X101644180Y-53130498D01*
X101524482Y-53094188D01*
X101400000Y-53081928D01*
X98400000Y-53081928D01*
X98275518Y-53094188D01*
X98155820Y-53130498D01*
X98045506Y-53189463D01*
X97948815Y-53268815D01*
X97869463Y-53365506D01*
X97810498Y-53475820D01*
X97774188Y-53595518D01*
X97761928Y-53720000D01*
X81612000Y-53720000D01*
X81612000Y-53292000D01*
X81632000Y-53292000D01*
X81632000Y-53272000D01*
X82128000Y-53272000D01*
X82128000Y-53292000D01*
X83185405Y-53292000D01*
X83260727Y-53124999D01*
X85968983Y-53124999D01*
X86010001Y-53129039D01*
X86051019Y-53124999D01*
X86051020Y-53124999D01*
X86173690Y-53112917D01*
X86331088Y-53065171D01*
X86476147Y-52987635D01*
X86603292Y-52883290D01*
X86629447Y-52851420D01*
X89045868Y-50435000D01*
X89111788Y-50435000D01*
X89331067Y-50391383D01*
X89537624Y-50305824D01*
X89723520Y-50181612D01*
X89881612Y-50023520D01*
X90005824Y-49837624D01*
X90091383Y-49631067D01*
X90135000Y-49411788D01*
X90135000Y-49188212D01*
X90091540Y-48969721D01*
X97765000Y-48969721D01*
X97765000Y-49390279D01*
X97847047Y-49802756D01*
X98007988Y-50191302D01*
X98241637Y-50540983D01*
X98539017Y-50838363D01*
X98888698Y-51072012D01*
X99277244Y-51232953D01*
X99689721Y-51315000D01*
X100110279Y-51315000D01*
X100522756Y-51232953D01*
X100911302Y-51072012D01*
X101260983Y-50838363D01*
X101558363Y-50540983D01*
X101792012Y-50191302D01*
X101952953Y-49802756D01*
X102035000Y-49390279D01*
X102035000Y-48969721D01*
X101952953Y-48557244D01*
X101792012Y-48168698D01*
X101558363Y-47819017D01*
X101260983Y-47521637D01*
X100911302Y-47287988D01*
X100522756Y-47127047D01*
X100110279Y-47045000D01*
X99689721Y-47045000D01*
X99277244Y-47127047D01*
X98888698Y-47287988D01*
X98539017Y-47521637D01*
X98241637Y-47819017D01*
X98007988Y-48168698D01*
X97847047Y-48557244D01*
X97765000Y-48969721D01*
X90091540Y-48969721D01*
X90091383Y-48968933D01*
X90005824Y-48762376D01*
X89881612Y-48576480D01*
X89723520Y-48418388D01*
X89537624Y-48294176D01*
X89331067Y-48208617D01*
X89111788Y-48165000D01*
X88888212Y-48165000D01*
X88668933Y-48208617D01*
X88462376Y-48294176D01*
X88276480Y-48418388D01*
X88118388Y-48576480D01*
X87994176Y-48762376D01*
X87908617Y-48968933D01*
X87865000Y-49188212D01*
X87865000Y-49254132D01*
X85664134Y-51454999D01*
X85308712Y-51454999D01*
X85403937Y-51359774D01*
X85517205Y-51190256D01*
X85595226Y-51001898D01*
X85635000Y-50801939D01*
X85635000Y-50675157D01*
X88427810Y-47882347D01*
X88457764Y-47857764D01*
X88555862Y-47738233D01*
X88628754Y-47601860D01*
X88651652Y-47526376D01*
X88673642Y-47453887D01*
X88681020Y-47378974D01*
X88685000Y-47338561D01*
X88685000Y-47338556D01*
X88688797Y-47300000D01*
X88685000Y-47261444D01*
X88685000Y-37778711D01*
X88703937Y-37759774D01*
X88817205Y-37590256D01*
X88895226Y-37401898D01*
X88935000Y-37201939D01*
X88935000Y-36998061D01*
X88895226Y-36798102D01*
X88817205Y-36609744D01*
X88703937Y-36440226D01*
X88559774Y-36296063D01*
X88390256Y-36182795D01*
X88201898Y-36104774D01*
X88001939Y-36065000D01*
X87798061Y-36065000D01*
X87598102Y-36104774D01*
X87409744Y-36182795D01*
X87240226Y-36296063D01*
X87096063Y-36440226D01*
X86982795Y-36609744D01*
X86904774Y-36798102D01*
X86865000Y-36998061D01*
X86865000Y-37201939D01*
X86904774Y-37401898D01*
X86982795Y-37590256D01*
X87096063Y-37759774D01*
X87115000Y-37778711D01*
X87115001Y-46974842D01*
X84406663Y-49683180D01*
X84298102Y-49704774D01*
X84109744Y-49782795D01*
X83940226Y-49896063D01*
X83796063Y-50040226D01*
X83682795Y-50209744D01*
X83604774Y-50398102D01*
X83565000Y-50598061D01*
X83565000Y-50801939D01*
X83604774Y-51001898D01*
X83682795Y-51190256D01*
X83796063Y-51359774D01*
X83891288Y-51454999D01*
X83298885Y-51454999D01*
X83307932Y-51433158D01*
X83365000Y-51146260D01*
X83365000Y-50853740D01*
X83307932Y-50566842D01*
X83195990Y-50296589D01*
X83033475Y-50053368D01*
X82826632Y-49846525D01*
X82583411Y-49684010D01*
X82313158Y-49572068D01*
X82026260Y-49515000D01*
X81733740Y-49515000D01*
X81543082Y-49552925D01*
X77512348Y-45522191D01*
X77487765Y-45492237D01*
X77368234Y-45394139D01*
X77231861Y-45321247D01*
X77099372Y-45281057D01*
X77135000Y-45101939D01*
X77135000Y-44898061D01*
X77095226Y-44698102D01*
X77017205Y-44509744D01*
X76903937Y-44340226D01*
X76885000Y-44321289D01*
X76885000Y-42735000D01*
X76901939Y-42735000D01*
X77101898Y-42695226D01*
X77290256Y-42617205D01*
X77459774Y-42503937D01*
X77603937Y-42359774D01*
X77717205Y-42190256D01*
X77795226Y-42001898D01*
X77835000Y-41801939D01*
X77835000Y-41598061D01*
X77795226Y-41398102D01*
X77717205Y-41209744D01*
X77603937Y-41040226D01*
X77459774Y-40896063D01*
X77290256Y-40782795D01*
X77101898Y-40704774D01*
X76901939Y-40665000D01*
X76698061Y-40665000D01*
X76498102Y-40704774D01*
X76309744Y-40782795D01*
X76140226Y-40896063D01*
X75996063Y-41040226D01*
X75882795Y-41209744D01*
X75804774Y-41398102D01*
X75765000Y-41598061D01*
X75765000Y-41624843D01*
X75572185Y-41817658D01*
X75542237Y-41842236D01*
X75517659Y-41872184D01*
X75517655Y-41872188D01*
X75496388Y-41898102D01*
X75444139Y-41961767D01*
X75444053Y-41961928D01*
X75371246Y-42098141D01*
X75326359Y-42246114D01*
X75311203Y-42400000D01*
X75315001Y-42438563D01*
X75315000Y-44321289D01*
X75296063Y-44340226D01*
X75182795Y-44509744D01*
X75104774Y-44698102D01*
X75065000Y-44898061D01*
X75065000Y-45101939D01*
X75097435Y-45265001D01*
X74185161Y-45265001D01*
X71706351Y-42786192D01*
X71681768Y-42756238D01*
X71562237Y-42658140D01*
X71425864Y-42585248D01*
X71277891Y-42540361D01*
X71162565Y-42529002D01*
X71162557Y-42529002D01*
X71124004Y-42525205D01*
X71085451Y-42529002D01*
X70912316Y-42529002D01*
X70815704Y-42432390D01*
X70629808Y-42308178D01*
X70423251Y-42222619D01*
X70203972Y-42179002D01*
X69980396Y-42179002D01*
X69761117Y-42222619D01*
X69554560Y-42308178D01*
X69368664Y-42432390D01*
X69210572Y-42590482D01*
X69086360Y-42776378D01*
X69000801Y-42982935D01*
X68957184Y-43202214D01*
X68957184Y-43425790D01*
X69000801Y-43645069D01*
X69086360Y-43851626D01*
X69210572Y-44037522D01*
X69368664Y-44195614D01*
X69554560Y-44319826D01*
X69761117Y-44405385D01*
X69980396Y-44449002D01*
X70203972Y-44449002D01*
X70423251Y-44405385D01*
X70629808Y-44319826D01*
X70815704Y-44195614D01*
X70855581Y-44155737D01*
X73277661Y-46577817D01*
X73302239Y-46607765D01*
X73332187Y-46632343D01*
X73332190Y-46632346D01*
X73346560Y-46644139D01*
X73421770Y-46705863D01*
X73558143Y-46778755D01*
X73706116Y-46823643D01*
X73781029Y-46831021D01*
X73821442Y-46835001D01*
X73821447Y-46835001D01*
X73860003Y-46838798D01*
X73898559Y-46835001D01*
X76604844Y-46835001D01*
X79284843Y-49515000D01*
X79193740Y-49515000D01*
X78906842Y-49572068D01*
X78636589Y-49684010D01*
X78393368Y-49846525D01*
X78261513Y-49978380D01*
X78239502Y-49905820D01*
X78180537Y-49795506D01*
X78101185Y-49698815D01*
X78004494Y-49619463D01*
X77894180Y-49560498D01*
X77774482Y-49524188D01*
X77650000Y-49511928D01*
X75950000Y-49511928D01*
X75825518Y-49524188D01*
X75705820Y-49560498D01*
X75595506Y-49619463D01*
X75498815Y-49698815D01*
X75419463Y-49795506D01*
X75360498Y-49905820D01*
X75324188Y-50025518D01*
X75311928Y-50150000D01*
X75311928Y-50751062D01*
X73210047Y-48649182D01*
X73241824Y-48601624D01*
X73327383Y-48395067D01*
X73371000Y-48175788D01*
X73371000Y-47952212D01*
X73327383Y-47732933D01*
X73241824Y-47526376D01*
X73117612Y-47340480D01*
X72959520Y-47182388D01*
X72773624Y-47058176D01*
X72567067Y-46972617D01*
X72347788Y-46929000D01*
X72124212Y-46929000D01*
X71904933Y-46972617D01*
X71698376Y-47058176D01*
X71512480Y-47182388D01*
X71354388Y-47340480D01*
X71230176Y-47526376D01*
X71144617Y-47732933D01*
X71101000Y-47952212D01*
X71101000Y-48175788D01*
X71144617Y-48395067D01*
X71230176Y-48601624D01*
X71354388Y-48787520D01*
X71399283Y-48832415D01*
X71396960Y-48856002D01*
X71401000Y-48897020D01*
X71413082Y-49019690D01*
X71460828Y-49177088D01*
X71538364Y-49322147D01*
X71642709Y-49449293D01*
X71674579Y-49475448D01*
X75050556Y-52851426D01*
X75076706Y-52883290D01*
X75120753Y-52919438D01*
X75203851Y-52987635D01*
X75348910Y-53065171D01*
X75384817Y-53076063D01*
X75372068Y-53106842D01*
X75315000Y-53393740D01*
X75315000Y-53686260D01*
X75372068Y-53973158D01*
X75389399Y-54015000D01*
X74025158Y-54015000D01*
X71835000Y-51824843D01*
X71835000Y-51698061D01*
X71795226Y-51498102D01*
X71717205Y-51309744D01*
X71603937Y-51140226D01*
X71459774Y-50996063D01*
X71290256Y-50882795D01*
X71101898Y-50804774D01*
X70901939Y-50765000D01*
X70698061Y-50765000D01*
X70498102Y-50804774D01*
X70309744Y-50882795D01*
X70140226Y-50996063D01*
X69996063Y-51140226D01*
X69882795Y-51309744D01*
X69804774Y-51498102D01*
X69765000Y-51698061D01*
X69765000Y-51901939D01*
X69804774Y-52101898D01*
X69882795Y-52290256D01*
X69996063Y-52459774D01*
X70140226Y-52603937D01*
X70309744Y-52717205D01*
X70498102Y-52795226D01*
X70606663Y-52816820D01*
X73117658Y-55327816D01*
X73142236Y-55357764D01*
X73172184Y-55382342D01*
X73172187Y-55382345D01*
X73201559Y-55406450D01*
X73261767Y-55455862D01*
X73398140Y-55528754D01*
X73511672Y-55563194D01*
X73546112Y-55573641D01*
X73560490Y-55575057D01*
X73661439Y-55585000D01*
X73661446Y-55585000D01*
X73699999Y-55588797D01*
X73738552Y-55585000D01*
X87415000Y-55585000D01*
X87415001Y-58777735D01*
X79992190Y-66200547D01*
X79962236Y-66225130D01*
X79864138Y-66344662D01*
X79791246Y-66481035D01*
X79746359Y-66629008D01*
X79735000Y-66744334D01*
X79735000Y-66744341D01*
X79731203Y-66782894D01*
X79735000Y-66821447D01*
X79735000Y-67938526D01*
X79573368Y-68046525D01*
X79366525Y-68253368D01*
X79250000Y-68427760D01*
X79133475Y-68253368D01*
X78970188Y-68090081D01*
X79143277Y-67974427D01*
X79362627Y-67755077D01*
X79534970Y-67497148D01*
X79653682Y-67210552D01*
X79714200Y-66906304D01*
X79714200Y-66596096D01*
X79653682Y-66291848D01*
X79534970Y-66005252D01*
X79362627Y-65747323D01*
X79143277Y-65527973D01*
X78885348Y-65355630D01*
X78598752Y-65236918D01*
X78294504Y-65176400D01*
X77984296Y-65176400D01*
X77680048Y-65236918D01*
X77393452Y-65355630D01*
X77135523Y-65527973D01*
X76916173Y-65747323D01*
X76743830Y-66005252D01*
X76650000Y-66231778D01*
X76556170Y-66005252D01*
X76383827Y-65747323D01*
X76164477Y-65527973D01*
X75906548Y-65355630D01*
X75619952Y-65236918D01*
X75315704Y-65176400D01*
X75005496Y-65176400D01*
X74701248Y-65236918D01*
X74414652Y-65355630D01*
X74156723Y-65527973D01*
X73937373Y-65747323D01*
X73765030Y-66005252D01*
X73646318Y-66291848D01*
X73585800Y-66596096D01*
X73585800Y-66906304D01*
X73646318Y-67210552D01*
X73765030Y-67497148D01*
X73937373Y-67755077D01*
X74156723Y-67974427D01*
X74401746Y-68138147D01*
X74286525Y-68253368D01*
X74170000Y-68427760D01*
X74053475Y-68253368D01*
X73846632Y-68046525D01*
X73603411Y-67884010D01*
X73333158Y-67772068D01*
X73046260Y-67715000D01*
X72753740Y-67715000D01*
X72466842Y-67772068D01*
X72196589Y-67884010D01*
X71953368Y-68046525D01*
X71746525Y-68253368D01*
X71630000Y-68427760D01*
X71513475Y-68253368D01*
X71375771Y-68115664D01*
X71455333Y-67917858D01*
X70639400Y-67101925D01*
X69979789Y-67761536D01*
X69926842Y-67772068D01*
X69656589Y-67884010D01*
X69413368Y-68046525D01*
X69206525Y-68253368D01*
X69090000Y-68427760D01*
X68973475Y-68253368D01*
X68766632Y-68046525D01*
X68523411Y-67884010D01*
X68253158Y-67772068D01*
X67966260Y-67715000D01*
X67673740Y-67715000D01*
X67386842Y-67772068D01*
X67116589Y-67884010D01*
X66873368Y-68046525D01*
X66666525Y-68253368D01*
X66550000Y-68427760D01*
X66433475Y-68253368D01*
X66226632Y-68046525D01*
X65983411Y-67884010D01*
X65713158Y-67772068D01*
X65426260Y-67715000D01*
X65133740Y-67715000D01*
X64846842Y-67772068D01*
X64576589Y-67884010D01*
X64333368Y-68046525D01*
X64126525Y-68253368D01*
X64010000Y-68427760D01*
X63893475Y-68253368D01*
X63686632Y-68046525D01*
X63443411Y-67884010D01*
X63173158Y-67772068D01*
X62886260Y-67715000D01*
X62593740Y-67715000D01*
X62306842Y-67772068D01*
X62036589Y-67884010D01*
X61793368Y-68046525D01*
X61586525Y-68253368D01*
X61470000Y-68427760D01*
X61353475Y-68253368D01*
X61146632Y-68046525D01*
X60903411Y-67884010D01*
X60633158Y-67772068D01*
X60346260Y-67715000D01*
X60053740Y-67715000D01*
X59766842Y-67772068D01*
X59496589Y-67884010D01*
X59253368Y-68046525D01*
X59046525Y-68253368D01*
X58927307Y-68431790D01*
X58778817Y-68223527D01*
X58566819Y-68024019D01*
X58319972Y-67869704D01*
X58133989Y-67792677D01*
X57908000Y-67897143D01*
X57908000Y-68952000D01*
X57928000Y-68952000D01*
X57928000Y-69448000D01*
X57908000Y-69448000D01*
X57908000Y-69468000D01*
X57412000Y-69468000D01*
X57412000Y-69448000D01*
X57392000Y-69448000D01*
X57392000Y-68952000D01*
X57412000Y-68952000D01*
X57412000Y-67897143D01*
X57186011Y-67792677D01*
X57000028Y-67869704D01*
X56753181Y-68024019D01*
X56541183Y-68223527D01*
X56392693Y-68431790D01*
X56273475Y-68253368D01*
X56066632Y-68046525D01*
X55823411Y-67884010D01*
X55553158Y-67772068D01*
X55266260Y-67715000D01*
X54973740Y-67715000D01*
X54686842Y-67772068D01*
X54416589Y-67884010D01*
X54173368Y-68046525D01*
X53966525Y-68253368D01*
X53850000Y-68427760D01*
X53733475Y-68253368D01*
X53526632Y-68046525D01*
X53283411Y-67884010D01*
X53013158Y-67772068D01*
X52726260Y-67715000D01*
X52433740Y-67715000D01*
X52146842Y-67772068D01*
X51876589Y-67884010D01*
X51633368Y-68046525D01*
X51426525Y-68253368D01*
X51310000Y-68427760D01*
X51193475Y-68253368D01*
X50986632Y-68046525D01*
X50743411Y-67884010D01*
X50473158Y-67772068D01*
X50186260Y-67715000D01*
X49893740Y-67715000D01*
X49606842Y-67772068D01*
X49336589Y-67884010D01*
X49093368Y-68046525D01*
X48886525Y-68253368D01*
X48724010Y-68496589D01*
X48612068Y-68766842D01*
X48555000Y-69053740D01*
X48555000Y-69346260D01*
X48612068Y-69633158D01*
X48724010Y-69903411D01*
X48886525Y-70146632D01*
X49079893Y-70340000D01*
X33432278Y-70340000D01*
X32868414Y-70284713D01*
X32357073Y-70130330D01*
X31885460Y-69879569D01*
X31471530Y-69541976D01*
X31131060Y-69130418D01*
X30877013Y-68660567D01*
X30719063Y-68150314D01*
X30660000Y-67588362D01*
X30660000Y-67379872D01*
X31165000Y-67379872D01*
X31165000Y-67820128D01*
X31250890Y-68251925D01*
X31419369Y-68658669D01*
X31663962Y-69024729D01*
X31975271Y-69336038D01*
X32341331Y-69580631D01*
X32748075Y-69749110D01*
X33179872Y-69835000D01*
X33620128Y-69835000D01*
X34051925Y-69749110D01*
X34458669Y-69580631D01*
X34824729Y-69336038D01*
X35136038Y-69024729D01*
X35380631Y-68658669D01*
X35549110Y-68251925D01*
X35583926Y-68076890D01*
X37950048Y-68076890D01*
X37950048Y-68323110D01*
X37998083Y-68564598D01*
X38092307Y-68792074D01*
X38229099Y-68996798D01*
X38403202Y-69170901D01*
X38607926Y-69307693D01*
X38835402Y-69401917D01*
X39076890Y-69449952D01*
X39323110Y-69449952D01*
X39564598Y-69401917D01*
X39792074Y-69307693D01*
X39996798Y-69170901D01*
X40170901Y-68996798D01*
X40307693Y-68792074D01*
X40401917Y-68564598D01*
X40449952Y-68323110D01*
X40449952Y-68076890D01*
X40401917Y-67835402D01*
X40307693Y-67607926D01*
X40170901Y-67403202D01*
X39996798Y-67229099D01*
X39792074Y-67092307D01*
X39564598Y-66998083D01*
X39323110Y-66950048D01*
X39076890Y-66950048D01*
X38835402Y-66998083D01*
X38607926Y-67092307D01*
X38403202Y-67229099D01*
X38229099Y-67403202D01*
X38092307Y-67607926D01*
X37998083Y-67835402D01*
X37950048Y-68076890D01*
X35583926Y-68076890D01*
X35635000Y-67820128D01*
X35635000Y-67379872D01*
X35549110Y-66948075D01*
X35416326Y-66627504D01*
X69061822Y-66627504D01*
X69068004Y-66937651D01*
X69134573Y-67240633D01*
X69229244Y-67469193D01*
X69472742Y-67567133D01*
X70288675Y-66751200D01*
X70990125Y-66751200D01*
X71806058Y-67567133D01*
X72049556Y-67469193D01*
X72162533Y-67180289D01*
X72216978Y-66874896D01*
X72210796Y-66564749D01*
X72144227Y-66261767D01*
X72049556Y-66033207D01*
X71806058Y-65935267D01*
X70990125Y-66751200D01*
X70288675Y-66751200D01*
X69472742Y-65935267D01*
X69229244Y-66033207D01*
X69116267Y-66322111D01*
X69061822Y-66627504D01*
X35416326Y-66627504D01*
X35380631Y-66541331D01*
X35136038Y-66175271D01*
X34824729Y-65863962D01*
X34458669Y-65619369D01*
X34374590Y-65584542D01*
X69823467Y-65584542D01*
X70639400Y-66400475D01*
X71455333Y-65584542D01*
X71357393Y-65341044D01*
X71068489Y-65228067D01*
X70763096Y-65173622D01*
X70452949Y-65179804D01*
X70149967Y-65246373D01*
X69921407Y-65341044D01*
X69823467Y-65584542D01*
X34374590Y-65584542D01*
X34051925Y-65450890D01*
X33620128Y-65365000D01*
X33179872Y-65365000D01*
X32748075Y-65450890D01*
X32341331Y-65619369D01*
X31975271Y-65863962D01*
X31663962Y-66175271D01*
X31419369Y-66541331D01*
X31250890Y-66948075D01*
X31165000Y-67379872D01*
X30660000Y-67379872D01*
X30660000Y-62238967D01*
X36365000Y-62238967D01*
X36365000Y-62561033D01*
X36427832Y-62876912D01*
X36551082Y-63174463D01*
X36730013Y-63442252D01*
X36957748Y-63669987D01*
X37225537Y-63848918D01*
X37523088Y-63972168D01*
X37838967Y-64035000D01*
X38161033Y-64035000D01*
X38476912Y-63972168D01*
X38774463Y-63848918D01*
X39042252Y-63669987D01*
X39269987Y-63442252D01*
X39448918Y-63174463D01*
X39572168Y-62876912D01*
X39635000Y-62561033D01*
X39635000Y-62238967D01*
X39572168Y-61923088D01*
X39448918Y-61625537D01*
X39308548Y-61415458D01*
X69823467Y-61415458D01*
X69921407Y-61658956D01*
X70210311Y-61771933D01*
X70515704Y-61826378D01*
X70825851Y-61820196D01*
X71128833Y-61753627D01*
X71357393Y-61658956D01*
X71455333Y-61415458D01*
X70639400Y-60599525D01*
X69823467Y-61415458D01*
X39308548Y-61415458D01*
X39269987Y-61357748D01*
X39042252Y-61130013D01*
X38774463Y-60951082D01*
X38476912Y-60827832D01*
X38161033Y-60765000D01*
X37838967Y-60765000D01*
X37523088Y-60827832D01*
X37225537Y-60951082D01*
X36957748Y-61130013D01*
X36730013Y-61357748D01*
X36551082Y-61625537D01*
X36427832Y-61923088D01*
X36365000Y-62238967D01*
X30660000Y-62238967D01*
X30660000Y-60125104D01*
X69061822Y-60125104D01*
X69068004Y-60435251D01*
X69134573Y-60738233D01*
X69229244Y-60966793D01*
X69472742Y-61064733D01*
X70288675Y-60248800D01*
X70990125Y-60248800D01*
X71806058Y-61064733D01*
X72049556Y-60966793D01*
X72162533Y-60677889D01*
X72216978Y-60372496D01*
X72211421Y-60093696D01*
X73585800Y-60093696D01*
X73585800Y-60403904D01*
X73646318Y-60708152D01*
X73765030Y-60994748D01*
X73937373Y-61252677D01*
X74156723Y-61472027D01*
X74414652Y-61644370D01*
X74701248Y-61763082D01*
X75005496Y-61823600D01*
X75315704Y-61823600D01*
X75619952Y-61763082D01*
X75906548Y-61644370D01*
X76164477Y-61472027D01*
X76383827Y-61252677D01*
X76556170Y-60994748D01*
X76650000Y-60768222D01*
X76743830Y-60994748D01*
X76916173Y-61252677D01*
X77135523Y-61472027D01*
X77393452Y-61644370D01*
X77680048Y-61763082D01*
X77984296Y-61823600D01*
X78294504Y-61823600D01*
X78598752Y-61763082D01*
X78885348Y-61644370D01*
X79143277Y-61472027D01*
X79199846Y-61415458D01*
X81844667Y-61415458D01*
X81942607Y-61658956D01*
X82231511Y-61771933D01*
X82536904Y-61826378D01*
X82847051Y-61820196D01*
X83150033Y-61753627D01*
X83378593Y-61658956D01*
X83476533Y-61415458D01*
X82660600Y-60599525D01*
X81844667Y-61415458D01*
X79199846Y-61415458D01*
X79362627Y-61252677D01*
X79534970Y-60994748D01*
X79653682Y-60708152D01*
X79714200Y-60403904D01*
X79714200Y-60093696D01*
X79667125Y-59857034D01*
X79773330Y-59901025D01*
X80155282Y-59977000D01*
X80544718Y-59977000D01*
X80926670Y-59901025D01*
X81140267Y-59812550D01*
X81137467Y-59819711D01*
X81083022Y-60125104D01*
X81089204Y-60435251D01*
X81155773Y-60738233D01*
X81250444Y-60966793D01*
X81493942Y-61064733D01*
X82309875Y-60248800D01*
X83011325Y-60248800D01*
X83827258Y-61064733D01*
X84070756Y-60966793D01*
X84183733Y-60677889D01*
X84238178Y-60372496D01*
X84231996Y-60062349D01*
X84165427Y-59759367D01*
X84070756Y-59530807D01*
X83827258Y-59432867D01*
X83011325Y-60248800D01*
X82309875Y-60248800D01*
X82295733Y-60234658D01*
X82646458Y-59883933D01*
X82660600Y-59898075D01*
X83476533Y-59082142D01*
X83378593Y-58838644D01*
X83089689Y-58725667D01*
X82784296Y-58671222D01*
X82474149Y-58677404D01*
X82182783Y-58741421D01*
X82251025Y-58576670D01*
X82327000Y-58194718D01*
X82327000Y-57805282D01*
X82251025Y-57423330D01*
X82101995Y-57063539D01*
X81885636Y-56739736D01*
X81610264Y-56464364D01*
X81286461Y-56248005D01*
X80926670Y-56098975D01*
X80544718Y-56023000D01*
X80155282Y-56023000D01*
X79773330Y-56098975D01*
X79413539Y-56248005D01*
X79089736Y-56464364D01*
X78814364Y-56739736D01*
X78598005Y-57063539D01*
X78448975Y-57423330D01*
X78373000Y-57805282D01*
X78373000Y-58194718D01*
X78448975Y-58576670D01*
X78506780Y-58716224D01*
X78294504Y-58674000D01*
X77984296Y-58674000D01*
X77680048Y-58734518D01*
X77393452Y-58853230D01*
X77135523Y-59025573D01*
X76916173Y-59244923D01*
X76743830Y-59502852D01*
X76650000Y-59729378D01*
X76556170Y-59502852D01*
X76383827Y-59244923D01*
X76164477Y-59025573D01*
X75906548Y-58853230D01*
X75619952Y-58734518D01*
X75315704Y-58674000D01*
X75005496Y-58674000D01*
X74701248Y-58734518D01*
X74414652Y-58853230D01*
X74156723Y-59025573D01*
X73937373Y-59244923D01*
X73765030Y-59502852D01*
X73646318Y-59789448D01*
X73585800Y-60093696D01*
X72211421Y-60093696D01*
X72210796Y-60062349D01*
X72144227Y-59759367D01*
X72049556Y-59530807D01*
X71806058Y-59432867D01*
X70990125Y-60248800D01*
X70288675Y-60248800D01*
X69472742Y-59432867D01*
X69229244Y-59530807D01*
X69116267Y-59819711D01*
X69061822Y-60125104D01*
X30660000Y-60125104D01*
X30660000Y-57805282D01*
X55073000Y-57805282D01*
X55073000Y-58194718D01*
X55148975Y-58576670D01*
X55298005Y-58936461D01*
X55514364Y-59260264D01*
X55789736Y-59535636D01*
X56113539Y-59751995D01*
X56473330Y-59901025D01*
X56855282Y-59977000D01*
X57244718Y-59977000D01*
X57626670Y-59901025D01*
X57986461Y-59751995D01*
X58310264Y-59535636D01*
X58585636Y-59260264D01*
X58704653Y-59082142D01*
X69823467Y-59082142D01*
X70639400Y-59898075D01*
X71455333Y-59082142D01*
X71357393Y-58838644D01*
X71068489Y-58725667D01*
X70763096Y-58671222D01*
X70452949Y-58677404D01*
X70149967Y-58743973D01*
X69921407Y-58838644D01*
X69823467Y-59082142D01*
X58704653Y-59082142D01*
X58801995Y-58936461D01*
X58951025Y-58576670D01*
X59027000Y-58194718D01*
X59027000Y-57805282D01*
X58951025Y-57423330D01*
X58801995Y-57063539D01*
X58585636Y-56739736D01*
X58310264Y-56464364D01*
X57986461Y-56248005D01*
X57626670Y-56098975D01*
X57244718Y-56023000D01*
X56855282Y-56023000D01*
X56473330Y-56098975D01*
X56113539Y-56248005D01*
X55789736Y-56464364D01*
X55514364Y-56739736D01*
X55298005Y-57063539D01*
X55148975Y-57423330D01*
X55073000Y-57805282D01*
X30660000Y-57805282D01*
X30660000Y-53800000D01*
X36361928Y-53800000D01*
X36361928Y-55800000D01*
X36374188Y-55924482D01*
X36410498Y-56044180D01*
X36469463Y-56154494D01*
X36548815Y-56251185D01*
X36645506Y-56330537D01*
X36755820Y-56389502D01*
X36875518Y-56425812D01*
X37000000Y-56438072D01*
X39000000Y-56438072D01*
X39124482Y-56425812D01*
X39244180Y-56389502D01*
X39354494Y-56330537D01*
X39451185Y-56251185D01*
X39530537Y-56154494D01*
X39589502Y-56044180D01*
X39625812Y-55924482D01*
X39638072Y-55800000D01*
X39638072Y-53800000D01*
X39625812Y-53675518D01*
X39589502Y-53555820D01*
X39530537Y-53445506D01*
X39451185Y-53348815D01*
X39354494Y-53269463D01*
X39244180Y-53210498D01*
X39124482Y-53174188D01*
X39000000Y-53161928D01*
X37000000Y-53161928D01*
X36875518Y-53174188D01*
X36755820Y-53210498D01*
X36645506Y-53269463D01*
X36548815Y-53348815D01*
X36469463Y-53445506D01*
X36410498Y-53555820D01*
X36374188Y-53675518D01*
X36361928Y-53800000D01*
X30660000Y-53800000D01*
X30660000Y-48740475D01*
X30665000Y-48740475D01*
X30665000Y-49259525D01*
X30766261Y-49768601D01*
X30964893Y-50248141D01*
X31253262Y-50679715D01*
X31620285Y-51046738D01*
X32051859Y-51335107D01*
X32531399Y-51533739D01*
X33040475Y-51635000D01*
X33559525Y-51635000D01*
X34068601Y-51533739D01*
X34548141Y-51335107D01*
X34979715Y-51046738D01*
X35346738Y-50679715D01*
X35635107Y-50248141D01*
X35833739Y-49768601D01*
X35935000Y-49259525D01*
X35935000Y-48740475D01*
X35833739Y-48231399D01*
X35635107Y-47751859D01*
X35525762Y-47588212D01*
X44265000Y-47588212D01*
X44265000Y-47811788D01*
X44308617Y-48031067D01*
X44394176Y-48237624D01*
X44518388Y-48423520D01*
X44676480Y-48581612D01*
X44862376Y-48705824D01*
X45068933Y-48791383D01*
X45288212Y-48835000D01*
X45511788Y-48835000D01*
X45731067Y-48791383D01*
X45937624Y-48705824D01*
X46123520Y-48581612D01*
X46281612Y-48423520D01*
X46405824Y-48237624D01*
X46491383Y-48031067D01*
X46535000Y-47811788D01*
X46535000Y-47588212D01*
X46491383Y-47368933D01*
X46410000Y-47172458D01*
X46410000Y-33518355D01*
X48718355Y-31210000D01*
X53238694Y-31210000D01*
X53076480Y-31318388D01*
X52918388Y-31476480D01*
X52794176Y-31662376D01*
X52708617Y-31868933D01*
X52665000Y-32088212D01*
X52665000Y-32311788D01*
X52677880Y-32376543D01*
X48879778Y-36174646D01*
X48723520Y-36018388D01*
X48537624Y-35894176D01*
X48331067Y-35808617D01*
X48111788Y-35765000D01*
X47888212Y-35765000D01*
X47668933Y-35808617D01*
X47462376Y-35894176D01*
X47276480Y-36018388D01*
X47118388Y-36176480D01*
X46994176Y-36362376D01*
X46908617Y-36568933D01*
X46865000Y-36788212D01*
X46865000Y-37011788D01*
X46908617Y-37231067D01*
X46994176Y-37437624D01*
X47115001Y-37618451D01*
X47115000Y-42481550D01*
X46994176Y-42662376D01*
X46908617Y-42868933D01*
X46865000Y-43088212D01*
X46865000Y-43311788D01*
X46908617Y-43531067D01*
X46994176Y-43737624D01*
X47118388Y-43923520D01*
X47276480Y-44081612D01*
X47462376Y-44205824D01*
X47668933Y-44291383D01*
X47888212Y-44335000D01*
X48065001Y-44335000D01*
X48065001Y-44383420D01*
X47782232Y-44666189D01*
X47568933Y-44708617D01*
X47362376Y-44794176D01*
X47176480Y-44918388D01*
X47018388Y-45076480D01*
X46894176Y-45262376D01*
X46808617Y-45468933D01*
X46765000Y-45688212D01*
X46765000Y-45911788D01*
X46808617Y-46131067D01*
X46894176Y-46337624D01*
X47018388Y-46523520D01*
X47176480Y-46681612D01*
X47362376Y-46805824D01*
X47568933Y-46891383D01*
X47788212Y-46935000D01*
X48011788Y-46935000D01*
X48231067Y-46891383D01*
X48437624Y-46805824D01*
X48623520Y-46681612D01*
X48781612Y-46523520D01*
X48905824Y-46337624D01*
X48991383Y-46131067D01*
X49033811Y-45917768D01*
X49545051Y-45406528D01*
X49578818Y-45378816D01*
X49638626Y-45305941D01*
X49689412Y-45244058D01*
X49771590Y-45090313D01*
X49822196Y-44923489D01*
X49825358Y-44891383D01*
X49835001Y-44793476D01*
X49835001Y-44793468D01*
X49839282Y-44749999D01*
X49835001Y-44706530D01*
X49835001Y-44127258D01*
X52432867Y-44127258D01*
X52530807Y-44370756D01*
X52819711Y-44483733D01*
X53125104Y-44538178D01*
X53435251Y-44531996D01*
X53738233Y-44465427D01*
X53966793Y-44370756D01*
X54064733Y-44127258D01*
X53248800Y-43311325D01*
X52432867Y-44127258D01*
X49835001Y-44127258D01*
X49835001Y-42836904D01*
X51671222Y-42836904D01*
X51677404Y-43147051D01*
X51743973Y-43450033D01*
X51838644Y-43678593D01*
X52082142Y-43776533D01*
X52898075Y-42960600D01*
X53599525Y-42960600D01*
X54415458Y-43776533D01*
X54658956Y-43678593D01*
X54771933Y-43389689D01*
X54826378Y-43084296D01*
X54821447Y-42836904D01*
X58173622Y-42836904D01*
X58179804Y-43147051D01*
X58246373Y-43450033D01*
X58341044Y-43678593D01*
X58584542Y-43776533D01*
X59400475Y-42960600D01*
X58584542Y-42144667D01*
X58341044Y-42242607D01*
X58228067Y-42531511D01*
X58173622Y-42836904D01*
X54821447Y-42836904D01*
X54820196Y-42774149D01*
X54753627Y-42471167D01*
X54658956Y-42242607D01*
X54415458Y-42144667D01*
X53599525Y-42960600D01*
X52898075Y-42960600D01*
X52082142Y-42144667D01*
X51838644Y-42242607D01*
X51725667Y-42531511D01*
X51671222Y-42836904D01*
X49835001Y-42836904D01*
X49835001Y-42787468D01*
X49839282Y-42743999D01*
X49835001Y-42700530D01*
X49835001Y-42700522D01*
X49822196Y-42570509D01*
X49771590Y-42403686D01*
X49689412Y-42249940D01*
X49585010Y-42122727D01*
X49585010Y-41793942D01*
X52432867Y-41793942D01*
X53248800Y-42609875D01*
X54064733Y-41793942D01*
X58935267Y-41793942D01*
X59751200Y-42609875D01*
X60567133Y-41793942D01*
X60469193Y-41550444D01*
X60180289Y-41437467D01*
X59874896Y-41383022D01*
X59564749Y-41389204D01*
X59261767Y-41455773D01*
X59033207Y-41550444D01*
X58935267Y-41793942D01*
X54064733Y-41793942D01*
X53966793Y-41550444D01*
X53677889Y-41437467D01*
X53372496Y-41383022D01*
X53062349Y-41389204D01*
X52759367Y-41455773D01*
X52530807Y-41550444D01*
X52432867Y-41793942D01*
X49585010Y-41793942D01*
X49585010Y-38284296D01*
X51674000Y-38284296D01*
X51674000Y-38594504D01*
X51734518Y-38898752D01*
X51853230Y-39185348D01*
X52025573Y-39443277D01*
X52244923Y-39662627D01*
X52502852Y-39834970D01*
X52789448Y-39953682D01*
X53093696Y-40014200D01*
X53403904Y-40014200D01*
X53708152Y-39953682D01*
X53994748Y-39834970D01*
X54252677Y-39662627D01*
X54472027Y-39443277D01*
X54644370Y-39185348D01*
X54763082Y-38898752D01*
X54823600Y-38594504D01*
X54823600Y-38284296D01*
X58176400Y-38284296D01*
X58176400Y-38594504D01*
X58236918Y-38898752D01*
X58355630Y-39185348D01*
X58527973Y-39443277D01*
X58747323Y-39662627D01*
X59005252Y-39834970D01*
X59291848Y-39953682D01*
X59596096Y-40014200D01*
X59906304Y-40014200D01*
X60210552Y-39953682D01*
X60497148Y-39834970D01*
X60755077Y-39662627D01*
X60974427Y-39443277D01*
X61146770Y-39185348D01*
X61265482Y-38898752D01*
X61326000Y-38594504D01*
X61326000Y-38284296D01*
X61265482Y-37980048D01*
X61146770Y-37693452D01*
X60974427Y-37435523D01*
X60755077Y-37216173D01*
X60497148Y-37043830D01*
X60210552Y-36925118D01*
X59906304Y-36864600D01*
X59596096Y-36864600D01*
X59291848Y-36925118D01*
X59005252Y-37043830D01*
X58747323Y-37216173D01*
X58527973Y-37435523D01*
X58355630Y-37693452D01*
X58236918Y-37980048D01*
X58176400Y-38284296D01*
X54823600Y-38284296D01*
X54763082Y-37980048D01*
X54644370Y-37693452D01*
X54472027Y-37435523D01*
X54252677Y-37216173D01*
X53994748Y-37043830D01*
X53708152Y-36925118D01*
X53403904Y-36864600D01*
X53093696Y-36864600D01*
X52789448Y-36925118D01*
X52502852Y-37043830D01*
X52244923Y-37216173D01*
X52025573Y-37435523D01*
X51853230Y-37693452D01*
X51734518Y-37980048D01*
X51674000Y-38284296D01*
X49585010Y-38284296D01*
X49585010Y-37972570D01*
X53552298Y-34005282D01*
X55073000Y-34005282D01*
X55073000Y-34394718D01*
X55148975Y-34776670D01*
X55298005Y-35136461D01*
X55514364Y-35460264D01*
X55789736Y-35735636D01*
X56113539Y-35951995D01*
X56473330Y-36101025D01*
X56855282Y-36177000D01*
X57244718Y-36177000D01*
X57626670Y-36101025D01*
X57986461Y-35951995D01*
X58310264Y-35735636D01*
X58585636Y-35460264D01*
X58801995Y-35136461D01*
X58951025Y-34776670D01*
X58998499Y-34538000D01*
X63355928Y-34538000D01*
X63368188Y-34662482D01*
X63404498Y-34782180D01*
X63463463Y-34892494D01*
X63542815Y-34989185D01*
X63639506Y-35068537D01*
X63749820Y-35127502D01*
X63869518Y-35163812D01*
X63994000Y-35176072D01*
X64437250Y-35173000D01*
X64596000Y-35014250D01*
X64596000Y-33936000D01*
X63517750Y-33936000D01*
X63359000Y-34094750D01*
X63355928Y-34538000D01*
X58998499Y-34538000D01*
X59027000Y-34394718D01*
X59027000Y-34005282D01*
X58951025Y-33623330D01*
X58801995Y-33263539D01*
X58585636Y-32939736D01*
X58483900Y-32838000D01*
X63355928Y-32838000D01*
X63359000Y-33281250D01*
X63517750Y-33440000D01*
X64596000Y-33440000D01*
X64596000Y-32361750D01*
X64437250Y-32203000D01*
X63994000Y-32199928D01*
X63869518Y-32212188D01*
X63749820Y-32248498D01*
X63639506Y-32307463D01*
X63542815Y-32386815D01*
X63463463Y-32483506D01*
X63404498Y-32593820D01*
X63368188Y-32713518D01*
X63355928Y-32838000D01*
X58483900Y-32838000D01*
X58310264Y-32664364D01*
X57986461Y-32448005D01*
X57626670Y-32298975D01*
X57244718Y-32223000D01*
X56855282Y-32223000D01*
X56473330Y-32298975D01*
X56113539Y-32448005D01*
X55789736Y-32664364D01*
X55514364Y-32939736D01*
X55298005Y-33263539D01*
X55148975Y-33623330D01*
X55073000Y-34005282D01*
X53552298Y-34005282D01*
X54380216Y-33177365D01*
X54523520Y-33081612D01*
X54681612Y-32923520D01*
X54805824Y-32737624D01*
X54891383Y-32531067D01*
X54935000Y-32311788D01*
X54935000Y-32088212D01*
X54891383Y-31868933D01*
X54805824Y-31662376D01*
X54681612Y-31476480D01*
X54523520Y-31318388D01*
X54361306Y-31210000D01*
X78980419Y-31210000D01*
X73772556Y-36417864D01*
X73743477Y-36415000D01*
X73743469Y-36415000D01*
X73700000Y-36410719D01*
X73656531Y-36415000D01*
X69166579Y-36415000D01*
X68269000Y-35517422D01*
X68269000Y-34882656D01*
X68330632Y-34841475D01*
X68537475Y-34634632D01*
X68654000Y-34460240D01*
X68770525Y-34634632D01*
X68977368Y-34841475D01*
X69220589Y-35003990D01*
X69490842Y-35115932D01*
X69777740Y-35173000D01*
X70070260Y-35173000D01*
X70357158Y-35115932D01*
X70627411Y-35003990D01*
X70870632Y-34841475D01*
X71077475Y-34634632D01*
X71194000Y-34460240D01*
X71310525Y-34634632D01*
X71517368Y-34841475D01*
X71760589Y-35003990D01*
X72030842Y-35115932D01*
X72317740Y-35173000D01*
X72610260Y-35173000D01*
X72897158Y-35115932D01*
X73167411Y-35003990D01*
X73410632Y-34841475D01*
X73617475Y-34634632D01*
X73779990Y-34391411D01*
X73891932Y-34121158D01*
X73949000Y-33834260D01*
X73949000Y-33541740D01*
X73891932Y-33254842D01*
X73779990Y-32984589D01*
X73617475Y-32741368D01*
X73410632Y-32534525D01*
X73167411Y-32372010D01*
X72897158Y-32260068D01*
X72610260Y-32203000D01*
X72317740Y-32203000D01*
X72030842Y-32260068D01*
X71760589Y-32372010D01*
X71517368Y-32534525D01*
X71310525Y-32741368D01*
X71194000Y-32915760D01*
X71077475Y-32741368D01*
X70870632Y-32534525D01*
X70627411Y-32372010D01*
X70357158Y-32260068D01*
X70070260Y-32203000D01*
X69777740Y-32203000D01*
X69490842Y-32260068D01*
X69220589Y-32372010D01*
X68977368Y-32534525D01*
X68770525Y-32741368D01*
X68654000Y-32915760D01*
X68537475Y-32741368D01*
X68330632Y-32534525D01*
X68087411Y-32372010D01*
X67817158Y-32260068D01*
X67530260Y-32203000D01*
X67237740Y-32203000D01*
X66950842Y-32260068D01*
X66680589Y-32372010D01*
X66437368Y-32534525D01*
X66305513Y-32666380D01*
X66283502Y-32593820D01*
X66224537Y-32483506D01*
X66145185Y-32386815D01*
X66048494Y-32307463D01*
X65938180Y-32248498D01*
X65818482Y-32212188D01*
X65694000Y-32199928D01*
X65250750Y-32203000D01*
X65092000Y-32361750D01*
X65092000Y-33440000D01*
X65112000Y-33440000D01*
X65112000Y-33936000D01*
X65092000Y-33936000D01*
X65092000Y-35014250D01*
X65250750Y-35173000D01*
X65694000Y-35176072D01*
X65818482Y-35163812D01*
X65938180Y-35127502D01*
X66048494Y-35068537D01*
X66145185Y-34989185D01*
X66224537Y-34892494D01*
X66283502Y-34782180D01*
X66305513Y-34709620D01*
X66437368Y-34841475D01*
X66499000Y-34882656D01*
X66499000Y-35840531D01*
X66494719Y-35884000D01*
X66499000Y-35927469D01*
X66499000Y-35927476D01*
X66511805Y-36057489D01*
X66549001Y-36180105D01*
X66549001Y-37138128D01*
X61244293Y-42442838D01*
X61161356Y-42242607D01*
X60917858Y-42144667D01*
X60101925Y-42960600D01*
X60116068Y-42974743D01*
X59765343Y-43325468D01*
X59751200Y-43311325D01*
X58935267Y-44127258D01*
X59033207Y-44370756D01*
X59322111Y-44483733D01*
X59627504Y-44538178D01*
X59937651Y-44531996D01*
X60240633Y-44465427D01*
X60469193Y-44370756D01*
X60567132Y-44127260D01*
X60694341Y-44254469D01*
X60740579Y-44208231D01*
X60794176Y-44337624D01*
X60918388Y-44523520D01*
X61076480Y-44681612D01*
X61262376Y-44805824D01*
X61468933Y-44891383D01*
X61688212Y-44935000D01*
X61911788Y-44935000D01*
X62131067Y-44891383D01*
X62312790Y-44816111D01*
X62315000Y-44838553D01*
X62315001Y-50435288D01*
X62296063Y-50454226D01*
X62182795Y-50623744D01*
X62104774Y-50812102D01*
X62065000Y-51012061D01*
X62065000Y-51215939D01*
X62104774Y-51415898D01*
X62182795Y-51604256D01*
X62296063Y-51773774D01*
X62440226Y-51917937D01*
X62609744Y-52031205D01*
X62798102Y-52109226D01*
X62998061Y-52149000D01*
X63201939Y-52149000D01*
X63401898Y-52109226D01*
X63590256Y-52031205D01*
X63600002Y-52024693D01*
X63609747Y-52031205D01*
X63798105Y-52109226D01*
X63998064Y-52149000D01*
X64201942Y-52149000D01*
X64401901Y-52109226D01*
X64590259Y-52031205D01*
X64600005Y-52024693D01*
X64609750Y-52031205D01*
X64798108Y-52109226D01*
X64998067Y-52149000D01*
X65201945Y-52149000D01*
X65401904Y-52109226D01*
X65590262Y-52031205D01*
X65759780Y-51917937D01*
X65903943Y-51773774D01*
X66017211Y-51604256D01*
X66095232Y-51415898D01*
X66135006Y-51215939D01*
X66135006Y-51012061D01*
X66095232Y-50812102D01*
X66017211Y-50623744D01*
X65903943Y-50454226D01*
X65885006Y-50435289D01*
X65885006Y-46344964D01*
X66987515Y-45242456D01*
X67014296Y-45242456D01*
X67214255Y-45202682D01*
X67402613Y-45124661D01*
X67572131Y-45011393D01*
X67716294Y-44867230D01*
X67829562Y-44697712D01*
X67907583Y-44509354D01*
X67947357Y-44309395D01*
X67947357Y-44105517D01*
X67907583Y-43905558D01*
X67829562Y-43717200D01*
X67755725Y-43606694D01*
X67793333Y-43515900D01*
X67833107Y-43315941D01*
X67833107Y-43112063D01*
X67793333Y-42912104D01*
X67715312Y-42723746D01*
X67602044Y-42554228D01*
X67457881Y-42410065D01*
X67288363Y-42296797D01*
X67100005Y-42218776D01*
X66900046Y-42179002D01*
X66735000Y-42179002D01*
X66735000Y-42098061D01*
X66695226Y-41898102D01*
X66617205Y-41709744D01*
X66503937Y-41540226D01*
X66359774Y-41396063D01*
X66190256Y-41282795D01*
X66001898Y-41204774D01*
X65801939Y-41165000D01*
X65598061Y-41165000D01*
X65398102Y-41204774D01*
X65209744Y-41282795D01*
X65040226Y-41396063D01*
X64896063Y-41540226D01*
X64782795Y-41709744D01*
X64704774Y-41898102D01*
X64665000Y-42098061D01*
X64665000Y-42124842D01*
X62935000Y-43854843D01*
X62935000Y-43688212D01*
X62891383Y-43468933D01*
X62805824Y-43262376D01*
X62798080Y-43250786D01*
X67945432Y-38103435D01*
X67977291Y-38077289D01*
X68008378Y-38039410D01*
X68057094Y-37980048D01*
X68081636Y-37950144D01*
X68122366Y-37873945D01*
X68143470Y-37895049D01*
X68171183Y-37928817D01*
X68204951Y-37956530D01*
X68204953Y-37956532D01*
X68247419Y-37991383D01*
X68305941Y-38039411D01*
X68459687Y-38121589D01*
X68626510Y-38172195D01*
X68756523Y-38185000D01*
X68756533Y-38185000D01*
X68799999Y-38189281D01*
X68843465Y-38185000D01*
X72984805Y-38185000D01*
X72908617Y-38368933D01*
X72865000Y-38588212D01*
X72865000Y-38811788D01*
X72908617Y-39031067D01*
X72994176Y-39237624D01*
X73118388Y-39423520D01*
X73276480Y-39581612D01*
X73462376Y-39705824D01*
X73668933Y-39791383D01*
X73888212Y-39835000D01*
X74111788Y-39835000D01*
X74331067Y-39791383D01*
X74537624Y-39705824D01*
X74723520Y-39581612D01*
X74881612Y-39423520D01*
X75005824Y-39237624D01*
X75091383Y-39031067D01*
X75135000Y-38811788D01*
X75135000Y-38588212D01*
X75091383Y-38368933D01*
X75005824Y-38162376D01*
X74885000Y-37981550D01*
X74885000Y-37808576D01*
X75175846Y-37517730D01*
X78784669Y-37517730D01*
X78784669Y-37721608D01*
X78824443Y-37921567D01*
X78902464Y-38109925D01*
X79015732Y-38279443D01*
X79159895Y-38423606D01*
X79329413Y-38536874D01*
X79517771Y-38614895D01*
X79717730Y-38654669D01*
X79744512Y-38654669D01*
X82972187Y-41882345D01*
X82972192Y-41882349D01*
X83865000Y-42775158D01*
X83865000Y-42801939D01*
X83904774Y-43001898D01*
X83982795Y-43190256D01*
X84096063Y-43359774D01*
X84240226Y-43503937D01*
X84409744Y-43617205D01*
X84598102Y-43695226D01*
X84798061Y-43735000D01*
X85001939Y-43735000D01*
X85201898Y-43695226D01*
X85390256Y-43617205D01*
X85559774Y-43503937D01*
X85703937Y-43359774D01*
X85817205Y-43190256D01*
X85895226Y-43001898D01*
X85935000Y-42801939D01*
X85935000Y-42598061D01*
X85895226Y-42398102D01*
X85817205Y-42209744D01*
X85703937Y-42040226D01*
X85559774Y-41896063D01*
X85390256Y-41782795D01*
X85201898Y-41704774D01*
X85001939Y-41665000D01*
X84975158Y-41665000D01*
X84082349Y-40772192D01*
X84082345Y-40772187D01*
X80854669Y-37544512D01*
X80854669Y-37517730D01*
X80814895Y-37317771D01*
X80736874Y-37129413D01*
X80623606Y-36959895D01*
X80479443Y-36815732D01*
X80309925Y-36702464D01*
X80121567Y-36624443D01*
X79921608Y-36584669D01*
X79717730Y-36584669D01*
X79517771Y-36624443D01*
X79329413Y-36702464D01*
X79159895Y-36815732D01*
X79015732Y-36959895D01*
X78902464Y-37129413D01*
X78824443Y-37317771D01*
X78784669Y-37517730D01*
X75175846Y-37517730D01*
X78373000Y-34320577D01*
X78373000Y-34394718D01*
X78448975Y-34776670D01*
X78598005Y-35136461D01*
X78814364Y-35460264D01*
X79089736Y-35735636D01*
X79413539Y-35951995D01*
X79773330Y-36101025D01*
X80155282Y-36177000D01*
X80544718Y-36177000D01*
X80926670Y-36101025D01*
X81286461Y-35951995D01*
X81610264Y-35735636D01*
X81885636Y-35460264D01*
X82101995Y-35136461D01*
X82251025Y-34776670D01*
X82327000Y-34394718D01*
X82327000Y-34005282D01*
X82251025Y-33623330D01*
X82101995Y-33263539D01*
X81885636Y-32939736D01*
X81610264Y-32664364D01*
X81286461Y-32448005D01*
X80926670Y-32298975D01*
X80856413Y-32285000D01*
X81981550Y-32285000D01*
X82162376Y-32405824D01*
X82368933Y-32491383D01*
X82588212Y-32535000D01*
X82811788Y-32535000D01*
X83031067Y-32491383D01*
X83237624Y-32405824D01*
X83423520Y-32281612D01*
X83581612Y-32123520D01*
X83705824Y-31937624D01*
X83791383Y-31731067D01*
X83835000Y-31511788D01*
X83835000Y-31288212D01*
X83819443Y-31210000D01*
X83881645Y-31210000D01*
X86170744Y-33499100D01*
X86202367Y-33537633D01*
X86356160Y-33663847D01*
X86531620Y-33757632D01*
X86722005Y-33815385D01*
X86920000Y-33834886D01*
X86969608Y-33830000D01*
X97461645Y-33830000D01*
X96020901Y-35270744D01*
X95982368Y-35302367D01*
X95950745Y-35340900D01*
X95950744Y-35340901D01*
X95856154Y-35456160D01*
X95762368Y-35631621D01*
X95704615Y-35822006D01*
X95685114Y-36020000D01*
X95690001Y-36069618D01*
X95690000Y-40850392D01*
X95685114Y-40900000D01*
X95690000Y-40949607D01*
X95704615Y-41097993D01*
X95762368Y-41288379D01*
X95856153Y-41463840D01*
X95982367Y-41617633D01*
X96020906Y-41649261D01*
X97761928Y-43390283D01*
X97761928Y-45600000D01*
X97774188Y-45724482D01*
X97810498Y-45844180D01*
X97869463Y-45954494D01*
X97948815Y-46051185D01*
X98045506Y-46130537D01*
X98155820Y-46189502D01*
X98275518Y-46225812D01*
X98400000Y-46238072D01*
X101400000Y-46238072D01*
X101524482Y-46225812D01*
X101644180Y-46189502D01*
X101754494Y-46130537D01*
X101851185Y-46051185D01*
X101930537Y-45954494D01*
X101989502Y-45844180D01*
X102025812Y-45724482D01*
X102038072Y-45600000D01*
X102038072Y-42600000D01*
X102025812Y-42475518D01*
X101989502Y-42355820D01*
X101930537Y-42245506D01*
X101851185Y-42148815D01*
X101754494Y-42069463D01*
X101644180Y-42010498D01*
X101524482Y-41974188D01*
X101400000Y-41961928D01*
X99190283Y-41961928D01*
X97710000Y-40481645D01*
X97710000Y-37689721D01*
X97765000Y-37689721D01*
X97765000Y-38110279D01*
X97847047Y-38522756D01*
X98007988Y-38911302D01*
X98241637Y-39260983D01*
X98539017Y-39558363D01*
X98888698Y-39792012D01*
X99277244Y-39952953D01*
X99689721Y-40035000D01*
X100110279Y-40035000D01*
X100522756Y-39952953D01*
X100911302Y-39792012D01*
X101260983Y-39558363D01*
X101558363Y-39260983D01*
X101792012Y-38911302D01*
X101952953Y-38522756D01*
X102035000Y-38110279D01*
X102035000Y-37689721D01*
X101952953Y-37277244D01*
X101792012Y-36888698D01*
X101558363Y-36539017D01*
X101260983Y-36241637D01*
X100911302Y-36007988D01*
X100522756Y-35847047D01*
X100110279Y-35765000D01*
X99689721Y-35765000D01*
X99277244Y-35847047D01*
X98888698Y-36007988D01*
X98539017Y-36241637D01*
X98241637Y-36539017D01*
X98007988Y-36888698D01*
X97847047Y-37277244D01*
X97765000Y-37689721D01*
X97710000Y-37689721D01*
X97710000Y-36438355D01*
X99190283Y-34958072D01*
X101400000Y-34958072D01*
X101524482Y-34945812D01*
X101644180Y-34909502D01*
X101754494Y-34850537D01*
X101851185Y-34771185D01*
X101930537Y-34674494D01*
X101989502Y-34564180D01*
X102025812Y-34444482D01*
X102038072Y-34320000D01*
X102038072Y-31320000D01*
X102025812Y-31195518D01*
X101989502Y-31075820D01*
X101930537Y-30965506D01*
X101851185Y-30868815D01*
X101754494Y-30789463D01*
X101644180Y-30730498D01*
X101524482Y-30694188D01*
X101400000Y-30681928D01*
X98400000Y-30681928D01*
X98275518Y-30694188D01*
X98155820Y-30730498D01*
X98045506Y-30789463D01*
X97948815Y-30868815D01*
X97869463Y-30965506D01*
X97810498Y-31075820D01*
X97774188Y-31195518D01*
X97761928Y-31320000D01*
X97761928Y-31810000D01*
X87338356Y-31810000D01*
X85049261Y-29520906D01*
X85017633Y-29482367D01*
X84863840Y-29356153D01*
X84688380Y-29262368D01*
X84497994Y-29204615D01*
X84349608Y-29190000D01*
X84300000Y-29185114D01*
X84250392Y-29190000D01*
X48349604Y-29190000D01*
X48299999Y-29185114D01*
X48250394Y-29190000D01*
X48250392Y-29190000D01*
X48102006Y-29204615D01*
X47911620Y-29262368D01*
X47736160Y-29356153D01*
X47582367Y-29482367D01*
X47550739Y-29520906D01*
X44720901Y-32350744D01*
X44682368Y-32382367D01*
X44650745Y-32420900D01*
X44650744Y-32420901D01*
X44556154Y-32536160D01*
X44462368Y-32711621D01*
X44404615Y-32902006D01*
X44385114Y-33100000D01*
X44390001Y-33149618D01*
X44390000Y-47172458D01*
X44308617Y-47368933D01*
X44265000Y-47588212D01*
X35525762Y-47588212D01*
X35346738Y-47320285D01*
X34979715Y-46953262D01*
X34548141Y-46664893D01*
X34068601Y-46466261D01*
X33559525Y-46365000D01*
X33040475Y-46365000D01*
X32531399Y-46466261D01*
X32051859Y-46664893D01*
X31620285Y-46953262D01*
X31253262Y-47320285D01*
X30964893Y-47751859D01*
X30766261Y-48231399D01*
X30665000Y-48740475D01*
X30660000Y-48740475D01*
X30660000Y-44397649D01*
X34521330Y-44397649D01*
X34529966Y-44690041D01*
X34595480Y-44975129D01*
X34673816Y-45164250D01*
X34908207Y-45251068D01*
X35659275Y-44500000D01*
X34908207Y-43748932D01*
X34673816Y-43835750D01*
X34569902Y-44109191D01*
X34521330Y-44397649D01*
X30660000Y-44397649D01*
X30660000Y-41623740D01*
X34525000Y-41623740D01*
X34525000Y-41916260D01*
X34582068Y-42203158D01*
X34694010Y-42473411D01*
X34856525Y-42716632D01*
X35063368Y-42923475D01*
X35306589Y-43085990D01*
X35420114Y-43133014D01*
X35345750Y-43163816D01*
X35258932Y-43398207D01*
X36010000Y-44149275D01*
X36024143Y-44135133D01*
X36374868Y-44485858D01*
X36360725Y-44500000D01*
X36374868Y-44514143D01*
X36024143Y-44864868D01*
X36010000Y-44850725D01*
X35258932Y-45601793D01*
X35345750Y-45836184D01*
X35619191Y-45940098D01*
X35907649Y-45988670D01*
X36200041Y-45980034D01*
X36485129Y-45914520D01*
X36674250Y-45836184D01*
X36761067Y-45601795D01*
X36889336Y-45730064D01*
X37014647Y-45604754D01*
X37063368Y-45653475D01*
X37306589Y-45815990D01*
X37576842Y-45927932D01*
X37863740Y-45985000D01*
X38156260Y-45985000D01*
X38443158Y-45927932D01*
X38713411Y-45815990D01*
X38956632Y-45653475D01*
X39163475Y-45446632D01*
X39325990Y-45203411D01*
X39437932Y-44933158D01*
X39495000Y-44646260D01*
X39495000Y-44353740D01*
X39437932Y-44066842D01*
X39325990Y-43796589D01*
X39163475Y-43553368D01*
X38956632Y-43346525D01*
X38713411Y-43184010D01*
X38595090Y-43135000D01*
X38713411Y-43085990D01*
X38956632Y-42923475D01*
X39163475Y-42716632D01*
X39325990Y-42473411D01*
X39437932Y-42203158D01*
X39495000Y-41916260D01*
X39495000Y-41623740D01*
X39437932Y-41336842D01*
X39325990Y-41066589D01*
X39163475Y-40823368D01*
X38956632Y-40616525D01*
X38713411Y-40454010D01*
X38443158Y-40342068D01*
X38156260Y-40285000D01*
X37863740Y-40285000D01*
X37576842Y-40342068D01*
X37306589Y-40454010D01*
X37063368Y-40616525D01*
X37010000Y-40669893D01*
X36956632Y-40616525D01*
X36713411Y-40454010D01*
X36443158Y-40342068D01*
X36156260Y-40285000D01*
X35863740Y-40285000D01*
X35576842Y-40342068D01*
X35306589Y-40454010D01*
X35063368Y-40616525D01*
X34856525Y-40823368D01*
X34694010Y-41066589D01*
X34582068Y-41336842D01*
X34525000Y-41623740D01*
X30660000Y-41623740D01*
X30660000Y-36740475D01*
X30665000Y-36740475D01*
X30665000Y-37259525D01*
X30766261Y-37768601D01*
X30964893Y-38248141D01*
X31253262Y-38679715D01*
X31620285Y-39046738D01*
X32051859Y-39335107D01*
X32531399Y-39533739D01*
X33040475Y-39635000D01*
X33559525Y-39635000D01*
X34068601Y-39533739D01*
X34548141Y-39335107D01*
X34979715Y-39046738D01*
X35346738Y-38679715D01*
X35635107Y-38248141D01*
X35833739Y-37768601D01*
X35935000Y-37259525D01*
X35935000Y-36740475D01*
X35833739Y-36231399D01*
X35635107Y-35751859D01*
X35346738Y-35320285D01*
X34979715Y-34953262D01*
X34548141Y-34664893D01*
X34068601Y-34466261D01*
X33559525Y-34365000D01*
X33040475Y-34365000D01*
X32531399Y-34466261D01*
X32051859Y-34664893D01*
X31620285Y-34953262D01*
X31253262Y-35320285D01*
X30964893Y-35751859D01*
X30766261Y-36231399D01*
X30665000Y-36740475D01*
X30660000Y-36740475D01*
X30660000Y-28432278D01*
X30684748Y-28179872D01*
X31165000Y-28179872D01*
X31165000Y-28620128D01*
X31250890Y-29051925D01*
X31419369Y-29458669D01*
X31663962Y-29824729D01*
X31975271Y-30136038D01*
X32341331Y-30380631D01*
X32748075Y-30549110D01*
X33179872Y-30635000D01*
X33620128Y-30635000D01*
X34051925Y-30549110D01*
X34458669Y-30380631D01*
X34824729Y-30136038D01*
X35136038Y-29824729D01*
X35380631Y-29458669D01*
X35549110Y-29051925D01*
X35635000Y-28620128D01*
X35635000Y-28179872D01*
X35574733Y-27876890D01*
X37950048Y-27876890D01*
X37950048Y-28123110D01*
X37998083Y-28364598D01*
X38092307Y-28592074D01*
X38229099Y-28796798D01*
X38403202Y-28970901D01*
X38607926Y-29107693D01*
X38835402Y-29201917D01*
X39076890Y-29249952D01*
X39323110Y-29249952D01*
X39564598Y-29201917D01*
X39792074Y-29107693D01*
X39996798Y-28970901D01*
X40170901Y-28796798D01*
X40307693Y-28592074D01*
X40401917Y-28364598D01*
X40449952Y-28123110D01*
X40449952Y-27876890D01*
X40401917Y-27635402D01*
X40307693Y-27407926D01*
X40170901Y-27203202D01*
X39996798Y-27029099D01*
X39792074Y-26892307D01*
X39564598Y-26798083D01*
X39323110Y-26750048D01*
X39076890Y-26750048D01*
X38835402Y-26798083D01*
X38607926Y-26892307D01*
X38403202Y-27029099D01*
X38229099Y-27203202D01*
X38092307Y-27407926D01*
X37998083Y-27635402D01*
X37950048Y-27876890D01*
X35574733Y-27876890D01*
X35549110Y-27748075D01*
X35380631Y-27341331D01*
X35136038Y-26975271D01*
X34824729Y-26663962D01*
X34458669Y-26419369D01*
X34051925Y-26250890D01*
X33620128Y-26165000D01*
X33179872Y-26165000D01*
X32748075Y-26250890D01*
X32341331Y-26419369D01*
X31975271Y-26663962D01*
X31663962Y-26975271D01*
X31419369Y-27341331D01*
X31250890Y-27748075D01*
X31165000Y-28179872D01*
X30684748Y-28179872D01*
X30715287Y-27868414D01*
X30869670Y-27357073D01*
X31120431Y-26885460D01*
X31458022Y-26471533D01*
X31869583Y-26131060D01*
X32339433Y-25877013D01*
X32849688Y-25719063D01*
X33411638Y-25660000D01*
X48624990Y-25660000D01*
X48600498Y-25705820D01*
%TA.AperFunction,Conductor*%
D27*
G36*
X48600498Y-25705820D02*
G01*
X48564188Y-25825518D01*
X48551928Y-25950000D01*
X48551928Y-27650000D01*
X48564188Y-27774482D01*
X48600498Y-27894180D01*
X48659463Y-28004494D01*
X48738815Y-28101185D01*
X48835506Y-28180537D01*
X48945820Y-28239502D01*
X49065518Y-28275812D01*
X49190000Y-28288072D01*
X50890000Y-28288072D01*
X51014482Y-28275812D01*
X51134180Y-28239502D01*
X51244494Y-28180537D01*
X51341185Y-28101185D01*
X51420537Y-28004494D01*
X51479502Y-27894180D01*
X51503210Y-27816024D01*
X51673181Y-27975981D01*
X51920028Y-28130296D01*
X52106011Y-28207323D01*
X52332000Y-28102857D01*
X52332000Y-27048000D01*
X52312000Y-27048000D01*
X52312000Y-26552000D01*
X52332000Y-26552000D01*
X52332000Y-26532000D01*
X52828000Y-26532000D01*
X52828000Y-26552000D01*
X52848000Y-26552000D01*
X52848000Y-27048000D01*
X52828000Y-27048000D01*
X52828000Y-28102857D01*
X53053989Y-28207323D01*
X53239972Y-28130296D01*
X53486819Y-27975981D01*
X53698817Y-27776473D01*
X53847307Y-27568210D01*
X53966525Y-27746632D01*
X54173368Y-27953475D01*
X54416589Y-28115990D01*
X54686842Y-28227932D01*
X54973740Y-28285000D01*
X55266260Y-28285000D01*
X55553158Y-28227932D01*
X55823411Y-28115990D01*
X56066632Y-27953475D01*
X56273475Y-27746632D01*
X56390000Y-27572240D01*
X56506525Y-27746632D01*
X56713368Y-27953475D01*
X56956589Y-28115990D01*
X57226842Y-28227932D01*
X57513740Y-28285000D01*
X57806260Y-28285000D01*
X58093158Y-28227932D01*
X58363411Y-28115990D01*
X58606632Y-27953475D01*
X58813475Y-27746632D01*
X58930000Y-27572240D01*
X59046525Y-27746632D01*
X59253368Y-27953475D01*
X59496589Y-28115990D01*
X59766842Y-28227932D01*
X60053740Y-28285000D01*
X60346260Y-28285000D01*
X60633158Y-28227932D01*
X60903411Y-28115990D01*
X61146632Y-27953475D01*
X61353475Y-27746632D01*
X61470000Y-27572240D01*
X61586525Y-27746632D01*
X61793368Y-27953475D01*
X62036589Y-28115990D01*
X62306842Y-28227932D01*
X62593740Y-28285000D01*
X62886260Y-28285000D01*
X63173158Y-28227932D01*
X63443411Y-28115990D01*
X63686632Y-27953475D01*
X63893475Y-27746632D01*
X64010000Y-27572240D01*
X64126525Y-27746632D01*
X64333368Y-27953475D01*
X64576589Y-28115990D01*
X64846842Y-28227932D01*
X65133740Y-28285000D01*
X65426260Y-28285000D01*
X65713158Y-28227932D01*
X65983411Y-28115990D01*
X66226632Y-27953475D01*
X66433475Y-27746632D01*
X66550000Y-27572240D01*
X66666525Y-27746632D01*
X66873368Y-27953475D01*
X67116589Y-28115990D01*
X67386842Y-28227932D01*
X67673740Y-28285000D01*
X67966260Y-28285000D01*
X68253158Y-28227932D01*
X68523411Y-28115990D01*
X68766632Y-27953475D01*
X68973475Y-27746632D01*
X69090000Y-27572240D01*
X69206525Y-27746632D01*
X69413368Y-27953475D01*
X69656589Y-28115990D01*
X69926842Y-28227932D01*
X70213740Y-28285000D01*
X70506260Y-28285000D01*
X70793158Y-28227932D01*
X71063411Y-28115990D01*
X71306632Y-27953475D01*
X71513475Y-27746632D01*
X71630000Y-27572240D01*
X71746525Y-27746632D01*
X71953368Y-27953475D01*
X72196589Y-28115990D01*
X72466842Y-28227932D01*
X72753740Y-28285000D01*
X73046260Y-28285000D01*
X73333158Y-28227932D01*
X73603411Y-28115990D01*
X73846632Y-27953475D01*
X74053475Y-27746632D01*
X74170000Y-27572240D01*
X74286525Y-27746632D01*
X74493368Y-27953475D01*
X74736589Y-28115990D01*
X75006842Y-28227932D01*
X75293740Y-28285000D01*
X75586260Y-28285000D01*
X75873158Y-28227932D01*
X76143411Y-28115990D01*
X76386632Y-27953475D01*
X76593475Y-27746632D01*
X76710000Y-27572240D01*
X76826525Y-27746632D01*
X77033368Y-27953475D01*
X77276589Y-28115990D01*
X77546842Y-28227932D01*
X77833740Y-28285000D01*
X78126260Y-28285000D01*
X78413158Y-28227932D01*
X78683411Y-28115990D01*
X78926632Y-27953475D01*
X79133475Y-27746632D01*
X79250000Y-27572240D01*
X79366525Y-27746632D01*
X79573368Y-27953475D01*
X79816589Y-28115990D01*
X80086842Y-28227932D01*
X80373740Y-28285000D01*
X80666260Y-28285000D01*
X80953158Y-28227932D01*
X81223411Y-28115990D01*
X81466632Y-27953475D01*
X81673475Y-27746632D01*
X81790000Y-27572240D01*
X81906525Y-27746632D01*
X82113368Y-27953475D01*
X82356589Y-28115990D01*
X82626842Y-28227932D01*
X82913740Y-28285000D01*
X83206260Y-28285000D01*
X83493158Y-28227932D01*
X83763411Y-28115990D01*
X84006632Y-27953475D01*
X84213475Y-27746632D01*
X84330000Y-27572240D01*
X84446525Y-27746632D01*
X84653368Y-27953475D01*
X84896589Y-28115990D01*
X85166842Y-28227932D01*
X85453740Y-28285000D01*
X85746260Y-28285000D01*
X86033158Y-28227932D01*
X86149185Y-28179872D01*
X88965000Y-28179872D01*
X88965000Y-28620128D01*
X89050890Y-29051925D01*
X89219369Y-29458669D01*
X89463962Y-29824729D01*
X89775271Y-30136038D01*
X90141331Y-30380631D01*
X90548075Y-30549110D01*
X90979872Y-30635000D01*
X91420128Y-30635000D01*
X91851925Y-30549110D01*
X92258669Y-30380631D01*
X92624729Y-30136038D01*
X92936038Y-29824729D01*
X93180631Y-29458669D01*
X93349110Y-29051925D01*
X93435000Y-28620128D01*
X93435000Y-28179872D01*
X93374733Y-27876890D01*
X95750048Y-27876890D01*
X95750048Y-28123110D01*
X95798083Y-28364598D01*
X95892307Y-28592074D01*
X96029099Y-28796798D01*
X96203202Y-28970901D01*
X96407926Y-29107693D01*
X96635402Y-29201917D01*
X96876890Y-29249952D01*
X97123110Y-29249952D01*
X97364598Y-29201917D01*
X97592074Y-29107693D01*
X97796798Y-28970901D01*
X97970901Y-28796798D01*
X98107693Y-28592074D01*
X98201917Y-28364598D01*
X98249952Y-28123110D01*
X98249952Y-27876890D01*
X98201917Y-27635402D01*
X98107693Y-27407926D01*
X97970901Y-27203202D01*
X97796798Y-27029099D01*
X97592074Y-26892307D01*
X97364598Y-26798083D01*
X97123110Y-26750048D01*
X96876890Y-26750048D01*
X96635402Y-26798083D01*
X96407926Y-26892307D01*
X96203202Y-27029099D01*
X96029099Y-27203202D01*
X95892307Y-27407926D01*
X95798083Y-27635402D01*
X95750048Y-27876890D01*
X93374733Y-27876890D01*
X93349110Y-27748075D01*
X93180631Y-27341331D01*
X92936038Y-26975271D01*
X92624729Y-26663962D01*
X92258669Y-26419369D01*
X91851925Y-26250890D01*
X91420128Y-26165000D01*
X90979872Y-26165000D01*
X90548075Y-26250890D01*
X90141331Y-26419369D01*
X89775271Y-26663962D01*
X89463962Y-26975271D01*
X89219369Y-27341331D01*
X89050890Y-27748075D01*
X88965000Y-28179872D01*
X86149185Y-28179872D01*
X86303411Y-28115990D01*
X86546632Y-27953475D01*
X86753475Y-27746632D01*
X86915990Y-27503411D01*
X87027932Y-27233158D01*
X87085000Y-26946260D01*
X87085000Y-26653740D01*
X87027932Y-26366842D01*
X86915990Y-26096589D01*
X86753475Y-25853368D01*
X86560107Y-25660000D01*
X100567722Y-25660000D01*
X101131586Y-25715287D01*
X101642927Y-25869670D01*
X102114540Y-26120431D01*
X102528467Y-26458022D01*
X102868940Y-26869583D01*
X103122987Y-27339433D01*
X103280937Y-27849688D01*
X103340001Y-28411647D01*
X103340000Y-67567722D01*
X103284713Y-68131586D01*
X103130330Y-68642927D01*
X102879569Y-69114540D01*
X102541976Y-69528470D01*
X102130418Y-69868940D01*
X101660567Y-70122987D01*
X101150314Y-70280937D01*
X100588362Y-70340000D01*
X87015010Y-70340000D01*
X87039502Y-70294180D01*
X87075812Y-70174482D01*
X87088072Y-70050000D01*
X87088072Y-68350000D01*
X87075812Y-68225518D01*
X87039502Y-68105820D01*
X86980537Y-67995506D01*
X86901185Y-67898815D01*
X86804494Y-67819463D01*
X86694180Y-67760498D01*
X86574482Y-67724188D01*
X86450000Y-67711928D01*
X84750000Y-67711928D01*
X84625518Y-67724188D01*
X84505820Y-67760498D01*
X84395506Y-67819463D01*
X84298815Y-67898815D01*
X84219463Y-67995506D01*
X84160498Y-68105820D01*
X84138487Y-68178380D01*
X84006632Y-68046525D01*
X83763411Y-67884010D01*
X83493158Y-67772068D01*
X83290414Y-67731739D01*
X82660600Y-67101925D01*
X81844667Y-67917858D01*
X81942607Y-68161356D01*
X81982814Y-68177079D01*
X81906525Y-68253368D01*
X81790000Y-68427760D01*
X81673475Y-68253368D01*
X81466632Y-68046525D01*
X81305000Y-67938526D01*
X81305000Y-67491137D01*
X81493942Y-67567133D01*
X82309875Y-66751200D01*
X83011325Y-66751200D01*
X83827258Y-67567133D01*
X84070756Y-67469193D01*
X84105685Y-67379872D01*
X88965000Y-67379872D01*
X88965000Y-67820128D01*
X89050890Y-68251925D01*
X89219369Y-68658669D01*
X89463962Y-69024729D01*
X89775271Y-69336038D01*
X90141331Y-69580631D01*
X90548075Y-69749110D01*
X90979872Y-69835000D01*
X91420128Y-69835000D01*
X91851925Y-69749110D01*
X92258669Y-69580631D01*
X92624729Y-69336038D01*
X92936038Y-69024729D01*
X93180631Y-68658669D01*
X93349110Y-68251925D01*
X93383926Y-68076890D01*
X95750048Y-68076890D01*
X95750048Y-68323110D01*
X95798083Y-68564598D01*
X95892307Y-68792074D01*
X96029099Y-68996798D01*
X96203202Y-69170901D01*
X96407926Y-69307693D01*
X96635402Y-69401917D01*
X96876890Y-69449952D01*
X97123110Y-69449952D01*
X97364598Y-69401917D01*
X97592074Y-69307693D01*
X97796798Y-69170901D01*
X97970901Y-68996798D01*
X98107693Y-68792074D01*
X98201917Y-68564598D01*
X98249952Y-68323110D01*
X98249952Y-68076890D01*
X98201917Y-67835402D01*
X98107693Y-67607926D01*
X97970901Y-67403202D01*
X97796798Y-67229099D01*
X97592074Y-67092307D01*
X97364598Y-66998083D01*
X97123110Y-66950048D01*
X96876890Y-66950048D01*
X96635402Y-66998083D01*
X96407926Y-67092307D01*
X96203202Y-67229099D01*
X96029099Y-67403202D01*
X95892307Y-67607926D01*
X95798083Y-67835402D01*
X95750048Y-68076890D01*
X93383926Y-68076890D01*
X93435000Y-67820128D01*
X93435000Y-67379872D01*
X93349110Y-66948075D01*
X93180631Y-66541331D01*
X92936038Y-66175271D01*
X92624729Y-65863962D01*
X92258669Y-65619369D01*
X91851925Y-65450890D01*
X91420128Y-65365000D01*
X90979872Y-65365000D01*
X90548075Y-65450890D01*
X90141331Y-65619369D01*
X89775271Y-65863962D01*
X89463962Y-66175271D01*
X89219369Y-66541331D01*
X89050890Y-66948075D01*
X88965000Y-67379872D01*
X84105685Y-67379872D01*
X84183733Y-67180289D01*
X84238178Y-66874896D01*
X84231996Y-66564749D01*
X84165427Y-66261767D01*
X84070756Y-66033207D01*
X83827258Y-65935267D01*
X83011325Y-66751200D01*
X82309875Y-66751200D01*
X82295733Y-66737058D01*
X82646458Y-66386333D01*
X82660600Y-66400475D01*
X83476533Y-65584542D01*
X83378593Y-65341044D01*
X83158195Y-65254856D01*
X88323330Y-60089721D01*
X97765000Y-60089721D01*
X97765000Y-60510279D01*
X97847047Y-60922756D01*
X98007988Y-61311302D01*
X98241637Y-61660983D01*
X98539017Y-61958363D01*
X98888698Y-62192012D01*
X99277244Y-62352953D01*
X99689721Y-62435000D01*
X100110279Y-62435000D01*
X100522756Y-62352953D01*
X100911302Y-62192012D01*
X101260983Y-61958363D01*
X101558363Y-61660983D01*
X101792012Y-61311302D01*
X101952953Y-60922756D01*
X102035000Y-60510279D01*
X102035000Y-60089721D01*
X101952953Y-59677244D01*
X101792012Y-59288698D01*
X101558363Y-58939017D01*
X101260983Y-58641637D01*
X100911302Y-58407988D01*
X100522756Y-58247047D01*
X100110279Y-58165000D01*
X99689721Y-58165000D01*
X99277244Y-58247047D01*
X98888698Y-58407988D01*
X98539017Y-58641637D01*
X98241637Y-58939017D01*
X98007988Y-59288698D01*
X97847047Y-59677244D01*
X97765000Y-60089721D01*
X88323330Y-60089721D01*
X88727816Y-59685236D01*
X88757764Y-59660658D01*
X88855862Y-59541127D01*
X88928754Y-59404754D01*
X88963959Y-59288698D01*
X88973641Y-59256782D01*
X88975057Y-59242404D01*
X88985000Y-59141455D01*
X88985000Y-59141448D01*
X88988797Y-59102895D01*
X88985000Y-59064342D01*
X88985000Y-55478711D01*
X89003937Y-55459774D01*
X89117205Y-55290256D01*
X89195226Y-55101898D01*
X89235000Y-54901939D01*
X89235000Y-54698061D01*
X89195226Y-54498102D01*
X89117205Y-54309744D01*
X89003937Y-54140226D01*
X88859774Y-53996063D01*
X88690256Y-53882795D01*
X88501898Y-53804774D01*
X88301939Y-53765000D01*
X88098061Y-53765000D01*
X87898102Y-53804774D01*
X87709744Y-53882795D01*
X87540226Y-53996063D01*
X87521289Y-54015000D01*
X83286879Y-54015000D01*
X83287333Y-54013991D01*
X83185405Y-53788000D01*
X82128000Y-53788000D01*
X82128000Y-53808000D01*
X81632000Y-53808000D01*
X81632000Y-53788000D01*
X81612000Y-53788000D01*
X81612000Y-53720000D01*
X97761928Y-53720000D01*
X97761928Y-56720000D01*
X97774188Y-56844482D01*
X97810498Y-56964180D01*
X97869463Y-57074494D01*
X97948815Y-57171185D01*
X98045506Y-57250537D01*
X98155820Y-57309502D01*
X98275518Y-57345812D01*
X98400000Y-57358072D01*
X101400000Y-57358072D01*
X101524482Y-57345812D01*
X101644180Y-57309502D01*
X101754494Y-57250537D01*
X101851185Y-57171185D01*
X101930537Y-57074494D01*
X101989502Y-56964180D01*
X102025812Y-56844482D01*
X102038072Y-56720000D01*
X102038072Y-53720000D01*
X102025812Y-53595518D01*
X101989502Y-53475820D01*
X101930537Y-53365506D01*
X101851185Y-53268815D01*
X101754494Y-53189463D01*
X101644180Y-53130498D01*
X101524482Y-53094188D01*
X101400000Y-53081928D01*
X98400000Y-53081928D01*
X98275518Y-53094188D01*
X98155820Y-53130498D01*
X98045506Y-53189463D01*
X97948815Y-53268815D01*
X97869463Y-53365506D01*
X97810498Y-53475820D01*
X97774188Y-53595518D01*
X97761928Y-53720000D01*
X81612000Y-53720000D01*
X81612000Y-53292000D01*
X81632000Y-53292000D01*
X81632000Y-53272000D01*
X82128000Y-53272000D01*
X82128000Y-53292000D01*
X83185405Y-53292000D01*
X83260727Y-53124999D01*
X85968983Y-53124999D01*
X86010001Y-53129039D01*
X86051019Y-53124999D01*
X86051020Y-53124999D01*
X86173690Y-53112917D01*
X86331088Y-53065171D01*
X86476147Y-52987635D01*
X86603292Y-52883290D01*
X86629447Y-52851420D01*
X89045868Y-50435000D01*
X89111788Y-50435000D01*
X89331067Y-50391383D01*
X89537624Y-50305824D01*
X89723520Y-50181612D01*
X89881612Y-50023520D01*
X90005824Y-49837624D01*
X90091383Y-49631067D01*
X90135000Y-49411788D01*
X90135000Y-49188212D01*
X90091540Y-48969721D01*
X97765000Y-48969721D01*
X97765000Y-49390279D01*
X97847047Y-49802756D01*
X98007988Y-50191302D01*
X98241637Y-50540983D01*
X98539017Y-50838363D01*
X98888698Y-51072012D01*
X99277244Y-51232953D01*
X99689721Y-51315000D01*
X100110279Y-51315000D01*
X100522756Y-51232953D01*
X100911302Y-51072012D01*
X101260983Y-50838363D01*
X101558363Y-50540983D01*
X101792012Y-50191302D01*
X101952953Y-49802756D01*
X102035000Y-49390279D01*
X102035000Y-48969721D01*
X101952953Y-48557244D01*
X101792012Y-48168698D01*
X101558363Y-47819017D01*
X101260983Y-47521637D01*
X100911302Y-47287988D01*
X100522756Y-47127047D01*
X100110279Y-47045000D01*
X99689721Y-47045000D01*
X99277244Y-47127047D01*
X98888698Y-47287988D01*
X98539017Y-47521637D01*
X98241637Y-47819017D01*
X98007988Y-48168698D01*
X97847047Y-48557244D01*
X97765000Y-48969721D01*
X90091540Y-48969721D01*
X90091383Y-48968933D01*
X90005824Y-48762376D01*
X89881612Y-48576480D01*
X89723520Y-48418388D01*
X89537624Y-48294176D01*
X89331067Y-48208617D01*
X89111788Y-48165000D01*
X88888212Y-48165000D01*
X88668933Y-48208617D01*
X88462376Y-48294176D01*
X88276480Y-48418388D01*
X88118388Y-48576480D01*
X87994176Y-48762376D01*
X87908617Y-48968933D01*
X87865000Y-49188212D01*
X87865000Y-49254132D01*
X85664134Y-51454999D01*
X85308712Y-51454999D01*
X85403937Y-51359774D01*
X85517205Y-51190256D01*
X85595226Y-51001898D01*
X85635000Y-50801939D01*
X85635000Y-50675157D01*
X88427810Y-47882347D01*
X88457764Y-47857764D01*
X88555862Y-47738233D01*
X88628754Y-47601860D01*
X88651652Y-47526376D01*
X88673642Y-47453887D01*
X88681020Y-47378974D01*
X88685000Y-47338561D01*
X88685000Y-47338556D01*
X88688797Y-47300000D01*
X88685000Y-47261444D01*
X88685000Y-37778711D01*
X88703937Y-37759774D01*
X88817205Y-37590256D01*
X88895226Y-37401898D01*
X88935000Y-37201939D01*
X88935000Y-36998061D01*
X88895226Y-36798102D01*
X88817205Y-36609744D01*
X88703937Y-36440226D01*
X88559774Y-36296063D01*
X88390256Y-36182795D01*
X88201898Y-36104774D01*
X88001939Y-36065000D01*
X87798061Y-36065000D01*
X87598102Y-36104774D01*
X87409744Y-36182795D01*
X87240226Y-36296063D01*
X87096063Y-36440226D01*
X86982795Y-36609744D01*
X86904774Y-36798102D01*
X86865000Y-36998061D01*
X86865000Y-37201939D01*
X86904774Y-37401898D01*
X86982795Y-37590256D01*
X87096063Y-37759774D01*
X87115000Y-37778711D01*
X87115001Y-46974842D01*
X84406663Y-49683180D01*
X84298102Y-49704774D01*
X84109744Y-49782795D01*
X83940226Y-49896063D01*
X83796063Y-50040226D01*
X83682795Y-50209744D01*
X83604774Y-50398102D01*
X83565000Y-50598061D01*
X83565000Y-50801939D01*
X83604774Y-51001898D01*
X83682795Y-51190256D01*
X83796063Y-51359774D01*
X83891288Y-51454999D01*
X83298885Y-51454999D01*
X83307932Y-51433158D01*
X83365000Y-51146260D01*
X83365000Y-50853740D01*
X83307932Y-50566842D01*
X83195990Y-50296589D01*
X83033475Y-50053368D01*
X82826632Y-49846525D01*
X82583411Y-49684010D01*
X82313158Y-49572068D01*
X82026260Y-49515000D01*
X81733740Y-49515000D01*
X81543082Y-49552925D01*
X77512348Y-45522191D01*
X77487765Y-45492237D01*
X77368234Y-45394139D01*
X77231861Y-45321247D01*
X77099372Y-45281057D01*
X77135000Y-45101939D01*
X77135000Y-44898061D01*
X77095226Y-44698102D01*
X77017205Y-44509744D01*
X76903937Y-44340226D01*
X76885000Y-44321289D01*
X76885000Y-42735000D01*
X76901939Y-42735000D01*
X77101898Y-42695226D01*
X77290256Y-42617205D01*
X77459774Y-42503937D01*
X77603937Y-42359774D01*
X77717205Y-42190256D01*
X77795226Y-42001898D01*
X77835000Y-41801939D01*
X77835000Y-41598061D01*
X77795226Y-41398102D01*
X77717205Y-41209744D01*
X77603937Y-41040226D01*
X77459774Y-40896063D01*
X77290256Y-40782795D01*
X77101898Y-40704774D01*
X76901939Y-40665000D01*
X76698061Y-40665000D01*
X76498102Y-40704774D01*
X76309744Y-40782795D01*
X76140226Y-40896063D01*
X75996063Y-41040226D01*
X75882795Y-41209744D01*
X75804774Y-41398102D01*
X75765000Y-41598061D01*
X75765000Y-41624843D01*
X75572185Y-41817658D01*
X75542237Y-41842236D01*
X75517659Y-41872184D01*
X75517655Y-41872188D01*
X75496388Y-41898102D01*
X75444139Y-41961767D01*
X75444053Y-41961928D01*
X75371246Y-42098141D01*
X75326359Y-42246114D01*
X75311203Y-42400000D01*
X75315001Y-42438563D01*
X75315000Y-44321289D01*
X75296063Y-44340226D01*
X75182795Y-44509744D01*
X75104774Y-44698102D01*
X75065000Y-44898061D01*
X75065000Y-45101939D01*
X75097435Y-45265001D01*
X74185161Y-45265001D01*
X71706351Y-42786192D01*
X71681768Y-42756238D01*
X71562237Y-42658140D01*
X71425864Y-42585248D01*
X71277891Y-42540361D01*
X71162565Y-42529002D01*
X71162557Y-42529002D01*
X71124004Y-42525205D01*
X71085451Y-42529002D01*
X70912316Y-42529002D01*
X70815704Y-42432390D01*
X70629808Y-42308178D01*
X70423251Y-42222619D01*
X70203972Y-42179002D01*
X69980396Y-42179002D01*
X69761117Y-42222619D01*
X69554560Y-42308178D01*
X69368664Y-42432390D01*
X69210572Y-42590482D01*
X69086360Y-42776378D01*
X69000801Y-42982935D01*
X68957184Y-43202214D01*
X68957184Y-43425790D01*
X69000801Y-43645069D01*
X69086360Y-43851626D01*
X69210572Y-44037522D01*
X69368664Y-44195614D01*
X69554560Y-44319826D01*
X69761117Y-44405385D01*
X69980396Y-44449002D01*
X70203972Y-44449002D01*
X70423251Y-44405385D01*
X70629808Y-44319826D01*
X70815704Y-44195614D01*
X70855581Y-44155737D01*
X73277661Y-46577817D01*
X73302239Y-46607765D01*
X73332187Y-46632343D01*
X73332190Y-46632346D01*
X73346560Y-46644139D01*
X73421770Y-46705863D01*
X73558143Y-46778755D01*
X73706116Y-46823643D01*
X73781029Y-46831021D01*
X73821442Y-46835001D01*
X73821447Y-46835001D01*
X73860003Y-46838798D01*
X73898559Y-46835001D01*
X76604844Y-46835001D01*
X79284843Y-49515000D01*
X79193740Y-49515000D01*
X78906842Y-49572068D01*
X78636589Y-49684010D01*
X78393368Y-49846525D01*
X78261513Y-49978380D01*
X78239502Y-49905820D01*
X78180537Y-49795506D01*
X78101185Y-49698815D01*
X78004494Y-49619463D01*
X77894180Y-49560498D01*
X77774482Y-49524188D01*
X77650000Y-49511928D01*
X75950000Y-49511928D01*
X75825518Y-49524188D01*
X75705820Y-49560498D01*
X75595506Y-49619463D01*
X75498815Y-49698815D01*
X75419463Y-49795506D01*
X75360498Y-49905820D01*
X75324188Y-50025518D01*
X75311928Y-50150000D01*
X75311928Y-50751062D01*
X73210047Y-48649182D01*
X73241824Y-48601624D01*
X73327383Y-48395067D01*
X73371000Y-48175788D01*
X73371000Y-47952212D01*
X73327383Y-47732933D01*
X73241824Y-47526376D01*
X73117612Y-47340480D01*
X72959520Y-47182388D01*
X72773624Y-47058176D01*
X72567067Y-46972617D01*
X72347788Y-46929000D01*
X72124212Y-46929000D01*
X71904933Y-46972617D01*
X71698376Y-47058176D01*
X71512480Y-47182388D01*
X71354388Y-47340480D01*
X71230176Y-47526376D01*
X71144617Y-47732933D01*
X71101000Y-47952212D01*
X71101000Y-48175788D01*
X71144617Y-48395067D01*
X71230176Y-48601624D01*
X71354388Y-48787520D01*
X71399283Y-48832415D01*
X71396960Y-48856002D01*
X71401000Y-48897020D01*
X71413082Y-49019690D01*
X71460828Y-49177088D01*
X71538364Y-49322147D01*
X71642709Y-49449293D01*
X71674579Y-49475448D01*
X75050556Y-52851426D01*
X75076706Y-52883290D01*
X75120753Y-52919438D01*
X75203851Y-52987635D01*
X75348910Y-53065171D01*
X75384817Y-53076063D01*
X75372068Y-53106842D01*
X75315000Y-53393740D01*
X75315000Y-53686260D01*
X75372068Y-53973158D01*
X75389399Y-54015000D01*
X74025158Y-54015000D01*
X71835000Y-51824843D01*
X71835000Y-51698061D01*
X71795226Y-51498102D01*
X71717205Y-51309744D01*
X71603937Y-51140226D01*
X71459774Y-50996063D01*
X71290256Y-50882795D01*
X71101898Y-50804774D01*
X70901939Y-50765000D01*
X70698061Y-50765000D01*
X70498102Y-50804774D01*
X70309744Y-50882795D01*
X70140226Y-50996063D01*
X69996063Y-51140226D01*
X69882795Y-51309744D01*
X69804774Y-51498102D01*
X69765000Y-51698061D01*
X69765000Y-51901939D01*
X69804774Y-52101898D01*
X69882795Y-52290256D01*
X69996063Y-52459774D01*
X70140226Y-52603937D01*
X70309744Y-52717205D01*
X70498102Y-52795226D01*
X70606663Y-52816820D01*
X73117658Y-55327816D01*
X73142236Y-55357764D01*
X73172184Y-55382342D01*
X73172187Y-55382345D01*
X73201559Y-55406450D01*
X73261767Y-55455862D01*
X73398140Y-55528754D01*
X73511672Y-55563194D01*
X73546112Y-55573641D01*
X73560490Y-55575057D01*
X73661439Y-55585000D01*
X73661446Y-55585000D01*
X73699999Y-55588797D01*
X73738552Y-55585000D01*
X87415000Y-55585000D01*
X87415001Y-58777735D01*
X79992190Y-66200547D01*
X79962236Y-66225130D01*
X79864138Y-66344662D01*
X79791246Y-66481035D01*
X79746359Y-66629008D01*
X79735000Y-66744334D01*
X79735000Y-66744341D01*
X79731203Y-66782894D01*
X79735000Y-66821447D01*
X79735000Y-67938526D01*
X79573368Y-68046525D01*
X79366525Y-68253368D01*
X79250000Y-68427760D01*
X79133475Y-68253368D01*
X78970188Y-68090081D01*
X79143277Y-67974427D01*
X79362627Y-67755077D01*
X79534970Y-67497148D01*
X79653682Y-67210552D01*
X79714200Y-66906304D01*
X79714200Y-66596096D01*
X79653682Y-66291848D01*
X79534970Y-66005252D01*
X79362627Y-65747323D01*
X79143277Y-65527973D01*
X78885348Y-65355630D01*
X78598752Y-65236918D01*
X78294504Y-65176400D01*
X77984296Y-65176400D01*
X77680048Y-65236918D01*
X77393452Y-65355630D01*
X77135523Y-65527973D01*
X76916173Y-65747323D01*
X76743830Y-66005252D01*
X76650000Y-66231778D01*
X76556170Y-66005252D01*
X76383827Y-65747323D01*
X76164477Y-65527973D01*
X75906548Y-65355630D01*
X75619952Y-65236918D01*
X75315704Y-65176400D01*
X75005496Y-65176400D01*
X74701248Y-65236918D01*
X74414652Y-65355630D01*
X74156723Y-65527973D01*
X73937373Y-65747323D01*
X73765030Y-66005252D01*
X73646318Y-66291848D01*
X73585800Y-66596096D01*
X73585800Y-66906304D01*
X73646318Y-67210552D01*
X73765030Y-67497148D01*
X73937373Y-67755077D01*
X74156723Y-67974427D01*
X74401746Y-68138147D01*
X74286525Y-68253368D01*
X74170000Y-68427760D01*
X74053475Y-68253368D01*
X73846632Y-68046525D01*
X73603411Y-67884010D01*
X73333158Y-67772068D01*
X73046260Y-67715000D01*
X72753740Y-67715000D01*
X72466842Y-67772068D01*
X72196589Y-67884010D01*
X71953368Y-68046525D01*
X71746525Y-68253368D01*
X71630000Y-68427760D01*
X71513475Y-68253368D01*
X71375771Y-68115664D01*
X71455333Y-67917858D01*
X70639400Y-67101925D01*
X69979789Y-67761536D01*
X69926842Y-67772068D01*
X69656589Y-67884010D01*
X69413368Y-68046525D01*
X69206525Y-68253368D01*
X69090000Y-68427760D01*
X68973475Y-68253368D01*
X68766632Y-68046525D01*
X68523411Y-67884010D01*
X68253158Y-67772068D01*
X67966260Y-67715000D01*
X67673740Y-67715000D01*
X67386842Y-67772068D01*
X67116589Y-67884010D01*
X66873368Y-68046525D01*
X66666525Y-68253368D01*
X66550000Y-68427760D01*
X66433475Y-68253368D01*
X66226632Y-68046525D01*
X65983411Y-67884010D01*
X65713158Y-67772068D01*
X65426260Y-67715000D01*
X65133740Y-67715000D01*
X64846842Y-67772068D01*
X64576589Y-67884010D01*
X64333368Y-68046525D01*
X64126525Y-68253368D01*
X64010000Y-68427760D01*
X63893475Y-68253368D01*
X63686632Y-68046525D01*
X63443411Y-67884010D01*
X63173158Y-67772068D01*
X62886260Y-67715000D01*
X62593740Y-67715000D01*
X62306842Y-67772068D01*
X62036589Y-67884010D01*
X61793368Y-68046525D01*
X61586525Y-68253368D01*
X61470000Y-68427760D01*
X61353475Y-68253368D01*
X61146632Y-68046525D01*
X60903411Y-67884010D01*
X60633158Y-67772068D01*
X60346260Y-67715000D01*
X60053740Y-67715000D01*
X59766842Y-67772068D01*
X59496589Y-67884010D01*
X59253368Y-68046525D01*
X59046525Y-68253368D01*
X58927307Y-68431790D01*
X58778817Y-68223527D01*
X58566819Y-68024019D01*
X58319972Y-67869704D01*
X58133989Y-67792677D01*
X57908000Y-67897143D01*
X57908000Y-68952000D01*
X57928000Y-68952000D01*
X57928000Y-69448000D01*
X57908000Y-69448000D01*
X57908000Y-69468000D01*
X57412000Y-69468000D01*
X57412000Y-69448000D01*
X57392000Y-69448000D01*
X57392000Y-68952000D01*
X57412000Y-68952000D01*
X57412000Y-67897143D01*
X57186011Y-67792677D01*
X57000028Y-67869704D01*
X56753181Y-68024019D01*
X56541183Y-68223527D01*
X56392693Y-68431790D01*
X56273475Y-68253368D01*
X56066632Y-68046525D01*
X55823411Y-67884010D01*
X55553158Y-67772068D01*
X55266260Y-67715000D01*
X54973740Y-67715000D01*
X54686842Y-67772068D01*
X54416589Y-67884010D01*
X54173368Y-68046525D01*
X53966525Y-68253368D01*
X53850000Y-68427760D01*
X53733475Y-68253368D01*
X53526632Y-68046525D01*
X53283411Y-67884010D01*
X53013158Y-67772068D01*
X52726260Y-67715000D01*
X52433740Y-67715000D01*
X52146842Y-67772068D01*
X51876589Y-67884010D01*
X51633368Y-68046525D01*
X51426525Y-68253368D01*
X51310000Y-68427760D01*
X51193475Y-68253368D01*
X50986632Y-68046525D01*
X50743411Y-67884010D01*
X50473158Y-67772068D01*
X50186260Y-67715000D01*
X49893740Y-67715000D01*
X49606842Y-67772068D01*
X49336589Y-67884010D01*
X49093368Y-68046525D01*
X48886525Y-68253368D01*
X48724010Y-68496589D01*
X48612068Y-68766842D01*
X48555000Y-69053740D01*
X48555000Y-69346260D01*
X48612068Y-69633158D01*
X48724010Y-69903411D01*
X48886525Y-70146632D01*
X49079893Y-70340000D01*
X33432278Y-70340000D01*
X32868414Y-70284713D01*
X32357073Y-70130330D01*
X31885460Y-69879569D01*
X31471530Y-69541976D01*
X31131060Y-69130418D01*
X30877013Y-68660567D01*
X30719063Y-68150314D01*
X30660000Y-67588362D01*
X30660000Y-67379872D01*
X31165000Y-67379872D01*
X31165000Y-67820128D01*
X31250890Y-68251925D01*
X31419369Y-68658669D01*
X31663962Y-69024729D01*
X31975271Y-69336038D01*
X32341331Y-69580631D01*
X32748075Y-69749110D01*
X33179872Y-69835000D01*
X33620128Y-69835000D01*
X34051925Y-69749110D01*
X34458669Y-69580631D01*
X34824729Y-69336038D01*
X35136038Y-69024729D01*
X35380631Y-68658669D01*
X35549110Y-68251925D01*
X35583926Y-68076890D01*
X37950048Y-68076890D01*
X37950048Y-68323110D01*
X37998083Y-68564598D01*
X38092307Y-68792074D01*
X38229099Y-68996798D01*
X38403202Y-69170901D01*
X38607926Y-69307693D01*
X38835402Y-69401917D01*
X39076890Y-69449952D01*
X39323110Y-69449952D01*
X39564598Y-69401917D01*
X39792074Y-69307693D01*
X39996798Y-69170901D01*
X40170901Y-68996798D01*
X40307693Y-68792074D01*
X40401917Y-68564598D01*
X40449952Y-68323110D01*
X40449952Y-68076890D01*
X40401917Y-67835402D01*
X40307693Y-67607926D01*
X40170901Y-67403202D01*
X39996798Y-67229099D01*
X39792074Y-67092307D01*
X39564598Y-66998083D01*
X39323110Y-66950048D01*
X39076890Y-66950048D01*
X38835402Y-66998083D01*
X38607926Y-67092307D01*
X38403202Y-67229099D01*
X38229099Y-67403202D01*
X38092307Y-67607926D01*
X37998083Y-67835402D01*
X37950048Y-68076890D01*
X35583926Y-68076890D01*
X35635000Y-67820128D01*
X35635000Y-67379872D01*
X35549110Y-66948075D01*
X35416326Y-66627504D01*
X69061822Y-66627504D01*
X69068004Y-66937651D01*
X69134573Y-67240633D01*
X69229244Y-67469193D01*
X69472742Y-67567133D01*
X70288675Y-66751200D01*
X70990125Y-66751200D01*
X71806058Y-67567133D01*
X72049556Y-67469193D01*
X72162533Y-67180289D01*
X72216978Y-66874896D01*
X72210796Y-66564749D01*
X72144227Y-66261767D01*
X72049556Y-66033207D01*
X71806058Y-65935267D01*
X70990125Y-66751200D01*
X70288675Y-66751200D01*
X69472742Y-65935267D01*
X69229244Y-66033207D01*
X69116267Y-66322111D01*
X69061822Y-66627504D01*
X35416326Y-66627504D01*
X35380631Y-66541331D01*
X35136038Y-66175271D01*
X34824729Y-65863962D01*
X34458669Y-65619369D01*
X34374590Y-65584542D01*
X69823467Y-65584542D01*
X70639400Y-66400475D01*
X71455333Y-65584542D01*
X71357393Y-65341044D01*
X71068489Y-65228067D01*
X70763096Y-65173622D01*
X70452949Y-65179804D01*
X70149967Y-65246373D01*
X69921407Y-65341044D01*
X69823467Y-65584542D01*
X34374590Y-65584542D01*
X34051925Y-65450890D01*
X33620128Y-65365000D01*
X33179872Y-65365000D01*
X32748075Y-65450890D01*
X32341331Y-65619369D01*
X31975271Y-65863962D01*
X31663962Y-66175271D01*
X31419369Y-66541331D01*
X31250890Y-66948075D01*
X31165000Y-67379872D01*
X30660000Y-67379872D01*
X30660000Y-62238967D01*
X36365000Y-62238967D01*
X36365000Y-62561033D01*
X36427832Y-62876912D01*
X36551082Y-63174463D01*
X36730013Y-63442252D01*
X36957748Y-63669987D01*
X37225537Y-63848918D01*
X37523088Y-63972168D01*
X37838967Y-64035000D01*
X38161033Y-64035000D01*
X38476912Y-63972168D01*
X38774463Y-63848918D01*
X39042252Y-63669987D01*
X39269987Y-63442252D01*
X39448918Y-63174463D01*
X39572168Y-62876912D01*
X39635000Y-62561033D01*
X39635000Y-62238967D01*
X39572168Y-61923088D01*
X39448918Y-61625537D01*
X39308548Y-61415458D01*
X69823467Y-61415458D01*
X69921407Y-61658956D01*
X70210311Y-61771933D01*
X70515704Y-61826378D01*
X70825851Y-61820196D01*
X71128833Y-61753627D01*
X71357393Y-61658956D01*
X71455333Y-61415458D01*
X70639400Y-60599525D01*
X69823467Y-61415458D01*
X39308548Y-61415458D01*
X39269987Y-61357748D01*
X39042252Y-61130013D01*
X38774463Y-60951082D01*
X38476912Y-60827832D01*
X38161033Y-60765000D01*
X37838967Y-60765000D01*
X37523088Y-60827832D01*
X37225537Y-60951082D01*
X36957748Y-61130013D01*
X36730013Y-61357748D01*
X36551082Y-61625537D01*
X36427832Y-61923088D01*
X36365000Y-62238967D01*
X30660000Y-62238967D01*
X30660000Y-60125104D01*
X69061822Y-60125104D01*
X69068004Y-60435251D01*
X69134573Y-60738233D01*
X69229244Y-60966793D01*
X69472742Y-61064733D01*
X70288675Y-60248800D01*
X70990125Y-60248800D01*
X71806058Y-61064733D01*
X72049556Y-60966793D01*
X72162533Y-60677889D01*
X72216978Y-60372496D01*
X72211421Y-60093696D01*
X73585800Y-60093696D01*
X73585800Y-60403904D01*
X73646318Y-60708152D01*
X73765030Y-60994748D01*
X73937373Y-61252677D01*
X74156723Y-61472027D01*
X74414652Y-61644370D01*
X74701248Y-61763082D01*
X75005496Y-61823600D01*
X75315704Y-61823600D01*
X75619952Y-61763082D01*
X75906548Y-61644370D01*
X76164477Y-61472027D01*
X76383827Y-61252677D01*
X76556170Y-60994748D01*
X76650000Y-60768222D01*
X76743830Y-60994748D01*
X76916173Y-61252677D01*
X77135523Y-61472027D01*
X77393452Y-61644370D01*
X77680048Y-61763082D01*
X77984296Y-61823600D01*
X78294504Y-61823600D01*
X78598752Y-61763082D01*
X78885348Y-61644370D01*
X79143277Y-61472027D01*
X79199846Y-61415458D01*
X81844667Y-61415458D01*
X81942607Y-61658956D01*
X82231511Y-61771933D01*
X82536904Y-61826378D01*
X82847051Y-61820196D01*
X83150033Y-61753627D01*
X83378593Y-61658956D01*
X83476533Y-61415458D01*
X82660600Y-60599525D01*
X81844667Y-61415458D01*
X79199846Y-61415458D01*
X79362627Y-61252677D01*
X79534970Y-60994748D01*
X79653682Y-60708152D01*
X79714200Y-60403904D01*
X79714200Y-60093696D01*
X79667125Y-59857034D01*
X79773330Y-59901025D01*
X80155282Y-59977000D01*
X80544718Y-59977000D01*
X80926670Y-59901025D01*
X81140267Y-59812550D01*
X81137467Y-59819711D01*
X81083022Y-60125104D01*
X81089204Y-60435251D01*
X81155773Y-60738233D01*
X81250444Y-60966793D01*
X81493942Y-61064733D01*
X82309875Y-60248800D01*
X83011325Y-60248800D01*
X83827258Y-61064733D01*
X84070756Y-60966793D01*
X84183733Y-60677889D01*
X84238178Y-60372496D01*
X84231996Y-60062349D01*
X84165427Y-59759367D01*
X84070756Y-59530807D01*
X83827258Y-59432867D01*
X83011325Y-60248800D01*
X82309875Y-60248800D01*
X82295733Y-60234658D01*
X82646458Y-59883933D01*
X82660600Y-59898075D01*
X83476533Y-59082142D01*
X83378593Y-58838644D01*
X83089689Y-58725667D01*
X82784296Y-58671222D01*
X82474149Y-58677404D01*
X82182783Y-58741421D01*
X82251025Y-58576670D01*
X82327000Y-58194718D01*
X82327000Y-57805282D01*
X82251025Y-57423330D01*
X82101995Y-57063539D01*
X81885636Y-56739736D01*
X81610264Y-56464364D01*
X81286461Y-56248005D01*
X80926670Y-56098975D01*
X80544718Y-56023000D01*
X80155282Y-56023000D01*
X79773330Y-56098975D01*
X79413539Y-56248005D01*
X79089736Y-56464364D01*
X78814364Y-56739736D01*
X78598005Y-57063539D01*
X78448975Y-57423330D01*
X78373000Y-57805282D01*
X78373000Y-58194718D01*
X78448975Y-58576670D01*
X78506780Y-58716224D01*
X78294504Y-58674000D01*
X77984296Y-58674000D01*
X77680048Y-58734518D01*
X77393452Y-58853230D01*
X77135523Y-59025573D01*
X76916173Y-59244923D01*
X76743830Y-59502852D01*
X76650000Y-59729378D01*
X76556170Y-59502852D01*
X76383827Y-59244923D01*
X76164477Y-59025573D01*
X75906548Y-58853230D01*
X75619952Y-58734518D01*
X75315704Y-58674000D01*
X75005496Y-58674000D01*
X74701248Y-58734518D01*
X74414652Y-58853230D01*
X74156723Y-59025573D01*
X73937373Y-59244923D01*
X73765030Y-59502852D01*
X73646318Y-59789448D01*
X73585800Y-60093696D01*
X72211421Y-60093696D01*
X72210796Y-60062349D01*
X72144227Y-59759367D01*
X72049556Y-59530807D01*
X71806058Y-59432867D01*
X70990125Y-60248800D01*
X70288675Y-60248800D01*
X69472742Y-59432867D01*
X69229244Y-59530807D01*
X69116267Y-59819711D01*
X69061822Y-60125104D01*
X30660000Y-60125104D01*
X30660000Y-57805282D01*
X55073000Y-57805282D01*
X55073000Y-58194718D01*
X55148975Y-58576670D01*
X55298005Y-58936461D01*
X55514364Y-59260264D01*
X55789736Y-59535636D01*
X56113539Y-59751995D01*
X56473330Y-59901025D01*
X56855282Y-59977000D01*
X57244718Y-59977000D01*
X57626670Y-59901025D01*
X57986461Y-59751995D01*
X58310264Y-59535636D01*
X58585636Y-59260264D01*
X58704653Y-59082142D01*
X69823467Y-59082142D01*
X70639400Y-59898075D01*
X71455333Y-59082142D01*
X71357393Y-58838644D01*
X71068489Y-58725667D01*
X70763096Y-58671222D01*
X70452949Y-58677404D01*
X70149967Y-58743973D01*
X69921407Y-58838644D01*
X69823467Y-59082142D01*
X58704653Y-59082142D01*
X58801995Y-58936461D01*
X58951025Y-58576670D01*
X59027000Y-58194718D01*
X59027000Y-57805282D01*
X58951025Y-57423330D01*
X58801995Y-57063539D01*
X58585636Y-56739736D01*
X58310264Y-56464364D01*
X57986461Y-56248005D01*
X57626670Y-56098975D01*
X57244718Y-56023000D01*
X56855282Y-56023000D01*
X56473330Y-56098975D01*
X56113539Y-56248005D01*
X55789736Y-56464364D01*
X55514364Y-56739736D01*
X55298005Y-57063539D01*
X55148975Y-57423330D01*
X55073000Y-57805282D01*
X30660000Y-57805282D01*
X30660000Y-53800000D01*
X36361928Y-53800000D01*
X36361928Y-55800000D01*
X36374188Y-55924482D01*
X36410498Y-56044180D01*
X36469463Y-56154494D01*
X36548815Y-56251185D01*
X36645506Y-56330537D01*
X36755820Y-56389502D01*
X36875518Y-56425812D01*
X37000000Y-56438072D01*
X39000000Y-56438072D01*
X39124482Y-56425812D01*
X39244180Y-56389502D01*
X39354494Y-56330537D01*
X39451185Y-56251185D01*
X39530537Y-56154494D01*
X39589502Y-56044180D01*
X39625812Y-55924482D01*
X39638072Y-55800000D01*
X39638072Y-53800000D01*
X39625812Y-53675518D01*
X39589502Y-53555820D01*
X39530537Y-53445506D01*
X39451185Y-53348815D01*
X39354494Y-53269463D01*
X39244180Y-53210498D01*
X39124482Y-53174188D01*
X39000000Y-53161928D01*
X37000000Y-53161928D01*
X36875518Y-53174188D01*
X36755820Y-53210498D01*
X36645506Y-53269463D01*
X36548815Y-53348815D01*
X36469463Y-53445506D01*
X36410498Y-53555820D01*
X36374188Y-53675518D01*
X36361928Y-53800000D01*
X30660000Y-53800000D01*
X30660000Y-48740475D01*
X30665000Y-48740475D01*
X30665000Y-49259525D01*
X30766261Y-49768601D01*
X30964893Y-50248141D01*
X31253262Y-50679715D01*
X31620285Y-51046738D01*
X32051859Y-51335107D01*
X32531399Y-51533739D01*
X33040475Y-51635000D01*
X33559525Y-51635000D01*
X34068601Y-51533739D01*
X34548141Y-51335107D01*
X34979715Y-51046738D01*
X35346738Y-50679715D01*
X35635107Y-50248141D01*
X35833739Y-49768601D01*
X35935000Y-49259525D01*
X35935000Y-48740475D01*
X35833739Y-48231399D01*
X35635107Y-47751859D01*
X35525762Y-47588212D01*
X44265000Y-47588212D01*
X44265000Y-47811788D01*
X44308617Y-48031067D01*
X44394176Y-48237624D01*
X44518388Y-48423520D01*
X44676480Y-48581612D01*
X44862376Y-48705824D01*
X45068933Y-48791383D01*
X45288212Y-48835000D01*
X45511788Y-48835000D01*
X45731067Y-48791383D01*
X45937624Y-48705824D01*
X46123520Y-48581612D01*
X46281612Y-48423520D01*
X46405824Y-48237624D01*
X46491383Y-48031067D01*
X46535000Y-47811788D01*
X46535000Y-47588212D01*
X46491383Y-47368933D01*
X46410000Y-47172458D01*
X46410000Y-33518355D01*
X48718355Y-31210000D01*
X53238694Y-31210000D01*
X53076480Y-31318388D01*
X52918388Y-31476480D01*
X52794176Y-31662376D01*
X52708617Y-31868933D01*
X52665000Y-32088212D01*
X52665000Y-32311788D01*
X52677880Y-32376543D01*
X48879778Y-36174646D01*
X48723520Y-36018388D01*
X48537624Y-35894176D01*
X48331067Y-35808617D01*
X48111788Y-35765000D01*
X47888212Y-35765000D01*
X47668933Y-35808617D01*
X47462376Y-35894176D01*
X47276480Y-36018388D01*
X47118388Y-36176480D01*
X46994176Y-36362376D01*
X46908617Y-36568933D01*
X46865000Y-36788212D01*
X46865000Y-37011788D01*
X46908617Y-37231067D01*
X46994176Y-37437624D01*
X47115001Y-37618451D01*
X47115000Y-42481550D01*
X46994176Y-42662376D01*
X46908617Y-42868933D01*
X46865000Y-43088212D01*
X46865000Y-43311788D01*
X46908617Y-43531067D01*
X46994176Y-43737624D01*
X47118388Y-43923520D01*
X47276480Y-44081612D01*
X47462376Y-44205824D01*
X47668933Y-44291383D01*
X47888212Y-44335000D01*
X48065001Y-44335000D01*
X48065001Y-44383420D01*
X47782232Y-44666189D01*
X47568933Y-44708617D01*
X47362376Y-44794176D01*
X47176480Y-44918388D01*
X47018388Y-45076480D01*
X46894176Y-45262376D01*
X46808617Y-45468933D01*
X46765000Y-45688212D01*
X46765000Y-45911788D01*
X46808617Y-46131067D01*
X46894176Y-46337624D01*
X47018388Y-46523520D01*
X47176480Y-46681612D01*
X47362376Y-46805824D01*
X47568933Y-46891383D01*
X47788212Y-46935000D01*
X48011788Y-46935000D01*
X48231067Y-46891383D01*
X48437624Y-46805824D01*
X48623520Y-46681612D01*
X48781612Y-46523520D01*
X48905824Y-46337624D01*
X48991383Y-46131067D01*
X49033811Y-45917768D01*
X49545051Y-45406528D01*
X49578818Y-45378816D01*
X49638626Y-45305941D01*
X49689412Y-45244058D01*
X49771590Y-45090313D01*
X49822196Y-44923489D01*
X49825358Y-44891383D01*
X49835001Y-44793476D01*
X49835001Y-44793468D01*
X49839282Y-44749999D01*
X49835001Y-44706530D01*
X49835001Y-44127258D01*
X52432867Y-44127258D01*
X52530807Y-44370756D01*
X52819711Y-44483733D01*
X53125104Y-44538178D01*
X53435251Y-44531996D01*
X53738233Y-44465427D01*
X53966793Y-44370756D01*
X54064733Y-44127258D01*
X53248800Y-43311325D01*
X52432867Y-44127258D01*
X49835001Y-44127258D01*
X49835001Y-42836904D01*
X51671222Y-42836904D01*
X51677404Y-43147051D01*
X51743973Y-43450033D01*
X51838644Y-43678593D01*
X52082142Y-43776533D01*
X52898075Y-42960600D01*
X53599525Y-42960600D01*
X54415458Y-43776533D01*
X54658956Y-43678593D01*
X54771933Y-43389689D01*
X54826378Y-43084296D01*
X54821447Y-42836904D01*
X58173622Y-42836904D01*
X58179804Y-43147051D01*
X58246373Y-43450033D01*
X58341044Y-43678593D01*
X58584542Y-43776533D01*
X59400475Y-42960600D01*
X58584542Y-42144667D01*
X58341044Y-42242607D01*
X58228067Y-42531511D01*
X58173622Y-42836904D01*
X54821447Y-42836904D01*
X54820196Y-42774149D01*
X54753627Y-42471167D01*
X54658956Y-42242607D01*
X54415458Y-42144667D01*
X53599525Y-42960600D01*
X52898075Y-42960600D01*
X52082142Y-42144667D01*
X51838644Y-42242607D01*
X51725667Y-42531511D01*
X51671222Y-42836904D01*
X49835001Y-42836904D01*
X49835001Y-42787468D01*
X49839282Y-42743999D01*
X49835001Y-42700530D01*
X49835001Y-42700522D01*
X49822196Y-42570509D01*
X49771590Y-42403686D01*
X49689412Y-42249940D01*
X49585010Y-42122727D01*
X49585010Y-41793942D01*
X52432867Y-41793942D01*
X53248800Y-42609875D01*
X54064733Y-41793942D01*
X58935267Y-41793942D01*
X59751200Y-42609875D01*
X60567133Y-41793942D01*
X60469193Y-41550444D01*
X60180289Y-41437467D01*
X59874896Y-41383022D01*
X59564749Y-41389204D01*
X59261767Y-41455773D01*
X59033207Y-41550444D01*
X58935267Y-41793942D01*
X54064733Y-41793942D01*
X53966793Y-41550444D01*
X53677889Y-41437467D01*
X53372496Y-41383022D01*
X53062349Y-41389204D01*
X52759367Y-41455773D01*
X52530807Y-41550444D01*
X52432867Y-41793942D01*
X49585010Y-41793942D01*
X49585010Y-38284296D01*
X51674000Y-38284296D01*
X51674000Y-38594504D01*
X51734518Y-38898752D01*
X51853230Y-39185348D01*
X52025573Y-39443277D01*
X52244923Y-39662627D01*
X52502852Y-39834970D01*
X52789448Y-39953682D01*
X53093696Y-40014200D01*
X53403904Y-40014200D01*
X53708152Y-39953682D01*
X53994748Y-39834970D01*
X54252677Y-39662627D01*
X54472027Y-39443277D01*
X54644370Y-39185348D01*
X54763082Y-38898752D01*
X54823600Y-38594504D01*
X54823600Y-38284296D01*
X58176400Y-38284296D01*
X58176400Y-38594504D01*
X58236918Y-38898752D01*
X58355630Y-39185348D01*
X58527973Y-39443277D01*
X58747323Y-39662627D01*
X59005252Y-39834970D01*
X59291848Y-39953682D01*
X59596096Y-40014200D01*
X59906304Y-40014200D01*
X60210552Y-39953682D01*
X60497148Y-39834970D01*
X60755077Y-39662627D01*
X60974427Y-39443277D01*
X61146770Y-39185348D01*
X61265482Y-38898752D01*
X61326000Y-38594504D01*
X61326000Y-38284296D01*
X61265482Y-37980048D01*
X61146770Y-37693452D01*
X60974427Y-37435523D01*
X60755077Y-37216173D01*
X60497148Y-37043830D01*
X60210552Y-36925118D01*
X59906304Y-36864600D01*
X59596096Y-36864600D01*
X59291848Y-36925118D01*
X59005252Y-37043830D01*
X58747323Y-37216173D01*
X58527973Y-37435523D01*
X58355630Y-37693452D01*
X58236918Y-37980048D01*
X58176400Y-38284296D01*
X54823600Y-38284296D01*
X54763082Y-37980048D01*
X54644370Y-37693452D01*
X54472027Y-37435523D01*
X54252677Y-37216173D01*
X53994748Y-37043830D01*
X53708152Y-36925118D01*
X53403904Y-36864600D01*
X53093696Y-36864600D01*
X52789448Y-36925118D01*
X52502852Y-37043830D01*
X52244923Y-37216173D01*
X52025573Y-37435523D01*
X51853230Y-37693452D01*
X51734518Y-37980048D01*
X51674000Y-38284296D01*
X49585010Y-38284296D01*
X49585010Y-37972570D01*
X53552298Y-34005282D01*
X55073000Y-34005282D01*
X55073000Y-34394718D01*
X55148975Y-34776670D01*
X55298005Y-35136461D01*
X55514364Y-35460264D01*
X55789736Y-35735636D01*
X56113539Y-35951995D01*
X56473330Y-36101025D01*
X56855282Y-36177000D01*
X57244718Y-36177000D01*
X57626670Y-36101025D01*
X57986461Y-35951995D01*
X58310264Y-35735636D01*
X58585636Y-35460264D01*
X58801995Y-35136461D01*
X58951025Y-34776670D01*
X58998499Y-34538000D01*
X63355928Y-34538000D01*
X63368188Y-34662482D01*
X63404498Y-34782180D01*
X63463463Y-34892494D01*
X63542815Y-34989185D01*
X63639506Y-35068537D01*
X63749820Y-35127502D01*
X63869518Y-35163812D01*
X63994000Y-35176072D01*
X64437250Y-35173000D01*
X64596000Y-35014250D01*
X64596000Y-33936000D01*
X63517750Y-33936000D01*
X63359000Y-34094750D01*
X63355928Y-34538000D01*
X58998499Y-34538000D01*
X59027000Y-34394718D01*
X59027000Y-34005282D01*
X58951025Y-33623330D01*
X58801995Y-33263539D01*
X58585636Y-32939736D01*
X58483900Y-32838000D01*
X63355928Y-32838000D01*
X63359000Y-33281250D01*
X63517750Y-33440000D01*
X64596000Y-33440000D01*
X64596000Y-32361750D01*
X64437250Y-32203000D01*
X63994000Y-32199928D01*
X63869518Y-32212188D01*
X63749820Y-32248498D01*
X63639506Y-32307463D01*
X63542815Y-32386815D01*
X63463463Y-32483506D01*
X63404498Y-32593820D01*
X63368188Y-32713518D01*
X63355928Y-32838000D01*
X58483900Y-32838000D01*
X58310264Y-32664364D01*
X57986461Y-32448005D01*
X57626670Y-32298975D01*
X57244718Y-32223000D01*
X56855282Y-32223000D01*
X56473330Y-32298975D01*
X56113539Y-32448005D01*
X55789736Y-32664364D01*
X55514364Y-32939736D01*
X55298005Y-33263539D01*
X55148975Y-33623330D01*
X55073000Y-34005282D01*
X53552298Y-34005282D01*
X54380216Y-33177365D01*
X54523520Y-33081612D01*
X54681612Y-32923520D01*
X54805824Y-32737624D01*
X54891383Y-32531067D01*
X54935000Y-32311788D01*
X54935000Y-32088212D01*
X54891383Y-31868933D01*
X54805824Y-31662376D01*
X54681612Y-31476480D01*
X54523520Y-31318388D01*
X54361306Y-31210000D01*
X78980419Y-31210000D01*
X73772556Y-36417864D01*
X73743477Y-36415000D01*
X73743469Y-36415000D01*
X73700000Y-36410719D01*
X73656531Y-36415000D01*
X69166579Y-36415000D01*
X68269000Y-35517422D01*
X68269000Y-34882656D01*
X68330632Y-34841475D01*
X68537475Y-34634632D01*
X68654000Y-34460240D01*
X68770525Y-34634632D01*
X68977368Y-34841475D01*
X69220589Y-35003990D01*
X69490842Y-35115932D01*
X69777740Y-35173000D01*
X70070260Y-35173000D01*
X70357158Y-35115932D01*
X70627411Y-35003990D01*
X70870632Y-34841475D01*
X71077475Y-34634632D01*
X71194000Y-34460240D01*
X71310525Y-34634632D01*
X71517368Y-34841475D01*
X71760589Y-35003990D01*
X72030842Y-35115932D01*
X72317740Y-35173000D01*
X72610260Y-35173000D01*
X72897158Y-35115932D01*
X73167411Y-35003990D01*
X73410632Y-34841475D01*
X73617475Y-34634632D01*
X73779990Y-34391411D01*
X73891932Y-34121158D01*
X73949000Y-33834260D01*
X73949000Y-33541740D01*
X73891932Y-33254842D01*
X73779990Y-32984589D01*
X73617475Y-32741368D01*
X73410632Y-32534525D01*
X73167411Y-32372010D01*
X72897158Y-32260068D01*
X72610260Y-32203000D01*
X72317740Y-32203000D01*
X72030842Y-32260068D01*
X71760589Y-32372010D01*
X71517368Y-32534525D01*
X71310525Y-32741368D01*
X71194000Y-32915760D01*
X71077475Y-32741368D01*
X70870632Y-32534525D01*
X70627411Y-32372010D01*
X70357158Y-32260068D01*
X70070260Y-32203000D01*
X69777740Y-32203000D01*
X69490842Y-32260068D01*
X69220589Y-32372010D01*
X68977368Y-32534525D01*
X68770525Y-32741368D01*
X68654000Y-32915760D01*
X68537475Y-32741368D01*
X68330632Y-32534525D01*
X68087411Y-32372010D01*
X67817158Y-32260068D01*
X67530260Y-32203000D01*
X67237740Y-32203000D01*
X66950842Y-32260068D01*
X66680589Y-32372010D01*
X66437368Y-32534525D01*
X66305513Y-32666380D01*
X66283502Y-32593820D01*
X66224537Y-32483506D01*
X66145185Y-32386815D01*
X66048494Y-32307463D01*
X65938180Y-32248498D01*
X65818482Y-32212188D01*
X65694000Y-32199928D01*
X65250750Y-32203000D01*
X65092000Y-32361750D01*
X65092000Y-33440000D01*
X65112000Y-33440000D01*
X65112000Y-33936000D01*
X65092000Y-33936000D01*
X65092000Y-35014250D01*
X65250750Y-35173000D01*
X65694000Y-35176072D01*
X65818482Y-35163812D01*
X65938180Y-35127502D01*
X66048494Y-35068537D01*
X66145185Y-34989185D01*
X66224537Y-34892494D01*
X66283502Y-34782180D01*
X66305513Y-34709620D01*
X66437368Y-34841475D01*
X66499000Y-34882656D01*
X66499000Y-35840531D01*
X66494719Y-35884000D01*
X66499000Y-35927469D01*
X66499000Y-35927476D01*
X66511805Y-36057489D01*
X66549001Y-36180105D01*
X66549001Y-37138128D01*
X61244293Y-42442838D01*
X61161356Y-42242607D01*
X60917858Y-42144667D01*
X60101925Y-42960600D01*
X60116068Y-42974743D01*
X59765343Y-43325468D01*
X59751200Y-43311325D01*
X58935267Y-44127258D01*
X59033207Y-44370756D01*
X59322111Y-44483733D01*
X59627504Y-44538178D01*
X59937651Y-44531996D01*
X60240633Y-44465427D01*
X60469193Y-44370756D01*
X60567132Y-44127260D01*
X60694341Y-44254469D01*
X60740579Y-44208231D01*
X60794176Y-44337624D01*
X60918388Y-44523520D01*
X61076480Y-44681612D01*
X61262376Y-44805824D01*
X61468933Y-44891383D01*
X61688212Y-44935000D01*
X61911788Y-44935000D01*
X62131067Y-44891383D01*
X62312790Y-44816111D01*
X62315000Y-44838553D01*
X62315001Y-50435288D01*
X62296063Y-50454226D01*
X62182795Y-50623744D01*
X62104774Y-50812102D01*
X62065000Y-51012061D01*
X62065000Y-51215939D01*
X62104774Y-51415898D01*
X62182795Y-51604256D01*
X62296063Y-51773774D01*
X62440226Y-51917937D01*
X62609744Y-52031205D01*
X62798102Y-52109226D01*
X62998061Y-52149000D01*
X63201939Y-52149000D01*
X63401898Y-52109226D01*
X63590256Y-52031205D01*
X63600002Y-52024693D01*
X63609747Y-52031205D01*
X63798105Y-52109226D01*
X63998064Y-52149000D01*
X64201942Y-52149000D01*
X64401901Y-52109226D01*
X64590259Y-52031205D01*
X64600005Y-52024693D01*
X64609750Y-52031205D01*
X64798108Y-52109226D01*
X64998067Y-52149000D01*
X65201945Y-52149000D01*
X65401904Y-52109226D01*
X65590262Y-52031205D01*
X65759780Y-51917937D01*
X65903943Y-51773774D01*
X66017211Y-51604256D01*
X66095232Y-51415898D01*
X66135006Y-51215939D01*
X66135006Y-51012061D01*
X66095232Y-50812102D01*
X66017211Y-50623744D01*
X65903943Y-50454226D01*
X65885006Y-50435289D01*
X65885006Y-46344964D01*
X66987515Y-45242456D01*
X67014296Y-45242456D01*
X67214255Y-45202682D01*
X67402613Y-45124661D01*
X67572131Y-45011393D01*
X67716294Y-44867230D01*
X67829562Y-44697712D01*
X67907583Y-44509354D01*
X67947357Y-44309395D01*
X67947357Y-44105517D01*
X67907583Y-43905558D01*
X67829562Y-43717200D01*
X67755725Y-43606694D01*
X67793333Y-43515900D01*
X67833107Y-43315941D01*
X67833107Y-43112063D01*
X67793333Y-42912104D01*
X67715312Y-42723746D01*
X67602044Y-42554228D01*
X67457881Y-42410065D01*
X67288363Y-42296797D01*
X67100005Y-42218776D01*
X66900046Y-42179002D01*
X66735000Y-42179002D01*
X66735000Y-42098061D01*
X66695226Y-41898102D01*
X66617205Y-41709744D01*
X66503937Y-41540226D01*
X66359774Y-41396063D01*
X66190256Y-41282795D01*
X66001898Y-41204774D01*
X65801939Y-41165000D01*
X65598061Y-41165000D01*
X65398102Y-41204774D01*
X65209744Y-41282795D01*
X65040226Y-41396063D01*
X64896063Y-41540226D01*
X64782795Y-41709744D01*
X64704774Y-41898102D01*
X64665000Y-42098061D01*
X64665000Y-42124842D01*
X62935000Y-43854843D01*
X62935000Y-43688212D01*
X62891383Y-43468933D01*
X62805824Y-43262376D01*
X62798080Y-43250786D01*
X67945432Y-38103435D01*
X67977291Y-38077289D01*
X68008378Y-38039410D01*
X68057094Y-37980048D01*
X68081636Y-37950144D01*
X68122366Y-37873945D01*
X68143470Y-37895049D01*
X68171183Y-37928817D01*
X68204951Y-37956530D01*
X68204953Y-37956532D01*
X68247419Y-37991383D01*
X68305941Y-38039411D01*
X68459687Y-38121589D01*
X68626510Y-38172195D01*
X68756523Y-38185000D01*
X68756533Y-38185000D01*
X68799999Y-38189281D01*
X68843465Y-38185000D01*
X72984805Y-38185000D01*
X72908617Y-38368933D01*
X72865000Y-38588212D01*
X72865000Y-38811788D01*
X72908617Y-39031067D01*
X72994176Y-39237624D01*
X73118388Y-39423520D01*
X73276480Y-39581612D01*
X73462376Y-39705824D01*
X73668933Y-39791383D01*
X73888212Y-39835000D01*
X74111788Y-39835000D01*
X74331067Y-39791383D01*
X74537624Y-39705824D01*
X74723520Y-39581612D01*
X74881612Y-39423520D01*
X75005824Y-39237624D01*
X75091383Y-39031067D01*
X75135000Y-38811788D01*
X75135000Y-38588212D01*
X75091383Y-38368933D01*
X75005824Y-38162376D01*
X74885000Y-37981550D01*
X74885000Y-37808576D01*
X75175846Y-37517730D01*
X78784669Y-37517730D01*
X78784669Y-37721608D01*
X78824443Y-37921567D01*
X78902464Y-38109925D01*
X79015732Y-38279443D01*
X79159895Y-38423606D01*
X79329413Y-38536874D01*
X79517771Y-38614895D01*
X79717730Y-38654669D01*
X79744512Y-38654669D01*
X82972187Y-41882345D01*
X82972192Y-41882349D01*
X83865000Y-42775158D01*
X83865000Y-42801939D01*
X83904774Y-43001898D01*
X83982795Y-43190256D01*
X84096063Y-43359774D01*
X84240226Y-43503937D01*
X84409744Y-43617205D01*
X84598102Y-43695226D01*
X84798061Y-43735000D01*
X85001939Y-43735000D01*
X85201898Y-43695226D01*
X85390256Y-43617205D01*
X85559774Y-43503937D01*
X85703937Y-43359774D01*
X85817205Y-43190256D01*
X85895226Y-43001898D01*
X85935000Y-42801939D01*
X85935000Y-42598061D01*
X85895226Y-42398102D01*
X85817205Y-42209744D01*
X85703937Y-42040226D01*
X85559774Y-41896063D01*
X85390256Y-41782795D01*
X85201898Y-41704774D01*
X85001939Y-41665000D01*
X84975158Y-41665000D01*
X84082349Y-40772192D01*
X84082345Y-40772187D01*
X80854669Y-37544512D01*
X80854669Y-37517730D01*
X80814895Y-37317771D01*
X80736874Y-37129413D01*
X80623606Y-36959895D01*
X80479443Y-36815732D01*
X80309925Y-36702464D01*
X80121567Y-36624443D01*
X79921608Y-36584669D01*
X79717730Y-36584669D01*
X79517771Y-36624443D01*
X79329413Y-36702464D01*
X79159895Y-36815732D01*
X79015732Y-36959895D01*
X78902464Y-37129413D01*
X78824443Y-37317771D01*
X78784669Y-37517730D01*
X75175846Y-37517730D01*
X78373000Y-34320577D01*
X78373000Y-34394718D01*
X78448975Y-34776670D01*
X78598005Y-35136461D01*
X78814364Y-35460264D01*
X79089736Y-35735636D01*
X79413539Y-35951995D01*
X79773330Y-36101025D01*
X80155282Y-36177000D01*
X80544718Y-36177000D01*
X80926670Y-36101025D01*
X81286461Y-35951995D01*
X81610264Y-35735636D01*
X81885636Y-35460264D01*
X82101995Y-35136461D01*
X82251025Y-34776670D01*
X82327000Y-34394718D01*
X82327000Y-34005282D01*
X82251025Y-33623330D01*
X82101995Y-33263539D01*
X81885636Y-32939736D01*
X81610264Y-32664364D01*
X81286461Y-32448005D01*
X80926670Y-32298975D01*
X80856413Y-32285000D01*
X81981550Y-32285000D01*
X82162376Y-32405824D01*
X82368933Y-32491383D01*
X82588212Y-32535000D01*
X82811788Y-32535000D01*
X83031067Y-32491383D01*
X83237624Y-32405824D01*
X83423520Y-32281612D01*
X83581612Y-32123520D01*
X83705824Y-31937624D01*
X83791383Y-31731067D01*
X83835000Y-31511788D01*
X83835000Y-31288212D01*
X83819443Y-31210000D01*
X83881645Y-31210000D01*
X86170744Y-33499100D01*
X86202367Y-33537633D01*
X86356160Y-33663847D01*
X86531620Y-33757632D01*
X86722005Y-33815385D01*
X86920000Y-33834886D01*
X86969608Y-33830000D01*
X97461645Y-33830000D01*
X96020901Y-35270744D01*
X95982368Y-35302367D01*
X95950745Y-35340900D01*
X95950744Y-35340901D01*
X95856154Y-35456160D01*
X95762368Y-35631621D01*
X95704615Y-35822006D01*
X95685114Y-36020000D01*
X95690001Y-36069618D01*
X95690000Y-40850392D01*
X95685114Y-40900000D01*
X95690000Y-40949607D01*
X95704615Y-41097993D01*
X95762368Y-41288379D01*
X95856153Y-41463840D01*
X95982367Y-41617633D01*
X96020906Y-41649261D01*
X97761928Y-43390283D01*
X97761928Y-45600000D01*
X97774188Y-45724482D01*
X97810498Y-45844180D01*
X97869463Y-45954494D01*
X97948815Y-46051185D01*
X98045506Y-46130537D01*
X98155820Y-46189502D01*
X98275518Y-46225812D01*
X98400000Y-46238072D01*
X101400000Y-46238072D01*
X101524482Y-46225812D01*
X101644180Y-46189502D01*
X101754494Y-46130537D01*
X101851185Y-46051185D01*
X101930537Y-45954494D01*
X101989502Y-45844180D01*
X102025812Y-45724482D01*
X102038072Y-45600000D01*
X102038072Y-42600000D01*
X102025812Y-42475518D01*
X101989502Y-42355820D01*
X101930537Y-42245506D01*
X101851185Y-42148815D01*
X101754494Y-42069463D01*
X101644180Y-42010498D01*
X101524482Y-41974188D01*
X101400000Y-41961928D01*
X99190283Y-41961928D01*
X97710000Y-40481645D01*
X97710000Y-37689721D01*
X97765000Y-37689721D01*
X97765000Y-38110279D01*
X97847047Y-38522756D01*
X98007988Y-38911302D01*
X98241637Y-39260983D01*
X98539017Y-39558363D01*
X98888698Y-39792012D01*
X99277244Y-39952953D01*
X99689721Y-40035000D01*
X100110279Y-40035000D01*
X100522756Y-39952953D01*
X100911302Y-39792012D01*
X101260983Y-39558363D01*
X101558363Y-39260983D01*
X101792012Y-38911302D01*
X101952953Y-38522756D01*
X102035000Y-38110279D01*
X102035000Y-37689721D01*
X101952953Y-37277244D01*
X101792012Y-36888698D01*
X101558363Y-36539017D01*
X101260983Y-36241637D01*
X100911302Y-36007988D01*
X100522756Y-35847047D01*
X100110279Y-35765000D01*
X99689721Y-35765000D01*
X99277244Y-35847047D01*
X98888698Y-36007988D01*
X98539017Y-36241637D01*
X98241637Y-36539017D01*
X98007988Y-36888698D01*
X97847047Y-37277244D01*
X97765000Y-37689721D01*
X97710000Y-37689721D01*
X97710000Y-36438355D01*
X99190283Y-34958072D01*
X101400000Y-34958072D01*
X101524482Y-34945812D01*
X101644180Y-34909502D01*
X101754494Y-34850537D01*
X101851185Y-34771185D01*
X101930537Y-34674494D01*
X101989502Y-34564180D01*
X102025812Y-34444482D01*
X102038072Y-34320000D01*
X102038072Y-31320000D01*
X102025812Y-31195518D01*
X101989502Y-31075820D01*
X101930537Y-30965506D01*
X101851185Y-30868815D01*
X101754494Y-30789463D01*
X101644180Y-30730498D01*
X101524482Y-30694188D01*
X101400000Y-30681928D01*
X98400000Y-30681928D01*
X98275518Y-30694188D01*
X98155820Y-30730498D01*
X98045506Y-30789463D01*
X97948815Y-30868815D01*
X97869463Y-30965506D01*
X97810498Y-31075820D01*
X97774188Y-31195518D01*
X97761928Y-31320000D01*
X97761928Y-31810000D01*
X87338356Y-31810000D01*
X85049261Y-29520906D01*
X85017633Y-29482367D01*
X84863840Y-29356153D01*
X84688380Y-29262368D01*
X84497994Y-29204615D01*
X84349608Y-29190000D01*
X84300000Y-29185114D01*
X84250392Y-29190000D01*
X48349604Y-29190000D01*
X48299999Y-29185114D01*
X48250394Y-29190000D01*
X48250392Y-29190000D01*
X48102006Y-29204615D01*
X47911620Y-29262368D01*
X47736160Y-29356153D01*
X47582367Y-29482367D01*
X47550739Y-29520906D01*
X44720901Y-32350744D01*
X44682368Y-32382367D01*
X44650745Y-32420900D01*
X44650744Y-32420901D01*
X44556154Y-32536160D01*
X44462368Y-32711621D01*
X44404615Y-32902006D01*
X44385114Y-33100000D01*
X44390001Y-33149618D01*
X44390000Y-47172458D01*
X44308617Y-47368933D01*
X44265000Y-47588212D01*
X35525762Y-47588212D01*
X35346738Y-47320285D01*
X34979715Y-46953262D01*
X34548141Y-46664893D01*
X34068601Y-46466261D01*
X33559525Y-46365000D01*
X33040475Y-46365000D01*
X32531399Y-46466261D01*
X32051859Y-46664893D01*
X31620285Y-46953262D01*
X31253262Y-47320285D01*
X30964893Y-47751859D01*
X30766261Y-48231399D01*
X30665000Y-48740475D01*
X30660000Y-48740475D01*
X30660000Y-44397649D01*
X34521330Y-44397649D01*
X34529966Y-44690041D01*
X34595480Y-44975129D01*
X34673816Y-45164250D01*
X34908207Y-45251068D01*
X35659275Y-44500000D01*
X34908207Y-43748932D01*
X34673816Y-43835750D01*
X34569902Y-44109191D01*
X34521330Y-44397649D01*
X30660000Y-44397649D01*
X30660000Y-41623740D01*
X34525000Y-41623740D01*
X34525000Y-41916260D01*
X34582068Y-42203158D01*
X34694010Y-42473411D01*
X34856525Y-42716632D01*
X35063368Y-42923475D01*
X35306589Y-43085990D01*
X35420114Y-43133014D01*
X35345750Y-43163816D01*
X35258932Y-43398207D01*
X36010000Y-44149275D01*
X36024143Y-44135133D01*
X36374868Y-44485858D01*
X36360725Y-44500000D01*
X36374868Y-44514143D01*
X36024143Y-44864868D01*
X36010000Y-44850725D01*
X35258932Y-45601793D01*
X35345750Y-45836184D01*
X35619191Y-45940098D01*
X35907649Y-45988670D01*
X36200041Y-45980034D01*
X36485129Y-45914520D01*
X36674250Y-45836184D01*
X36761067Y-45601795D01*
X36889336Y-45730064D01*
X37014647Y-45604754D01*
X37063368Y-45653475D01*
X37306589Y-45815990D01*
X37576842Y-45927932D01*
X37863740Y-45985000D01*
X38156260Y-45985000D01*
X38443158Y-45927932D01*
X38713411Y-45815990D01*
X38956632Y-45653475D01*
X39163475Y-45446632D01*
X39325990Y-45203411D01*
X39437932Y-44933158D01*
X39495000Y-44646260D01*
X39495000Y-44353740D01*
X39437932Y-44066842D01*
X39325990Y-43796589D01*
X39163475Y-43553368D01*
X38956632Y-43346525D01*
X38713411Y-43184010D01*
X38595090Y-43135000D01*
X38713411Y-43085990D01*
X38956632Y-42923475D01*
X39163475Y-42716632D01*
X39325990Y-42473411D01*
X39437932Y-42203158D01*
X39495000Y-41916260D01*
X39495000Y-41623740D01*
X39437932Y-41336842D01*
X39325990Y-41066589D01*
X39163475Y-40823368D01*
X38956632Y-40616525D01*
X38713411Y-40454010D01*
X38443158Y-40342068D01*
X38156260Y-40285000D01*
X37863740Y-40285000D01*
X37576842Y-40342068D01*
X37306589Y-40454010D01*
X37063368Y-40616525D01*
X37010000Y-40669893D01*
X36956632Y-40616525D01*
X36713411Y-40454010D01*
X36443158Y-40342068D01*
X36156260Y-40285000D01*
X35863740Y-40285000D01*
X35576842Y-40342068D01*
X35306589Y-40454010D01*
X35063368Y-40616525D01*
X34856525Y-40823368D01*
X34694010Y-41066589D01*
X34582068Y-41336842D01*
X34525000Y-41623740D01*
X30660000Y-41623740D01*
X30660000Y-36740475D01*
X30665000Y-36740475D01*
X30665000Y-37259525D01*
X30766261Y-37768601D01*
X30964893Y-38248141D01*
X31253262Y-38679715D01*
X31620285Y-39046738D01*
X32051859Y-39335107D01*
X32531399Y-39533739D01*
X33040475Y-39635000D01*
X33559525Y-39635000D01*
X34068601Y-39533739D01*
X34548141Y-39335107D01*
X34979715Y-39046738D01*
X35346738Y-38679715D01*
X35635107Y-38248141D01*
X35833739Y-37768601D01*
X35935000Y-37259525D01*
X35935000Y-36740475D01*
X35833739Y-36231399D01*
X35635107Y-35751859D01*
X35346738Y-35320285D01*
X34979715Y-34953262D01*
X34548141Y-34664893D01*
X34068601Y-34466261D01*
X33559525Y-34365000D01*
X33040475Y-34365000D01*
X32531399Y-34466261D01*
X32051859Y-34664893D01*
X31620285Y-34953262D01*
X31253262Y-35320285D01*
X30964893Y-35751859D01*
X30766261Y-36231399D01*
X30665000Y-36740475D01*
X30660000Y-36740475D01*
X30660000Y-28432278D01*
X30684748Y-28179872D01*
X31165000Y-28179872D01*
X31165000Y-28620128D01*
X31250890Y-29051925D01*
X31419369Y-29458669D01*
X31663962Y-29824729D01*
X31975271Y-30136038D01*
X32341331Y-30380631D01*
X32748075Y-30549110D01*
X33179872Y-30635000D01*
X33620128Y-30635000D01*
X34051925Y-30549110D01*
X34458669Y-30380631D01*
X34824729Y-30136038D01*
X35136038Y-29824729D01*
X35380631Y-29458669D01*
X35549110Y-29051925D01*
X35635000Y-28620128D01*
X35635000Y-28179872D01*
X35574733Y-27876890D01*
X37950048Y-27876890D01*
X37950048Y-28123110D01*
X37998083Y-28364598D01*
X38092307Y-28592074D01*
X38229099Y-28796798D01*
X38403202Y-28970901D01*
X38607926Y-29107693D01*
X38835402Y-29201917D01*
X39076890Y-29249952D01*
X39323110Y-29249952D01*
X39564598Y-29201917D01*
X39792074Y-29107693D01*
X39996798Y-28970901D01*
X40170901Y-28796798D01*
X40307693Y-28592074D01*
X40401917Y-28364598D01*
X40449952Y-28123110D01*
X40449952Y-27876890D01*
X40401917Y-27635402D01*
X40307693Y-27407926D01*
X40170901Y-27203202D01*
X39996798Y-27029099D01*
X39792074Y-26892307D01*
X39564598Y-26798083D01*
X39323110Y-26750048D01*
X39076890Y-26750048D01*
X38835402Y-26798083D01*
X38607926Y-26892307D01*
X38403202Y-27029099D01*
X38229099Y-27203202D01*
X38092307Y-27407926D01*
X37998083Y-27635402D01*
X37950048Y-27876890D01*
X35574733Y-27876890D01*
X35549110Y-27748075D01*
X35380631Y-27341331D01*
X35136038Y-26975271D01*
X34824729Y-26663962D01*
X34458669Y-26419369D01*
X34051925Y-26250890D01*
X33620128Y-26165000D01*
X33179872Y-26165000D01*
X32748075Y-26250890D01*
X32341331Y-26419369D01*
X31975271Y-26663962D01*
X31663962Y-26975271D01*
X31419369Y-27341331D01*
X31250890Y-27748075D01*
X31165000Y-28179872D01*
X30684748Y-28179872D01*
X30715287Y-27868414D01*
X30869670Y-27357073D01*
X31120431Y-26885460D01*
X31458022Y-26471533D01*
X31869583Y-26131060D01*
X32339433Y-25877013D01*
X32849688Y-25719063D01*
X33411638Y-25660000D01*
X48624990Y-25660000D01*
X48600498Y-25705820D01*
G37*
%TD.AperFunction*%
%TD*%
M02*
